M48
; DRILL file {KiCad (6.0.0-0)} date Tuesday, February 22, 2022 at 01:50:26 PM
; FORMAT={-:-/ absolute / metric / decimal}
; #@! TF.CreationDate,2022-02-22T13:50:26-05:00
; #@! TF.GenerationSoftware,Kicad,Pcbnew,(6.0.0-0)
; #@! TF.FileFunction,MixedPlating,1,2
FMAT,2
METRIC
; #@! TA.AperFunction,Plated,PTH,ComponentDrill
T1C0.800
; #@! TA.AperFunction,Plated,PTH,ComponentDrill
T2C1.100
; #@! TA.AperFunction,Plated,PTH,ComponentDrill
T3C1.200
; #@! TA.AperFunction,Plated,PTH,ComponentDrill
T4C1.300
; #@! TA.AperFunction,NonPlated,NPTH,ComponentDrill
T5C2.200
%
G90
G05
T1
X196.22Y-46.238
X196.22Y-53.858
X198.76Y-46.238
X198.76Y-53.858
X201.3Y-46.238
X201.3Y-53.858
X203.84Y-46.238
X203.84Y-53.858
X204.998Y-76.2
X206.38Y-46.238
X206.38Y-53.858
X207.498Y-76.2
X208.554Y-19.177
X208.92Y-46.238
X208.92Y-53.858
X211.054Y-19.177
X211.46Y-46.238
X211.46Y-53.858
X222.493Y-66.091
X224.993Y-66.091
X231.013Y-19.177
X233.513Y-19.177
T2
X206.553Y-67.391
X208.153Y-28.646
X209.093Y-67.391
X210.693Y-28.646
X211.633Y-67.391
X213.233Y-28.646
X221.132Y-76.891
X223.672Y-76.891
X226.212Y-76.891
X233.68Y-28.646
X236.22Y-28.646
X238.76Y-28.646
X262.509Y-38.735
X265.049Y-38.735
X267.589Y-38.735
T3
X161.747Y-73.457
X161.798Y-64.922
X162.306Y-19.05
X162.306Y-28.575
X176.987Y-73.457
X177.038Y-64.922
X177.546Y-19.05
X177.546Y-28.575
X182.575Y-65.075
X182.677Y-73.457
X184.658Y-19.177
X184.658Y-28.702
X197.815Y-65.075
X197.917Y-73.457
X199.898Y-19.177
X199.898Y-28.702
X232.004Y-66.904
X232.105Y-76.098
X236.22Y-38.735
X236.22Y-46.99
X246.38Y-19.05
X246.38Y-28.575
X247.244Y-66.904
X247.345Y-76.098
X251.46Y-38.735
X251.46Y-46.99
X253.39Y-67.005
X253.695Y-76.048
X261.62Y-19.05
X261.62Y-28.575
X267.97Y-19.05
X267.97Y-28.575
X268.63Y-67.005
X268.935Y-76.048
X283.21Y-19.05
X283.21Y-28.575
T4
X168.661Y-7.315
X169.057Y-87.732
X173.741Y-7.315
X174.137Y-87.732
X178.821Y-7.315
X179.217Y-87.732
X248.966Y-87.732
X254.046Y-87.732
X259.126Y-87.732
X262.89Y-7.874
X267.97Y-7.874
X273.05Y-7.874
X277.419Y-52.71
X277.419Y-57.79
X277.546Y-66.802
X277.546Y-71.882
X277.546Y-76.962
X277.546Y-82.042
T5
X155.346Y-2.896
X155.397Y-102.972
X294.081Y-2.845
X294.081Y-103.022
T0
M30
