%TF.GenerationSoftware,KiCad,Pcbnew,(6.0.0-0)*%
%TF.CreationDate,2022-02-22T18:35:48-05:00*%
%TF.ProjectId,lm224-3lows-1hi,6c6d3232-342d-4336-9c6f-77732d316869,rev?*%
%TF.SameCoordinates,Original*%
%TF.FileFunction,Legend,Top*%
%TF.FilePolarity,Positive*%
%FSLAX46Y46*%
G04 Gerber Fmt 4.6, Leading zero omitted, Abs format (unit mm)*
G04 Created by KiCad (PCBNEW (6.0.0-0)) date 2022-02-22 18:35:48*
%MOMM*%
%LPD*%
G01*
G04 APERTURE LIST*
%ADD10C,0.300000*%
%ADD11C,0.150000*%
%ADD12C,0.120000*%
G04 APERTURE END LIST*
D10*
X119694628Y-139413371D02*
X118837485Y-139413371D01*
X119266057Y-139413371D02*
X119266057Y-137913371D01*
X119123200Y-138127657D01*
X118980342Y-138270514D01*
X118837485Y-138341942D01*
X120266057Y-138056228D02*
X120337485Y-137984800D01*
X120480342Y-137913371D01*
X120837485Y-137913371D01*
X120980342Y-137984800D01*
X121051771Y-138056228D01*
X121123200Y-138199085D01*
X121123200Y-138341942D01*
X121051771Y-138556228D01*
X120194628Y-139413371D01*
X121123200Y-139413371D01*
X121551771Y-137913371D02*
X122051771Y-139413371D01*
X122551771Y-137913371D01*
X123051771Y-139413371D02*
X123051771Y-137913371D01*
X123408914Y-137913371D01*
X123623200Y-137984800D01*
X123766057Y-138127657D01*
X123837485Y-138270514D01*
X123908914Y-138556228D01*
X123908914Y-138770514D01*
X123837485Y-139056228D01*
X123766057Y-139199085D01*
X123623200Y-139341942D01*
X123408914Y-139413371D01*
X123051771Y-139413371D01*
X125408914Y-139270514D02*
X125337485Y-139341942D01*
X125123200Y-139413371D01*
X124980342Y-139413371D01*
X124766057Y-139341942D01*
X124623200Y-139199085D01*
X124551771Y-139056228D01*
X124480342Y-138770514D01*
X124480342Y-138556228D01*
X124551771Y-138270514D01*
X124623200Y-138127657D01*
X124766057Y-137984800D01*
X124980342Y-137913371D01*
X125123200Y-137913371D01*
X125337485Y-137984800D01*
X125408914Y-138056228D01*
X198942628Y-139387771D02*
X198085485Y-139387771D01*
X198514057Y-139387771D02*
X198514057Y-137887771D01*
X198371200Y-138102057D01*
X198228342Y-138244914D01*
X198085485Y-138316342D01*
X199514057Y-138030628D02*
X199585485Y-137959200D01*
X199728342Y-137887771D01*
X200085485Y-137887771D01*
X200228342Y-137959200D01*
X200299771Y-138030628D01*
X200371200Y-138173485D01*
X200371200Y-138316342D01*
X200299771Y-138530628D01*
X199442628Y-139387771D01*
X200371200Y-139387771D01*
X200799771Y-137887771D02*
X201299771Y-139387771D01*
X201799771Y-137887771D01*
X202299771Y-139387771D02*
X202299771Y-137887771D01*
X202656914Y-137887771D01*
X202871200Y-137959200D01*
X203014057Y-138102057D01*
X203085485Y-138244914D01*
X203156914Y-138530628D01*
X203156914Y-138744914D01*
X203085485Y-139030628D01*
X203014057Y-139173485D01*
X202871200Y-139316342D01*
X202656914Y-139387771D01*
X202299771Y-139387771D01*
X204656914Y-139244914D02*
X204585485Y-139316342D01*
X204371200Y-139387771D01*
X204228342Y-139387771D01*
X204014057Y-139316342D01*
X203871200Y-139173485D01*
X203799771Y-139030628D01*
X203728342Y-138744914D01*
X203728342Y-138530628D01*
X203799771Y-138244914D01*
X203871200Y-138102057D01*
X204014057Y-137959200D01*
X204228342Y-137887771D01*
X204371200Y-137887771D01*
X204585485Y-137959200D01*
X204656914Y-138030628D01*
X223850342Y-138162400D02*
X223707485Y-138090971D01*
X223493200Y-138090971D01*
X223278914Y-138162400D01*
X223136057Y-138305257D01*
X223064628Y-138448114D01*
X222993200Y-138733828D01*
X222993200Y-138948114D01*
X223064628Y-139233828D01*
X223136057Y-139376685D01*
X223278914Y-139519542D01*
X223493200Y-139590971D01*
X223636057Y-139590971D01*
X223850342Y-139519542D01*
X223921771Y-139448114D01*
X223921771Y-138948114D01*
X223636057Y-138948114D01*
X224564628Y-139590971D02*
X224564628Y-138090971D01*
X225421771Y-139590971D01*
X225421771Y-138090971D01*
X226136057Y-139590971D02*
X226136057Y-138090971D01*
X226493200Y-138090971D01*
X226707485Y-138162400D01*
X226850342Y-138305257D01*
X226921771Y-138448114D01*
X226993200Y-138733828D01*
X226993200Y-138948114D01*
X226921771Y-139233828D01*
X226850342Y-139376685D01*
X226707485Y-139519542D01*
X226493200Y-139590971D01*
X226136057Y-139590971D01*
X143738742Y-138060800D02*
X143595885Y-137989371D01*
X143381600Y-137989371D01*
X143167314Y-138060800D01*
X143024457Y-138203657D01*
X142953028Y-138346514D01*
X142881600Y-138632228D01*
X142881600Y-138846514D01*
X142953028Y-139132228D01*
X143024457Y-139275085D01*
X143167314Y-139417942D01*
X143381600Y-139489371D01*
X143524457Y-139489371D01*
X143738742Y-139417942D01*
X143810171Y-139346514D01*
X143810171Y-138846514D01*
X143524457Y-138846514D01*
X144453028Y-139489371D02*
X144453028Y-137989371D01*
X145310171Y-139489371D01*
X145310171Y-137989371D01*
X146024457Y-139489371D02*
X146024457Y-137989371D01*
X146381600Y-137989371D01*
X146595885Y-138060800D01*
X146738742Y-138203657D01*
X146810171Y-138346514D01*
X146881600Y-138632228D01*
X146881600Y-138846514D01*
X146810171Y-139132228D01*
X146738742Y-139275085D01*
X146595885Y-139417942D01*
X146381600Y-139489371D01*
X146024457Y-139489371D01*
X120675542Y-57593600D02*
X120532685Y-57522171D01*
X120318400Y-57522171D01*
X120104114Y-57593600D01*
X119961257Y-57736457D01*
X119889828Y-57879314D01*
X119818400Y-58165028D01*
X119818400Y-58379314D01*
X119889828Y-58665028D01*
X119961257Y-58807885D01*
X120104114Y-58950742D01*
X120318400Y-59022171D01*
X120461257Y-59022171D01*
X120675542Y-58950742D01*
X120746971Y-58879314D01*
X120746971Y-58379314D01*
X120461257Y-58379314D01*
X121389828Y-59022171D02*
X121389828Y-57522171D01*
X122246971Y-59022171D01*
X122246971Y-57522171D01*
X122961257Y-59022171D02*
X122961257Y-57522171D01*
X123318400Y-57522171D01*
X123532685Y-57593600D01*
X123675542Y-57736457D01*
X123746971Y-57879314D01*
X123818400Y-58165028D01*
X123818400Y-58379314D01*
X123746971Y-58665028D01*
X123675542Y-58807885D01*
X123532685Y-58950742D01*
X123318400Y-59022171D01*
X122961257Y-59022171D01*
X143164228Y-58971371D02*
X142307085Y-58971371D01*
X142735657Y-58971371D02*
X142735657Y-57471371D01*
X142592800Y-57685657D01*
X142449942Y-57828514D01*
X142307085Y-57899942D01*
X143735657Y-57614228D02*
X143807085Y-57542800D01*
X143949942Y-57471371D01*
X144307085Y-57471371D01*
X144449942Y-57542800D01*
X144521371Y-57614228D01*
X144592800Y-57757085D01*
X144592800Y-57899942D01*
X144521371Y-58114228D01*
X143664228Y-58971371D01*
X144592800Y-58971371D01*
X145021371Y-57471371D02*
X145521371Y-58971371D01*
X146021371Y-57471371D01*
X146521371Y-58971371D02*
X146521371Y-57471371D01*
X146878514Y-57471371D01*
X147092800Y-57542800D01*
X147235657Y-57685657D01*
X147307085Y-57828514D01*
X147378514Y-58114228D01*
X147378514Y-58328514D01*
X147307085Y-58614228D01*
X147235657Y-58757085D01*
X147092800Y-58899942D01*
X146878514Y-58971371D01*
X146521371Y-58971371D01*
X148878514Y-58828514D02*
X148807085Y-58899942D01*
X148592800Y-58971371D01*
X148449942Y-58971371D01*
X148235657Y-58899942D01*
X148092800Y-58757085D01*
X148021371Y-58614228D01*
X147949942Y-58328514D01*
X147949942Y-58114228D01*
X148021371Y-57828514D01*
X148092800Y-57685657D01*
X148235657Y-57542800D01*
X148449942Y-57471371D01*
X148592800Y-57471371D01*
X148807085Y-57542800D01*
X148878514Y-57614228D01*
X214096742Y-57898400D02*
X213953885Y-57826971D01*
X213739600Y-57826971D01*
X213525314Y-57898400D01*
X213382457Y-58041257D01*
X213311028Y-58184114D01*
X213239600Y-58469828D01*
X213239600Y-58684114D01*
X213311028Y-58969828D01*
X213382457Y-59112685D01*
X213525314Y-59255542D01*
X213739600Y-59326971D01*
X213882457Y-59326971D01*
X214096742Y-59255542D01*
X214168171Y-59184114D01*
X214168171Y-58684114D01*
X213882457Y-58684114D01*
X214811028Y-59326971D02*
X214811028Y-57826971D01*
X215668171Y-59326971D01*
X215668171Y-57826971D01*
X216382457Y-59326971D02*
X216382457Y-57826971D01*
X216739600Y-57826971D01*
X216953885Y-57898400D01*
X217096742Y-58041257D01*
X217168171Y-58184114D01*
X217239600Y-58469828D01*
X217239600Y-58684114D01*
X217168171Y-58969828D01*
X217096742Y-59112685D01*
X216953885Y-59255542D01*
X216739600Y-59326971D01*
X216382457Y-59326971D01*
X237906228Y-59377771D02*
X237049085Y-59377771D01*
X237477657Y-59377771D02*
X237477657Y-57877771D01*
X237334800Y-58092057D01*
X237191942Y-58234914D01*
X237049085Y-58306342D01*
X238477657Y-58020628D02*
X238549085Y-57949200D01*
X238691942Y-57877771D01*
X239049085Y-57877771D01*
X239191942Y-57949200D01*
X239263371Y-58020628D01*
X239334800Y-58163485D01*
X239334800Y-58306342D01*
X239263371Y-58520628D01*
X238406228Y-59377771D01*
X239334800Y-59377771D01*
X239763371Y-57877771D02*
X240263371Y-59377771D01*
X240763371Y-57877771D01*
X241263371Y-59377771D02*
X241263371Y-57877771D01*
X241620514Y-57877771D01*
X241834800Y-57949200D01*
X241977657Y-58092057D01*
X242049085Y-58234914D01*
X242120514Y-58520628D01*
X242120514Y-58734914D01*
X242049085Y-59020628D01*
X241977657Y-59163485D01*
X241834800Y-59306342D01*
X241620514Y-59377771D01*
X241263371Y-59377771D01*
X243620514Y-59234914D02*
X243549085Y-59306342D01*
X243334800Y-59377771D01*
X243191942Y-59377771D01*
X242977657Y-59306342D01*
X242834800Y-59163485D01*
X242763371Y-59020628D01*
X242691942Y-58734914D01*
X242691942Y-58520628D01*
X242763371Y-58234914D01*
X242834800Y-58092057D01*
X242977657Y-57949200D01*
X243191942Y-57877771D01*
X243334800Y-57877771D01*
X243549085Y-57949200D01*
X243620514Y-58020628D01*
X246347657Y-117520057D02*
X246561942Y-117591485D01*
X246633371Y-117662914D01*
X246704800Y-117805771D01*
X246704800Y-118020057D01*
X246633371Y-118162914D01*
X246561942Y-118234342D01*
X246419085Y-118305771D01*
X245847657Y-118305771D01*
X245847657Y-116805771D01*
X246347657Y-116805771D01*
X246490514Y-116877200D01*
X246561942Y-116948628D01*
X246633371Y-117091485D01*
X246633371Y-117234342D01*
X246561942Y-117377200D01*
X246490514Y-117448628D01*
X246347657Y-117520057D01*
X245847657Y-117520057D01*
X247561942Y-118305771D02*
X247419085Y-118234342D01*
X247347657Y-118091485D01*
X247347657Y-116805771D01*
X248776228Y-117305771D02*
X248776228Y-118305771D01*
X248133371Y-117305771D02*
X248133371Y-118091485D01*
X248204800Y-118234342D01*
X248347657Y-118305771D01*
X248561942Y-118305771D01*
X248704800Y-118234342D01*
X248776228Y-118162914D01*
X250061942Y-118234342D02*
X249919085Y-118305771D01*
X249633371Y-118305771D01*
X249490514Y-118234342D01*
X249419085Y-118091485D01*
X249419085Y-117520057D01*
X249490514Y-117377200D01*
X249633371Y-117305771D01*
X249919085Y-117305771D01*
X250061942Y-117377200D01*
X250133371Y-117520057D01*
X250133371Y-117662914D01*
X249419085Y-117805771D01*
X246630285Y-121601600D02*
X246487428Y-121530171D01*
X246273142Y-121530171D01*
X246058857Y-121601600D01*
X245916000Y-121744457D01*
X245844571Y-121887314D01*
X245773142Y-122173028D01*
X245773142Y-122387314D01*
X245844571Y-122673028D01*
X245916000Y-122815885D01*
X246058857Y-122958742D01*
X246273142Y-123030171D01*
X246416000Y-123030171D01*
X246630285Y-122958742D01*
X246701714Y-122887314D01*
X246701714Y-122387314D01*
X246416000Y-122387314D01*
X247344571Y-123030171D02*
X247344571Y-122030171D01*
X247344571Y-122315885D02*
X247416000Y-122173028D01*
X247487428Y-122101600D01*
X247630285Y-122030171D01*
X247773142Y-122030171D01*
X248844571Y-122958742D02*
X248701714Y-123030171D01*
X248416000Y-123030171D01*
X248273142Y-122958742D01*
X248201714Y-122815885D01*
X248201714Y-122244457D01*
X248273142Y-122101600D01*
X248416000Y-122030171D01*
X248701714Y-122030171D01*
X248844571Y-122101600D01*
X248916000Y-122244457D01*
X248916000Y-122387314D01*
X248201714Y-122530171D01*
X250130285Y-122958742D02*
X249987428Y-123030171D01*
X249701714Y-123030171D01*
X249558857Y-122958742D01*
X249487428Y-122815885D01*
X249487428Y-122244457D01*
X249558857Y-122101600D01*
X249701714Y-122030171D01*
X249987428Y-122030171D01*
X250130285Y-122101600D01*
X250201714Y-122244457D01*
X250201714Y-122387314D01*
X249487428Y-122530171D01*
X250844571Y-122030171D02*
X250844571Y-123030171D01*
X250844571Y-122173028D02*
X250916000Y-122101600D01*
X251058857Y-122030171D01*
X251273142Y-122030171D01*
X251416000Y-122101600D01*
X251487428Y-122244457D01*
X251487428Y-123030171D01*
X246996057Y-128414971D02*
X246496057Y-127700685D01*
X246138914Y-128414971D02*
X246138914Y-126914971D01*
X246710342Y-126914971D01*
X246853200Y-126986400D01*
X246924628Y-127057828D01*
X246996057Y-127200685D01*
X246996057Y-127414971D01*
X246924628Y-127557828D01*
X246853200Y-127629257D01*
X246710342Y-127700685D01*
X246138914Y-127700685D01*
X248210342Y-128343542D02*
X248067485Y-128414971D01*
X247781771Y-128414971D01*
X247638914Y-128343542D01*
X247567485Y-128200685D01*
X247567485Y-127629257D01*
X247638914Y-127486400D01*
X247781771Y-127414971D01*
X248067485Y-127414971D01*
X248210342Y-127486400D01*
X248281771Y-127629257D01*
X248281771Y-127772114D01*
X247567485Y-127914971D01*
X249567485Y-128414971D02*
X249567485Y-126914971D01*
X249567485Y-128343542D02*
X249424628Y-128414971D01*
X249138914Y-128414971D01*
X248996057Y-128343542D01*
X248924628Y-128272114D01*
X248853200Y-128129257D01*
X248853200Y-127700685D01*
X248924628Y-127557828D01*
X248996057Y-127486400D01*
X249138914Y-127414971D01*
X249424628Y-127414971D01*
X249567485Y-127486400D01*
X246924628Y-133748971D02*
X246067485Y-133748971D01*
X246496057Y-133748971D02*
X246496057Y-132248971D01*
X246353200Y-132463257D01*
X246210342Y-132606114D01*
X246067485Y-132677542D01*
X247496057Y-132391828D02*
X247567485Y-132320400D01*
X247710342Y-132248971D01*
X248067485Y-132248971D01*
X248210342Y-132320400D01*
X248281771Y-132391828D01*
X248353200Y-132534685D01*
X248353200Y-132677542D01*
X248281771Y-132891828D01*
X247424628Y-133748971D01*
X248353200Y-133748971D01*
X248781771Y-132248971D02*
X249281771Y-133748971D01*
X249781771Y-132248971D01*
X245999142Y-108342800D02*
X245856285Y-108271371D01*
X245642000Y-108271371D01*
X245427714Y-108342800D01*
X245284857Y-108485657D01*
X245213428Y-108628514D01*
X245142000Y-108914228D01*
X245142000Y-109128514D01*
X245213428Y-109414228D01*
X245284857Y-109557085D01*
X245427714Y-109699942D01*
X245642000Y-109771371D01*
X245784857Y-109771371D01*
X245999142Y-109699942D01*
X246070571Y-109628514D01*
X246070571Y-109128514D01*
X245784857Y-109128514D01*
X246713428Y-109771371D02*
X246713428Y-108271371D01*
X247570571Y-109771371D01*
X247570571Y-108271371D01*
X248284857Y-109771371D02*
X248284857Y-108271371D01*
X248642000Y-108271371D01*
X248856285Y-108342800D01*
X248999142Y-108485657D01*
X249070571Y-108628514D01*
X249142000Y-108914228D01*
X249142000Y-109128514D01*
X249070571Y-109414228D01*
X248999142Y-109557085D01*
X248856285Y-109699942D01*
X248642000Y-109771371D01*
X248284857Y-109771371D01*
X243303942Y-103713542D02*
X244446800Y-103713542D01*
X243875371Y-104284971D02*
X243875371Y-103142114D01*
X245946800Y-104284971D02*
X245089657Y-104284971D01*
X245518228Y-104284971D02*
X245518228Y-102784971D01*
X245375371Y-102999257D01*
X245232514Y-103142114D01*
X245089657Y-103213542D01*
X246518228Y-102927828D02*
X246589657Y-102856400D01*
X246732514Y-102784971D01*
X247089657Y-102784971D01*
X247232514Y-102856400D01*
X247303942Y-102927828D01*
X247375371Y-103070685D01*
X247375371Y-103213542D01*
X247303942Y-103427828D01*
X246446800Y-104284971D01*
X247375371Y-104284971D01*
X247803942Y-102784971D02*
X248303942Y-104284971D01*
X248803942Y-102784971D01*
X249303942Y-104284971D02*
X249303942Y-102784971D01*
X249661085Y-102784971D01*
X249875371Y-102856400D01*
X250018228Y-102999257D01*
X250089657Y-103142114D01*
X250161085Y-103427828D01*
X250161085Y-103642114D01*
X250089657Y-103927828D01*
X250018228Y-104070685D01*
X249875371Y-104213542D01*
X249661085Y-104284971D01*
X249303942Y-104284971D01*
X251661085Y-104142114D02*
X251589657Y-104213542D01*
X251375371Y-104284971D01*
X251232514Y-104284971D01*
X251018228Y-104213542D01*
X250875371Y-104070685D01*
X250803942Y-103927828D01*
X250732514Y-103642114D01*
X250732514Y-103427828D01*
X250803942Y-103142114D01*
X250875371Y-102999257D01*
X251018228Y-102856400D01*
X251232514Y-102784971D01*
X251375371Y-102784971D01*
X251589657Y-102856400D01*
X251661085Y-102927828D01*
X162165428Y-55162600D02*
X162879714Y-55162600D01*
X162022571Y-55591171D02*
X162522571Y-54091171D01*
X163022571Y-55591171D01*
X163522571Y-54591171D02*
X163522571Y-55591171D01*
X163522571Y-54734028D02*
X163593999Y-54662600D01*
X163736857Y-54591171D01*
X163951142Y-54591171D01*
X164093999Y-54662600D01*
X164165428Y-54805457D01*
X164165428Y-55591171D01*
X165522571Y-55591171D02*
X165522571Y-54805457D01*
X165451142Y-54662600D01*
X165308285Y-54591171D01*
X165022571Y-54591171D01*
X164879714Y-54662600D01*
X165522571Y-55519742D02*
X165379714Y-55591171D01*
X165022571Y-55591171D01*
X164879714Y-55519742D01*
X164808285Y-55376885D01*
X164808285Y-55234028D01*
X164879714Y-55091171D01*
X165022571Y-55019742D01*
X165379714Y-55019742D01*
X165522571Y-54948314D01*
X166451142Y-55591171D02*
X166308285Y-55519742D01*
X166236857Y-55376885D01*
X166236857Y-54091171D01*
X167236857Y-55591171D02*
X167093999Y-55519742D01*
X167022571Y-55448314D01*
X166951142Y-55305457D01*
X166951142Y-54876885D01*
X167022571Y-54734028D01*
X167093999Y-54662600D01*
X167236857Y-54591171D01*
X167451142Y-54591171D01*
X167593999Y-54662600D01*
X167665428Y-54734028D01*
X167736857Y-54876885D01*
X167736857Y-55305457D01*
X167665428Y-55448314D01*
X167593999Y-55519742D01*
X167451142Y-55591171D01*
X167236857Y-55591171D01*
X169022571Y-54591171D02*
X169022571Y-55805457D01*
X168951142Y-55948314D01*
X168879714Y-56019742D01*
X168736857Y-56091171D01*
X168522571Y-56091171D01*
X168379714Y-56019742D01*
X169022571Y-55519742D02*
X168879714Y-55591171D01*
X168593999Y-55591171D01*
X168451142Y-55519742D01*
X168379714Y-55448314D01*
X168308285Y-55305457D01*
X168308285Y-54876885D01*
X168379714Y-54734028D01*
X168451142Y-54662600D01*
X168593999Y-54591171D01*
X168879714Y-54591171D01*
X169022571Y-54662600D01*
X171593999Y-55591171D02*
X170879714Y-55591171D01*
X170879714Y-54091171D01*
X172093999Y-54805457D02*
X172593999Y-54805457D01*
X172808285Y-55591171D02*
X172093999Y-55591171D01*
X172093999Y-54091171D01*
X172808285Y-54091171D01*
X173451142Y-55591171D02*
X173451142Y-54091171D01*
X173808285Y-54091171D01*
X174022571Y-54162600D01*
X174165428Y-54305457D01*
X174236857Y-54448314D01*
X174308285Y-54734028D01*
X174308285Y-54948314D01*
X174236857Y-55234028D01*
X174165428Y-55376885D01*
X174022571Y-55519742D01*
X173808285Y-55591171D01*
X173451142Y-55591171D01*
X176022571Y-55519742D02*
X176236857Y-55591171D01*
X176593999Y-55591171D01*
X176736857Y-55519742D01*
X176808285Y-55448314D01*
X176879714Y-55305457D01*
X176879714Y-55162600D01*
X176808285Y-55019742D01*
X176736857Y-54948314D01*
X176593999Y-54876885D01*
X176308285Y-54805457D01*
X176165428Y-54734028D01*
X176093999Y-54662600D01*
X176022571Y-54519742D01*
X176022571Y-54376885D01*
X176093999Y-54234028D01*
X176165428Y-54162600D01*
X176308285Y-54091171D01*
X176665428Y-54091171D01*
X176879714Y-54162600D01*
X177308285Y-54591171D02*
X177879714Y-54591171D01*
X177522571Y-54091171D02*
X177522571Y-55376885D01*
X177593999Y-55519742D01*
X177736857Y-55591171D01*
X177879714Y-55591171D01*
X178379714Y-55591171D02*
X178379714Y-54591171D01*
X178379714Y-54876885D02*
X178451142Y-54734028D01*
X178522571Y-54662600D01*
X178665428Y-54591171D01*
X178808285Y-54591171D01*
X179308285Y-55591171D02*
X179308285Y-54591171D01*
X179308285Y-54091171D02*
X179236857Y-54162600D01*
X179308285Y-54234028D01*
X179379714Y-54162600D01*
X179308285Y-54091171D01*
X179308285Y-54234028D01*
X180022571Y-54591171D02*
X180022571Y-56091171D01*
X180022571Y-54662600D02*
X180165428Y-54591171D01*
X180451142Y-54591171D01*
X180593999Y-54662600D01*
X180665428Y-54734028D01*
X180736857Y-54876885D01*
X180736857Y-55305457D01*
X180665428Y-55448314D01*
X180593999Y-55519742D01*
X180451142Y-55591171D01*
X180165428Y-55591171D01*
X180022571Y-55519742D01*
X183379714Y-55448314D02*
X183308285Y-55519742D01*
X183093999Y-55591171D01*
X182951142Y-55591171D01*
X182736857Y-55519742D01*
X182593999Y-55376885D01*
X182522571Y-55234028D01*
X182451142Y-54948314D01*
X182451142Y-54734028D01*
X182522571Y-54448314D01*
X182593999Y-54305457D01*
X182736857Y-54162600D01*
X182951142Y-54091171D01*
X183093999Y-54091171D01*
X183308285Y-54162600D01*
X183379714Y-54234028D01*
X184236857Y-55591171D02*
X184093999Y-55519742D01*
X184022571Y-55448314D01*
X183951142Y-55305457D01*
X183951142Y-54876885D01*
X184022571Y-54734028D01*
X184093999Y-54662600D01*
X184236857Y-54591171D01*
X184451142Y-54591171D01*
X184593999Y-54662600D01*
X184665428Y-54734028D01*
X184736857Y-54876885D01*
X184736857Y-55305457D01*
X184665428Y-55448314D01*
X184593999Y-55519742D01*
X184451142Y-55591171D01*
X184236857Y-55591171D01*
X185379714Y-54591171D02*
X185379714Y-55591171D01*
X185379714Y-54734028D02*
X185451142Y-54662600D01*
X185593999Y-54591171D01*
X185808285Y-54591171D01*
X185951142Y-54662600D01*
X186022571Y-54805457D01*
X186022571Y-55591171D01*
X186522571Y-54591171D02*
X187093999Y-54591171D01*
X186736857Y-54091171D02*
X186736857Y-55376885D01*
X186808285Y-55519742D01*
X186951142Y-55591171D01*
X187093999Y-55591171D01*
X187593999Y-55591171D02*
X187593999Y-54591171D01*
X187593999Y-54876885D02*
X187665428Y-54734028D01*
X187736857Y-54662600D01*
X187879714Y-54591171D01*
X188022571Y-54591171D01*
X188736857Y-55591171D02*
X188593999Y-55519742D01*
X188522571Y-55448314D01*
X188451142Y-55305457D01*
X188451142Y-54876885D01*
X188522571Y-54734028D01*
X188593999Y-54662600D01*
X188736857Y-54591171D01*
X188951142Y-54591171D01*
X189093999Y-54662600D01*
X189165428Y-54734028D01*
X189236857Y-54876885D01*
X189236857Y-55305457D01*
X189165428Y-55448314D01*
X189093999Y-55519742D01*
X188951142Y-55591171D01*
X188736857Y-55591171D01*
X190093999Y-55591171D02*
X189951142Y-55519742D01*
X189879714Y-55376885D01*
X189879714Y-54091171D01*
X190879714Y-55591171D02*
X190736857Y-55519742D01*
X190665428Y-55376885D01*
X190665428Y-54091171D01*
X192022571Y-55519742D02*
X191879714Y-55591171D01*
X191594000Y-55591171D01*
X191451142Y-55519742D01*
X191379714Y-55376885D01*
X191379714Y-54805457D01*
X191451142Y-54662600D01*
X191594000Y-54591171D01*
X191879714Y-54591171D01*
X192022571Y-54662600D01*
X192094000Y-54805457D01*
X192094000Y-54948314D01*
X191379714Y-55091171D01*
X192736857Y-55591171D02*
X192736857Y-54591171D01*
X192736857Y-54876885D02*
X192808285Y-54734028D01*
X192879714Y-54662600D01*
X193022571Y-54591171D01*
X193165428Y-54591171D01*
X194594000Y-54091171D02*
X195094000Y-55591171D01*
X195594000Y-54091171D01*
X196379714Y-54091171D02*
X196522571Y-54091171D01*
X196665428Y-54162600D01*
X196736857Y-54234028D01*
X196808285Y-54376885D01*
X196879714Y-54662600D01*
X196879714Y-55019742D01*
X196808285Y-55305457D01*
X196736857Y-55448314D01*
X196665428Y-55519742D01*
X196522571Y-55591171D01*
X196379714Y-55591171D01*
X196236857Y-55519742D01*
X196165428Y-55448314D01*
X196094000Y-55305457D01*
X196022571Y-55019742D01*
X196022571Y-54662600D01*
X196094000Y-54376885D01*
X196165428Y-54234028D01*
X196236857Y-54162600D01*
X196379714Y-54091171D01*
X197522571Y-55448314D02*
X197593999Y-55519742D01*
X197522571Y-55591171D01*
X197451142Y-55519742D01*
X197522571Y-55448314D01*
X197522571Y-55591171D01*
X199022571Y-55591171D02*
X198165428Y-55591171D01*
X198594000Y-55591171D02*
X198594000Y-54091171D01*
X198451142Y-54305457D01*
X198308285Y-54448314D01*
X198165428Y-54519742D01*
X174058285Y-58006171D02*
X173558285Y-57291885D01*
X173201142Y-58006171D02*
X173201142Y-56506171D01*
X173772571Y-56506171D01*
X173915428Y-56577600D01*
X173986857Y-56649028D01*
X174058285Y-56791885D01*
X174058285Y-57006171D01*
X173986857Y-57149028D01*
X173915428Y-57220457D01*
X173772571Y-57291885D01*
X173201142Y-57291885D01*
X175344000Y-58006171D02*
X175344000Y-57220457D01*
X175272571Y-57077600D01*
X175129714Y-57006171D01*
X174844000Y-57006171D01*
X174701142Y-57077600D01*
X175344000Y-57934742D02*
X175201142Y-58006171D01*
X174844000Y-58006171D01*
X174701142Y-57934742D01*
X174629714Y-57791885D01*
X174629714Y-57649028D01*
X174701142Y-57506171D01*
X174844000Y-57434742D01*
X175201142Y-57434742D01*
X175344000Y-57363314D01*
X176058285Y-57006171D02*
X176058285Y-58006171D01*
X176058285Y-57149028D02*
X176129714Y-57077600D01*
X176272571Y-57006171D01*
X176486857Y-57006171D01*
X176629714Y-57077600D01*
X176701142Y-57220457D01*
X176701142Y-58006171D01*
X178058285Y-58006171D02*
X178058285Y-56506171D01*
X178058285Y-57934742D02*
X177915428Y-58006171D01*
X177629714Y-58006171D01*
X177486857Y-57934742D01*
X177415428Y-57863314D01*
X177344000Y-57720457D01*
X177344000Y-57291885D01*
X177415428Y-57149028D01*
X177486857Y-57077600D01*
X177629714Y-57006171D01*
X177915428Y-57006171D01*
X178058285Y-57077600D01*
X179415428Y-58006171D02*
X179415428Y-57220457D01*
X179344000Y-57077600D01*
X179201142Y-57006171D01*
X178915428Y-57006171D01*
X178772571Y-57077600D01*
X179415428Y-57934742D02*
X179272571Y-58006171D01*
X178915428Y-58006171D01*
X178772571Y-57934742D01*
X178701142Y-57791885D01*
X178701142Y-57649028D01*
X178772571Y-57506171D01*
X178915428Y-57434742D01*
X179272571Y-57434742D01*
X179415428Y-57363314D01*
X180344000Y-58006171D02*
X180201142Y-57934742D01*
X180129714Y-57791885D01*
X180129714Y-56506171D01*
X181129714Y-58006171D02*
X180986857Y-57934742D01*
X180915428Y-57791885D01*
X180915428Y-56506171D01*
X182772571Y-57934742D02*
X182986857Y-58006171D01*
X183344000Y-58006171D01*
X183486857Y-57934742D01*
X183558285Y-57863314D01*
X183629714Y-57720457D01*
X183629714Y-57577600D01*
X183558285Y-57434742D01*
X183486857Y-57363314D01*
X183344000Y-57291885D01*
X183058285Y-57220457D01*
X182915428Y-57149028D01*
X182844000Y-57077600D01*
X182772571Y-56934742D01*
X182772571Y-56791885D01*
X182844000Y-56649028D01*
X182915428Y-56577600D01*
X183058285Y-56506171D01*
X183415428Y-56506171D01*
X183629714Y-56577600D01*
X184272571Y-58006171D02*
X184272571Y-56506171D01*
X184915428Y-58006171D02*
X184915428Y-57220457D01*
X184844000Y-57077600D01*
X184701142Y-57006171D01*
X184486857Y-57006171D01*
X184344000Y-57077600D01*
X184272571Y-57149028D01*
X186272571Y-57006171D02*
X186272571Y-58006171D01*
X185629714Y-57006171D02*
X185629714Y-57791885D01*
X185701142Y-57934742D01*
X185844000Y-58006171D01*
X186058285Y-58006171D01*
X186201142Y-57934742D01*
X186272571Y-57863314D01*
X186772571Y-57006171D02*
X187344000Y-57006171D01*
X186986857Y-56506171D02*
X186986857Y-57791885D01*
X187058285Y-57934742D01*
X187201142Y-58006171D01*
X187344000Y-58006171D01*
X187629714Y-57006171D02*
X188201142Y-57006171D01*
X187844000Y-56506171D02*
X187844000Y-57791885D01*
X187915428Y-57934742D01*
X188058285Y-58006171D01*
X188201142Y-58006171D01*
X167594000Y-60421171D02*
X167594000Y-59421171D01*
X167594000Y-59706885D02*
X167665428Y-59564028D01*
X167736857Y-59492600D01*
X167879714Y-59421171D01*
X168022571Y-59421171D01*
X169165428Y-60421171D02*
X169165428Y-59635457D01*
X169094000Y-59492600D01*
X168951142Y-59421171D01*
X168665428Y-59421171D01*
X168522571Y-59492600D01*
X169165428Y-60349742D02*
X169022571Y-60421171D01*
X168665428Y-60421171D01*
X168522571Y-60349742D01*
X168451142Y-60206885D01*
X168451142Y-60064028D01*
X168522571Y-59921171D01*
X168665428Y-59849742D01*
X169022571Y-59849742D01*
X169165428Y-59778314D01*
X169879714Y-59421171D02*
X169879714Y-60421171D01*
X169879714Y-59564028D02*
X169951142Y-59492600D01*
X170094000Y-59421171D01*
X170308285Y-59421171D01*
X170451142Y-59492600D01*
X170522571Y-59635457D01*
X170522571Y-60421171D01*
X171879714Y-60421171D02*
X171879714Y-58921171D01*
X171879714Y-60349742D02*
X171736857Y-60421171D01*
X171451142Y-60421171D01*
X171308285Y-60349742D01*
X171236857Y-60278314D01*
X171165428Y-60135457D01*
X171165428Y-59706885D01*
X171236857Y-59564028D01*
X171308285Y-59492600D01*
X171451142Y-59421171D01*
X171736857Y-59421171D01*
X171879714Y-59492600D01*
X173236857Y-60421171D02*
X173236857Y-59635457D01*
X173165428Y-59492600D01*
X173022571Y-59421171D01*
X172736857Y-59421171D01*
X172594000Y-59492600D01*
X173236857Y-60349742D02*
X173094000Y-60421171D01*
X172736857Y-60421171D01*
X172594000Y-60349742D01*
X172522571Y-60206885D01*
X172522571Y-60064028D01*
X172594000Y-59921171D01*
X172736857Y-59849742D01*
X173094000Y-59849742D01*
X173236857Y-59778314D01*
X174165428Y-60421171D02*
X174022571Y-60349742D01*
X173951142Y-60206885D01*
X173951142Y-58921171D01*
X174951142Y-60421171D02*
X174808285Y-60349742D01*
X174736857Y-60206885D01*
X174736857Y-58921171D01*
X176451142Y-59706885D02*
X176379714Y-59635457D01*
X176236857Y-59564028D01*
X176094000Y-59564028D01*
X175951142Y-59635457D01*
X175879714Y-59706885D01*
X175808285Y-59849742D01*
X175808285Y-59992600D01*
X175879714Y-60135457D01*
X175951142Y-60206885D01*
X176094000Y-60278314D01*
X176236857Y-60278314D01*
X176379714Y-60206885D01*
X176451142Y-60135457D01*
X176451142Y-59564028D02*
X176451142Y-60135457D01*
X176522571Y-60206885D01*
X176594000Y-60206885D01*
X176736857Y-60135457D01*
X176808285Y-59992600D01*
X176808285Y-59635457D01*
X176665428Y-59421171D01*
X176451142Y-59278314D01*
X176165428Y-59206885D01*
X175879714Y-59278314D01*
X175665428Y-59421171D01*
X175522571Y-59635457D01*
X175451142Y-59921171D01*
X175522571Y-60206885D01*
X175665428Y-60421171D01*
X175879714Y-60564028D01*
X176165428Y-60635457D01*
X176451142Y-60564028D01*
X176665428Y-60421171D01*
X177451142Y-60421171D02*
X177451142Y-59421171D01*
X177451142Y-59706885D02*
X177522571Y-59564028D01*
X177594000Y-59492600D01*
X177736857Y-59421171D01*
X177879714Y-59421171D01*
X179022571Y-60421171D02*
X179022571Y-59635457D01*
X178951142Y-59492600D01*
X178808285Y-59421171D01*
X178522571Y-59421171D01*
X178379714Y-59492600D01*
X179022571Y-60349742D02*
X178879714Y-60421171D01*
X178522571Y-60421171D01*
X178379714Y-60349742D01*
X178308285Y-60206885D01*
X178308285Y-60064028D01*
X178379714Y-59921171D01*
X178522571Y-59849742D01*
X178879714Y-59849742D01*
X179022571Y-59778314D01*
X179736857Y-59421171D02*
X179736857Y-60421171D01*
X179736857Y-59564028D02*
X179808285Y-59492600D01*
X179951142Y-59421171D01*
X180165428Y-59421171D01*
X180308285Y-59492600D01*
X180379714Y-59635457D01*
X180379714Y-60421171D01*
X181736857Y-60421171D02*
X181736857Y-58921171D01*
X181736857Y-60349742D02*
X181594000Y-60421171D01*
X181308285Y-60421171D01*
X181165428Y-60349742D01*
X181094000Y-60278314D01*
X181022571Y-60135457D01*
X181022571Y-59706885D01*
X181094000Y-59564028D01*
X181165428Y-59492600D01*
X181308285Y-59421171D01*
X181594000Y-59421171D01*
X181736857Y-59492600D01*
X183094000Y-60421171D02*
X183094000Y-59635457D01*
X183022571Y-59492600D01*
X182879714Y-59421171D01*
X182594000Y-59421171D01*
X182451142Y-59492600D01*
X183094000Y-60349742D02*
X182951142Y-60421171D01*
X182594000Y-60421171D01*
X182451142Y-60349742D01*
X182379714Y-60206885D01*
X182379714Y-60064028D01*
X182451142Y-59921171D01*
X182594000Y-59849742D01*
X182951142Y-59849742D01*
X183094000Y-59778314D01*
X184022571Y-60421171D02*
X183879714Y-60349742D01*
X183808285Y-60206885D01*
X183808285Y-58921171D01*
X184808285Y-60421171D02*
X184665428Y-60349742D01*
X184594000Y-60206885D01*
X184594000Y-58921171D01*
X185379714Y-60421171D02*
X185379714Y-59421171D01*
X185379714Y-59564028D02*
X185451142Y-59492600D01*
X185594000Y-59421171D01*
X185808285Y-59421171D01*
X185951142Y-59492600D01*
X186022571Y-59635457D01*
X186022571Y-60421171D01*
X186022571Y-59635457D02*
X186094000Y-59492600D01*
X186236857Y-59421171D01*
X186451142Y-59421171D01*
X186594000Y-59492600D01*
X186665428Y-59635457D01*
X186665428Y-60421171D01*
X188022571Y-60421171D02*
X188022571Y-59635457D01*
X187951142Y-59492600D01*
X187808285Y-59421171D01*
X187522571Y-59421171D01*
X187379714Y-59492600D01*
X188022571Y-60349742D02*
X187879714Y-60421171D01*
X187522571Y-60421171D01*
X187379714Y-60349742D01*
X187308285Y-60206885D01*
X187308285Y-60064028D01*
X187379714Y-59921171D01*
X187522571Y-59849742D01*
X187879714Y-59849742D01*
X188022571Y-59778314D01*
X188736857Y-59421171D02*
X188736857Y-60421171D01*
X188736857Y-59564028D02*
X188808285Y-59492600D01*
X188951142Y-59421171D01*
X189165428Y-59421171D01*
X189308285Y-59492600D01*
X189379714Y-59635457D01*
X189379714Y-60421171D01*
X190094000Y-60278314D02*
X190165428Y-60349742D01*
X190094000Y-60421171D01*
X190022571Y-60349742D01*
X190094000Y-60278314D01*
X190094000Y-60421171D01*
X190808285Y-59421171D02*
X190808285Y-60421171D01*
X190808285Y-59564028D02*
X190879714Y-59492600D01*
X191022571Y-59421171D01*
X191236857Y-59421171D01*
X191379714Y-59492600D01*
X191451142Y-59635457D01*
X191451142Y-60421171D01*
X192736857Y-60349742D02*
X192594000Y-60421171D01*
X192308285Y-60421171D01*
X192165428Y-60349742D01*
X192094000Y-60206885D01*
X192094000Y-59635457D01*
X192165428Y-59492600D01*
X192308285Y-59421171D01*
X192594000Y-59421171D01*
X192736857Y-59492600D01*
X192808285Y-59635457D01*
X192808285Y-59778314D01*
X192094000Y-59921171D01*
X193236857Y-59421171D02*
X193808285Y-59421171D01*
X193451142Y-58921171D02*
X193451142Y-60206885D01*
X193522571Y-60349742D01*
X193665428Y-60421171D01*
X193808285Y-60421171D01*
D11*
%TO.C,C1*%
X191862733Y-66060942D02*
X191815114Y-66108561D01*
X191672257Y-66156180D01*
X191577019Y-66156180D01*
X191434161Y-66108561D01*
X191338923Y-66013323D01*
X191291304Y-65918085D01*
X191243685Y-65727609D01*
X191243685Y-65584752D01*
X191291304Y-65394276D01*
X191338923Y-65299038D01*
X191434161Y-65203800D01*
X191577019Y-65156180D01*
X191672257Y-65156180D01*
X191815114Y-65203800D01*
X191862733Y-65251419D01*
X192815114Y-66156180D02*
X192243685Y-66156180D01*
X192529400Y-66156180D02*
X192529400Y-65156180D01*
X192434161Y-65299038D01*
X192338923Y-65394276D01*
X192243685Y-65441895D01*
%TO.C,Q3*%
X224720161Y-85939419D02*
X224624923Y-85891800D01*
X224529685Y-85796561D01*
X224386828Y-85653704D01*
X224291590Y-85606085D01*
X224196352Y-85606085D01*
X224243971Y-85844180D02*
X224148733Y-85796561D01*
X224053495Y-85701323D01*
X224005876Y-85510847D01*
X224005876Y-85177514D01*
X224053495Y-84987038D01*
X224148733Y-84891800D01*
X224243971Y-84844180D01*
X224434447Y-84844180D01*
X224529685Y-84891800D01*
X224624923Y-84987038D01*
X224672542Y-85177514D01*
X224672542Y-85510847D01*
X224624923Y-85701323D01*
X224529685Y-85796561D01*
X224434447Y-85844180D01*
X224243971Y-85844180D01*
X225005876Y-84844180D02*
X225624923Y-84844180D01*
X225291590Y-85225133D01*
X225434447Y-85225133D01*
X225529685Y-85272752D01*
X225577304Y-85320371D01*
X225624923Y-85415609D01*
X225624923Y-85653704D01*
X225577304Y-85748942D01*
X225529685Y-85796561D01*
X225434447Y-85844180D01*
X225148733Y-85844180D01*
X225053495Y-85796561D01*
X225005876Y-85748942D01*
%TO.C,R11*%
X128490742Y-121465980D02*
X128157409Y-120989790D01*
X127919314Y-121465980D02*
X127919314Y-120465980D01*
X128300266Y-120465980D01*
X128395504Y-120513600D01*
X128443123Y-120561219D01*
X128490742Y-120656457D01*
X128490742Y-120799314D01*
X128443123Y-120894552D01*
X128395504Y-120942171D01*
X128300266Y-120989790D01*
X127919314Y-120989790D01*
X129443123Y-121465980D02*
X128871695Y-121465980D01*
X129157409Y-121465980D02*
X129157409Y-120465980D01*
X129062171Y-120608838D01*
X128966933Y-120704076D01*
X128871695Y-120751695D01*
X130395504Y-121465980D02*
X129824076Y-121465980D01*
X130109790Y-121465980D02*
X130109790Y-120465980D01*
X130014552Y-120608838D01*
X129919314Y-120704076D01*
X129824076Y-120751695D01*
%TO.C,R16*%
X198747142Y-114912780D02*
X198413809Y-114436590D01*
X198175714Y-114912780D02*
X198175714Y-113912780D01*
X198556666Y-113912780D01*
X198651904Y-113960400D01*
X198699523Y-114008019D01*
X198747142Y-114103257D01*
X198747142Y-114246114D01*
X198699523Y-114341352D01*
X198651904Y-114388971D01*
X198556666Y-114436590D01*
X198175714Y-114436590D01*
X199699523Y-114912780D02*
X199128095Y-114912780D01*
X199413809Y-114912780D02*
X199413809Y-113912780D01*
X199318571Y-114055638D01*
X199223333Y-114150876D01*
X199128095Y-114198495D01*
X200556666Y-113912780D02*
X200366190Y-113912780D01*
X200270952Y-113960400D01*
X200223333Y-114008019D01*
X200128095Y-114150876D01*
X200080476Y-114341352D01*
X200080476Y-114722304D01*
X200128095Y-114817542D01*
X200175714Y-114865161D01*
X200270952Y-114912780D01*
X200461428Y-114912780D01*
X200556666Y-114865161D01*
X200604285Y-114817542D01*
X200651904Y-114722304D01*
X200651904Y-114484209D01*
X200604285Y-114388971D01*
X200556666Y-114341352D01*
X200461428Y-114293733D01*
X200270952Y-114293733D01*
X200175714Y-114341352D01*
X200128095Y-114388971D01*
X200080476Y-114484209D01*
%TO.C,J1*%
X229689066Y-105547980D02*
X229689066Y-106262266D01*
X229641447Y-106405123D01*
X229546209Y-106500361D01*
X229403352Y-106547980D01*
X229308114Y-106547980D01*
X230689066Y-106547980D02*
X230117638Y-106547980D01*
X230403352Y-106547980D02*
X230403352Y-105547980D01*
X230308114Y-105690838D01*
X230212876Y-105786076D01*
X230117638Y-105833695D01*
%TO.C,RV2*%
X132912161Y-64954180D02*
X132578828Y-64477990D01*
X132340733Y-64954180D02*
X132340733Y-63954180D01*
X132721685Y-63954180D01*
X132816923Y-64001800D01*
X132864542Y-64049419D01*
X132912161Y-64144657D01*
X132912161Y-64287514D01*
X132864542Y-64382752D01*
X132816923Y-64430371D01*
X132721685Y-64477990D01*
X132340733Y-64477990D01*
X133197876Y-63954180D02*
X133531209Y-64954180D01*
X133864542Y-63954180D01*
X134150257Y-64049419D02*
X134197876Y-64001800D01*
X134293114Y-63954180D01*
X134531209Y-63954180D01*
X134626447Y-64001800D01*
X134674066Y-64049419D01*
X134721685Y-64144657D01*
X134721685Y-64239895D01*
X134674066Y-64382752D01*
X134102638Y-64954180D01*
X134721685Y-64954180D01*
X126848457Y-51547580D02*
X127419885Y-51547580D01*
X127134171Y-52547580D02*
X127134171Y-51547580D01*
X127896076Y-52547580D02*
X127800838Y-52499961D01*
X127753219Y-52452342D01*
X127705600Y-52357104D01*
X127705600Y-52071390D01*
X127753219Y-51976152D01*
X127800838Y-51928533D01*
X127896076Y-51880914D01*
X128038933Y-51880914D01*
X128134171Y-51928533D01*
X128181790Y-51976152D01*
X128229409Y-52071390D01*
X128229409Y-52357104D01*
X128181790Y-52452342D01*
X128134171Y-52499961D01*
X128038933Y-52547580D01*
X127896076Y-52547580D01*
X129943695Y-52547580D02*
X129372266Y-52547580D01*
X129657980Y-52547580D02*
X129657980Y-51547580D01*
X129562742Y-51690438D01*
X129467504Y-51785676D01*
X129372266Y-51833295D01*
X130562742Y-51547580D02*
X130657980Y-51547580D01*
X130753219Y-51595200D01*
X130800838Y-51642819D01*
X130848457Y-51738057D01*
X130896076Y-51928533D01*
X130896076Y-52166628D01*
X130848457Y-52357104D01*
X130800838Y-52452342D01*
X130753219Y-52499961D01*
X130657980Y-52547580D01*
X130562742Y-52547580D01*
X130467504Y-52499961D01*
X130419885Y-52452342D01*
X130372266Y-52357104D01*
X130324647Y-52166628D01*
X130324647Y-51928533D01*
X130372266Y-51738057D01*
X130419885Y-51642819D01*
X130467504Y-51595200D01*
X130562742Y-51547580D01*
X131324647Y-52547580D02*
X131324647Y-51547580D01*
X131419885Y-52166628D02*
X131705600Y-52547580D01*
X131705600Y-51880914D02*
X131324647Y-52261866D01*
X132896076Y-52547580D02*
X132896076Y-51547580D01*
X133277028Y-51547580D01*
X133372266Y-51595200D01*
X133419885Y-51642819D01*
X133467504Y-51738057D01*
X133467504Y-51880914D01*
X133419885Y-51976152D01*
X133372266Y-52023771D01*
X133277028Y-52071390D01*
X132896076Y-52071390D01*
X134038933Y-52547580D02*
X133943695Y-52499961D01*
X133896076Y-52452342D01*
X133848457Y-52357104D01*
X133848457Y-52071390D01*
X133896076Y-51976152D01*
X133943695Y-51928533D01*
X134038933Y-51880914D01*
X134181790Y-51880914D01*
X134277028Y-51928533D01*
X134324647Y-51976152D01*
X134372266Y-52071390D01*
X134372266Y-52357104D01*
X134324647Y-52452342D01*
X134277028Y-52499961D01*
X134181790Y-52547580D01*
X134038933Y-52547580D01*
X134657980Y-51880914D02*
X135038933Y-51880914D01*
X134800838Y-51547580D02*
X134800838Y-52404723D01*
X134848457Y-52499961D01*
X134943695Y-52547580D01*
X135038933Y-52547580D01*
X136134171Y-52166628D02*
X136896076Y-52166628D01*
X138705600Y-52547580D02*
X138372266Y-52071390D01*
X138134171Y-52547580D02*
X138134171Y-51547580D01*
X138515123Y-51547580D01*
X138610361Y-51595200D01*
X138657980Y-51642819D01*
X138705600Y-51738057D01*
X138705600Y-51880914D01*
X138657980Y-51976152D01*
X138610361Y-52023771D01*
X138515123Y-52071390D01*
X138134171Y-52071390D01*
X139515123Y-52499961D02*
X139419885Y-52547580D01*
X139229409Y-52547580D01*
X139134171Y-52499961D01*
X139086552Y-52404723D01*
X139086552Y-52023771D01*
X139134171Y-51928533D01*
X139229409Y-51880914D01*
X139419885Y-51880914D01*
X139515123Y-51928533D01*
X139562742Y-52023771D01*
X139562742Y-52119009D01*
X139086552Y-52214247D01*
X140419885Y-52547580D02*
X140419885Y-51547580D01*
X140419885Y-52499961D02*
X140324647Y-52547580D01*
X140134171Y-52547580D01*
X140038933Y-52499961D01*
X139991314Y-52452342D01*
X139943695Y-52357104D01*
X139943695Y-52071390D01*
X139991314Y-51976152D01*
X140038933Y-51928533D01*
X140134171Y-51880914D01*
X140324647Y-51880914D01*
X140419885Y-51928533D01*
%TO.C,R5*%
X129525733Y-83324180D02*
X129192400Y-82847990D01*
X128954304Y-83324180D02*
X128954304Y-82324180D01*
X129335257Y-82324180D01*
X129430495Y-82371800D01*
X129478114Y-82419419D01*
X129525733Y-82514657D01*
X129525733Y-82657514D01*
X129478114Y-82752752D01*
X129430495Y-82800371D01*
X129335257Y-82847990D01*
X128954304Y-82847990D01*
X130430495Y-82324180D02*
X129954304Y-82324180D01*
X129906685Y-82800371D01*
X129954304Y-82752752D01*
X130049542Y-82705133D01*
X130287638Y-82705133D01*
X130382876Y-82752752D01*
X130430495Y-82800371D01*
X130478114Y-82895609D01*
X130478114Y-83133704D01*
X130430495Y-83228942D01*
X130382876Y-83276561D01*
X130287638Y-83324180D01*
X130049542Y-83324180D01*
X129954304Y-83276561D01*
X129906685Y-83228942D01*
%TO.C,R14*%
X149420342Y-128205980D02*
X149087009Y-127729790D01*
X148848914Y-128205980D02*
X148848914Y-127205980D01*
X149229866Y-127205980D01*
X149325104Y-127253600D01*
X149372723Y-127301219D01*
X149420342Y-127396457D01*
X149420342Y-127539314D01*
X149372723Y-127634552D01*
X149325104Y-127682171D01*
X149229866Y-127729790D01*
X148848914Y-127729790D01*
X150372723Y-128205980D02*
X149801295Y-128205980D01*
X150087009Y-128205980D02*
X150087009Y-127205980D01*
X149991771Y-127348838D01*
X149896533Y-127444076D01*
X149801295Y-127491695D01*
X151229866Y-127539314D02*
X151229866Y-128205980D01*
X150991771Y-127158361D02*
X150753676Y-127872647D01*
X151372723Y-127872647D01*
%TO.C,R7*%
X213599733Y-83324180D02*
X213266400Y-82847990D01*
X213028304Y-83324180D02*
X213028304Y-82324180D01*
X213409257Y-82324180D01*
X213504495Y-82371800D01*
X213552114Y-82419419D01*
X213599733Y-82514657D01*
X213599733Y-82657514D01*
X213552114Y-82752752D01*
X213504495Y-82800371D01*
X213409257Y-82847990D01*
X213028304Y-82847990D01*
X213933066Y-82324180D02*
X214599733Y-82324180D01*
X214171161Y-83324180D01*
%TO.C,R12*%
X220438742Y-124056780D02*
X220105409Y-123580590D01*
X219867314Y-124056780D02*
X219867314Y-123056780D01*
X220248266Y-123056780D01*
X220343504Y-123104400D01*
X220391123Y-123152019D01*
X220438742Y-123247257D01*
X220438742Y-123390114D01*
X220391123Y-123485352D01*
X220343504Y-123532971D01*
X220248266Y-123580590D01*
X219867314Y-123580590D01*
X221391123Y-124056780D02*
X220819695Y-124056780D01*
X221105409Y-124056780D02*
X221105409Y-123056780D01*
X221010171Y-123199638D01*
X220914933Y-123294876D01*
X220819695Y-123342495D01*
X221772076Y-123152019D02*
X221819695Y-123104400D01*
X221914933Y-123056780D01*
X222153028Y-123056780D01*
X222248266Y-123104400D01*
X222295885Y-123152019D01*
X222343504Y-123247257D01*
X222343504Y-123342495D01*
X222295885Y-123485352D01*
X221724457Y-124056780D01*
X222343504Y-124056780D01*
%TO.C,R15*%
X220133942Y-121754380D02*
X219800609Y-121278190D01*
X219562514Y-121754380D02*
X219562514Y-120754380D01*
X219943466Y-120754380D01*
X220038704Y-120802000D01*
X220086323Y-120849619D01*
X220133942Y-120944857D01*
X220133942Y-121087714D01*
X220086323Y-121182952D01*
X220038704Y-121230571D01*
X219943466Y-121278190D01*
X219562514Y-121278190D01*
X221086323Y-121754380D02*
X220514895Y-121754380D01*
X220800609Y-121754380D02*
X220800609Y-120754380D01*
X220705371Y-120897238D01*
X220610133Y-120992476D01*
X220514895Y-121040095D01*
X221991085Y-120754380D02*
X221514895Y-120754380D01*
X221467276Y-121230571D01*
X221514895Y-121182952D01*
X221610133Y-121135333D01*
X221848228Y-121135333D01*
X221943466Y-121182952D01*
X221991085Y-121230571D01*
X222038704Y-121325809D01*
X222038704Y-121563904D01*
X221991085Y-121659142D01*
X221943466Y-121706761D01*
X221848228Y-121754380D01*
X221610133Y-121754380D01*
X221514895Y-121706761D01*
X221467276Y-121659142D01*
%TO.C,R8*%
X151877733Y-76711180D02*
X151544400Y-76234990D01*
X151306304Y-76711180D02*
X151306304Y-75711180D01*
X151687257Y-75711180D01*
X151782495Y-75758800D01*
X151830114Y-75806419D01*
X151877733Y-75901657D01*
X151877733Y-76044514D01*
X151830114Y-76139752D01*
X151782495Y-76187371D01*
X151687257Y-76234990D01*
X151306304Y-76234990D01*
X152449161Y-76139752D02*
X152353923Y-76092133D01*
X152306304Y-76044514D01*
X152258685Y-75949276D01*
X152258685Y-75901657D01*
X152306304Y-75806419D01*
X152353923Y-75758800D01*
X152449161Y-75711180D01*
X152639638Y-75711180D01*
X152734876Y-75758800D01*
X152782495Y-75806419D01*
X152830114Y-75901657D01*
X152830114Y-75949276D01*
X152782495Y-76044514D01*
X152734876Y-76092133D01*
X152639638Y-76139752D01*
X152449161Y-76139752D01*
X152353923Y-76187371D01*
X152306304Y-76234990D01*
X152258685Y-76330228D01*
X152258685Y-76520704D01*
X152306304Y-76615942D01*
X152353923Y-76663561D01*
X152449161Y-76711180D01*
X152639638Y-76711180D01*
X152734876Y-76663561D01*
X152782495Y-76615942D01*
X152830114Y-76520704D01*
X152830114Y-76330228D01*
X152782495Y-76234990D01*
X152734876Y-76187371D01*
X152639638Y-76139752D01*
%TO.C,R18*%
X198848742Y-130847580D02*
X198515409Y-130371390D01*
X198277314Y-130847580D02*
X198277314Y-129847580D01*
X198658266Y-129847580D01*
X198753504Y-129895200D01*
X198801123Y-129942819D01*
X198848742Y-130038057D01*
X198848742Y-130180914D01*
X198801123Y-130276152D01*
X198753504Y-130323771D01*
X198658266Y-130371390D01*
X198277314Y-130371390D01*
X199801123Y-130847580D02*
X199229695Y-130847580D01*
X199515409Y-130847580D02*
X199515409Y-129847580D01*
X199420171Y-129990438D01*
X199324933Y-130085676D01*
X199229695Y-130133295D01*
X200372552Y-130276152D02*
X200277314Y-130228533D01*
X200229695Y-130180914D01*
X200182076Y-130085676D01*
X200182076Y-130038057D01*
X200229695Y-129942819D01*
X200277314Y-129895200D01*
X200372552Y-129847580D01*
X200563028Y-129847580D01*
X200658266Y-129895200D01*
X200705885Y-129942819D01*
X200753504Y-130038057D01*
X200753504Y-130085676D01*
X200705885Y-130180914D01*
X200658266Y-130228533D01*
X200563028Y-130276152D01*
X200372552Y-130276152D01*
X200277314Y-130323771D01*
X200229695Y-130371390D01*
X200182076Y-130466628D01*
X200182076Y-130657104D01*
X200229695Y-130752342D01*
X200277314Y-130799961D01*
X200372552Y-130847580D01*
X200563028Y-130847580D01*
X200658266Y-130799961D01*
X200705885Y-130752342D01*
X200753504Y-130657104D01*
X200753504Y-130466628D01*
X200705885Y-130371390D01*
X200658266Y-130323771D01*
X200563028Y-130276152D01*
%TO.C,C2*%
X169403733Y-66060942D02*
X169356114Y-66108561D01*
X169213257Y-66156180D01*
X169118019Y-66156180D01*
X168975161Y-66108561D01*
X168879923Y-66013323D01*
X168832304Y-65918085D01*
X168784685Y-65727609D01*
X168784685Y-65584752D01*
X168832304Y-65394276D01*
X168879923Y-65299038D01*
X168975161Y-65203800D01*
X169118019Y-65156180D01*
X169213257Y-65156180D01*
X169356114Y-65203800D01*
X169403733Y-65251419D01*
X169784685Y-65251419D02*
X169832304Y-65203800D01*
X169927542Y-65156180D01*
X170165638Y-65156180D01*
X170260876Y-65203800D01*
X170308495Y-65251419D01*
X170356114Y-65346657D01*
X170356114Y-65441895D01*
X170308495Y-65584752D01*
X169737066Y-66156180D01*
X170356114Y-66156180D01*
%TO.C,RV1*%
X227141161Y-65513180D02*
X226807828Y-65036990D01*
X226569733Y-65513180D02*
X226569733Y-64513180D01*
X226950685Y-64513180D01*
X227045923Y-64560800D01*
X227093542Y-64608419D01*
X227141161Y-64703657D01*
X227141161Y-64846514D01*
X227093542Y-64941752D01*
X227045923Y-64989371D01*
X226950685Y-65036990D01*
X226569733Y-65036990D01*
X227426876Y-64513180D02*
X227760209Y-65513180D01*
X228093542Y-64513180D01*
X228950685Y-65513180D02*
X228379257Y-65513180D01*
X228664971Y-65513180D02*
X228664971Y-64513180D01*
X228569733Y-64656038D01*
X228474495Y-64751276D01*
X228379257Y-64798895D01*
X215447504Y-51953980D02*
X216018933Y-51953980D01*
X215733219Y-52953980D02*
X215733219Y-51953980D01*
X216495123Y-52953980D02*
X216399885Y-52906361D01*
X216352266Y-52858742D01*
X216304647Y-52763504D01*
X216304647Y-52477790D01*
X216352266Y-52382552D01*
X216399885Y-52334933D01*
X216495123Y-52287314D01*
X216637980Y-52287314D01*
X216733219Y-52334933D01*
X216780838Y-52382552D01*
X216828457Y-52477790D01*
X216828457Y-52763504D01*
X216780838Y-52858742D01*
X216733219Y-52906361D01*
X216637980Y-52953980D01*
X216495123Y-52953980D01*
X218542742Y-52953980D02*
X217971314Y-52953980D01*
X218257028Y-52953980D02*
X218257028Y-51953980D01*
X218161790Y-52096838D01*
X218066552Y-52192076D01*
X217971314Y-52239695D01*
X219161790Y-51953980D02*
X219257028Y-51953980D01*
X219352266Y-52001600D01*
X219399885Y-52049219D01*
X219447504Y-52144457D01*
X219495123Y-52334933D01*
X219495123Y-52573028D01*
X219447504Y-52763504D01*
X219399885Y-52858742D01*
X219352266Y-52906361D01*
X219257028Y-52953980D01*
X219161790Y-52953980D01*
X219066552Y-52906361D01*
X219018933Y-52858742D01*
X218971314Y-52763504D01*
X218923695Y-52573028D01*
X218923695Y-52334933D01*
X218971314Y-52144457D01*
X219018933Y-52049219D01*
X219066552Y-52001600D01*
X219161790Y-51953980D01*
X219923695Y-52953980D02*
X219923695Y-51953980D01*
X220018933Y-52573028D02*
X220304647Y-52953980D01*
X220304647Y-52287314D02*
X219923695Y-52668266D01*
X221495123Y-52953980D02*
X221495123Y-51953980D01*
X221876076Y-51953980D01*
X221971314Y-52001600D01*
X222018933Y-52049219D01*
X222066552Y-52144457D01*
X222066552Y-52287314D01*
X222018933Y-52382552D01*
X221971314Y-52430171D01*
X221876076Y-52477790D01*
X221495123Y-52477790D01*
X222637980Y-52953980D02*
X222542742Y-52906361D01*
X222495123Y-52858742D01*
X222447504Y-52763504D01*
X222447504Y-52477790D01*
X222495123Y-52382552D01*
X222542742Y-52334933D01*
X222637980Y-52287314D01*
X222780838Y-52287314D01*
X222876076Y-52334933D01*
X222923695Y-52382552D01*
X222971314Y-52477790D01*
X222971314Y-52763504D01*
X222923695Y-52858742D01*
X222876076Y-52906361D01*
X222780838Y-52953980D01*
X222637980Y-52953980D01*
X223257028Y-52287314D02*
X223637980Y-52287314D01*
X223399885Y-51953980D02*
X223399885Y-52811123D01*
X223447504Y-52906361D01*
X223542742Y-52953980D01*
X223637980Y-52953980D01*
X224733219Y-52573028D02*
X225495123Y-52573028D01*
X226733219Y-52953980D02*
X226733219Y-51953980D01*
X227066552Y-52668266D01*
X227399885Y-51953980D01*
X227399885Y-52953980D01*
X228304647Y-52953980D02*
X228304647Y-52430171D01*
X228257028Y-52334933D01*
X228161790Y-52287314D01*
X227971314Y-52287314D01*
X227876076Y-52334933D01*
X228304647Y-52906361D02*
X228209409Y-52953980D01*
X227971314Y-52953980D01*
X227876076Y-52906361D01*
X227828457Y-52811123D01*
X227828457Y-52715885D01*
X227876076Y-52620647D01*
X227971314Y-52573028D01*
X228209409Y-52573028D01*
X228304647Y-52525409D01*
X228733219Y-52906361D02*
X228828457Y-52953980D01*
X229018933Y-52953980D01*
X229114171Y-52906361D01*
X229161790Y-52811123D01*
X229161790Y-52763504D01*
X229114171Y-52668266D01*
X229018933Y-52620647D01*
X228876076Y-52620647D01*
X228780838Y-52573028D01*
X228733219Y-52477790D01*
X228733219Y-52430171D01*
X228780838Y-52334933D01*
X228876076Y-52287314D01*
X229018933Y-52287314D01*
X229114171Y-52334933D01*
X229447504Y-52287314D02*
X229828457Y-52287314D01*
X229590361Y-51953980D02*
X229590361Y-52811123D01*
X229637980Y-52906361D01*
X229733219Y-52953980D01*
X229828457Y-52953980D01*
X230542742Y-52906361D02*
X230447504Y-52953980D01*
X230257028Y-52953980D01*
X230161790Y-52906361D01*
X230114171Y-52811123D01*
X230114171Y-52430171D01*
X230161790Y-52334933D01*
X230257028Y-52287314D01*
X230447504Y-52287314D01*
X230542742Y-52334933D01*
X230590361Y-52430171D01*
X230590361Y-52525409D01*
X230114171Y-52620647D01*
X231018933Y-52953980D02*
X231018933Y-52287314D01*
X231018933Y-52477790D02*
X231066552Y-52382552D01*
X231114171Y-52334933D01*
X231209409Y-52287314D01*
X231304647Y-52287314D01*
X232733219Y-52430171D02*
X232876076Y-52477790D01*
X232923695Y-52525409D01*
X232971314Y-52620647D01*
X232971314Y-52763504D01*
X232923695Y-52858742D01*
X232876076Y-52906361D01*
X232780838Y-52953980D01*
X232399885Y-52953980D01*
X232399885Y-51953980D01*
X232733219Y-51953980D01*
X232828457Y-52001600D01*
X232876076Y-52049219D01*
X232923695Y-52144457D01*
X232923695Y-52239695D01*
X232876076Y-52334933D01*
X232828457Y-52382552D01*
X232733219Y-52430171D01*
X232399885Y-52430171D01*
X233399885Y-52953980D02*
X233399885Y-52287314D01*
X233399885Y-52477790D02*
X233447504Y-52382552D01*
X233495123Y-52334933D01*
X233590361Y-52287314D01*
X233685600Y-52287314D01*
X234018933Y-52953980D02*
X234018933Y-52287314D01*
X234018933Y-51953980D02*
X233971314Y-52001600D01*
X234018933Y-52049219D01*
X234066552Y-52001600D01*
X234018933Y-51953980D01*
X234018933Y-52049219D01*
X234923695Y-52287314D02*
X234923695Y-53096838D01*
X234876076Y-53192076D01*
X234828457Y-53239695D01*
X234733219Y-53287314D01*
X234590361Y-53287314D01*
X234495123Y-53239695D01*
X234923695Y-52906361D02*
X234828457Y-52953980D01*
X234637980Y-52953980D01*
X234542742Y-52906361D01*
X234495123Y-52858742D01*
X234447504Y-52763504D01*
X234447504Y-52477790D01*
X234495123Y-52382552D01*
X234542742Y-52334933D01*
X234637980Y-52287314D01*
X234828457Y-52287314D01*
X234923695Y-52334933D01*
X235399885Y-52953980D02*
X235399885Y-51953980D01*
X235828457Y-52953980D02*
X235828457Y-52430171D01*
X235780838Y-52334933D01*
X235685600Y-52287314D01*
X235542742Y-52287314D01*
X235447504Y-52334933D01*
X235399885Y-52382552D01*
X236161790Y-52287314D02*
X236542742Y-52287314D01*
X236304647Y-51953980D02*
X236304647Y-52811123D01*
X236352266Y-52906361D01*
X236447504Y-52953980D01*
X236542742Y-52953980D01*
X236876076Y-52287314D02*
X236876076Y-52953980D01*
X236876076Y-52382552D02*
X236923695Y-52334933D01*
X237018933Y-52287314D01*
X237161790Y-52287314D01*
X237257028Y-52334933D01*
X237304647Y-52430171D01*
X237304647Y-52953980D01*
X238161790Y-52906361D02*
X238066552Y-52953980D01*
X237876076Y-52953980D01*
X237780838Y-52906361D01*
X237733219Y-52811123D01*
X237733219Y-52430171D01*
X237780838Y-52334933D01*
X237876076Y-52287314D01*
X238066552Y-52287314D01*
X238161790Y-52334933D01*
X238209409Y-52430171D01*
X238209409Y-52525409D01*
X237733219Y-52620647D01*
X238590361Y-52906361D02*
X238685600Y-52953980D01*
X238876076Y-52953980D01*
X238971314Y-52906361D01*
X239018933Y-52811123D01*
X239018933Y-52763504D01*
X238971314Y-52668266D01*
X238876076Y-52620647D01*
X238733219Y-52620647D01*
X238637980Y-52573028D01*
X238590361Y-52477790D01*
X238590361Y-52430171D01*
X238637980Y-52334933D01*
X238733219Y-52287314D01*
X238876076Y-52287314D01*
X238971314Y-52334933D01*
X239399885Y-52906361D02*
X239495123Y-52953980D01*
X239685600Y-52953980D01*
X239780838Y-52906361D01*
X239828457Y-52811123D01*
X239828457Y-52763504D01*
X239780838Y-52668266D01*
X239685600Y-52620647D01*
X239542742Y-52620647D01*
X239447504Y-52573028D01*
X239399885Y-52477790D01*
X239399885Y-52430171D01*
X239447504Y-52334933D01*
X239542742Y-52287314D01*
X239685600Y-52287314D01*
X239780838Y-52334933D01*
%TO.C,R2*%
X129525733Y-67059180D02*
X129192400Y-66582990D01*
X128954304Y-67059180D02*
X128954304Y-66059180D01*
X129335257Y-66059180D01*
X129430495Y-66106800D01*
X129478114Y-66154419D01*
X129525733Y-66249657D01*
X129525733Y-66392514D01*
X129478114Y-66487752D01*
X129430495Y-66535371D01*
X129335257Y-66582990D01*
X128954304Y-66582990D01*
X129906685Y-66154419D02*
X129954304Y-66106800D01*
X130049542Y-66059180D01*
X130287638Y-66059180D01*
X130382876Y-66106800D01*
X130430495Y-66154419D01*
X130478114Y-66249657D01*
X130478114Y-66344895D01*
X130430495Y-66487752D01*
X129859066Y-67059180D01*
X130478114Y-67059180D01*
%TO.C,Q2*%
X170364161Y-84390419D02*
X170268923Y-84342800D01*
X170173685Y-84247561D01*
X170030828Y-84104704D01*
X169935590Y-84057085D01*
X169840352Y-84057085D01*
X169887971Y-84295180D02*
X169792733Y-84247561D01*
X169697495Y-84152323D01*
X169649876Y-83961847D01*
X169649876Y-83628514D01*
X169697495Y-83438038D01*
X169792733Y-83342800D01*
X169887971Y-83295180D01*
X170078447Y-83295180D01*
X170173685Y-83342800D01*
X170268923Y-83438038D01*
X170316542Y-83628514D01*
X170316542Y-83961847D01*
X170268923Y-84152323D01*
X170173685Y-84247561D01*
X170078447Y-84295180D01*
X169887971Y-84295180D01*
X170697495Y-83390419D02*
X170745114Y-83342800D01*
X170840352Y-83295180D01*
X171078447Y-83295180D01*
X171173685Y-83342800D01*
X171221304Y-83390419D01*
X171268923Y-83485657D01*
X171268923Y-83580895D01*
X171221304Y-83723752D01*
X170649876Y-84295180D01*
X171268923Y-84295180D01*
%TO.C,R10*%
X202963542Y-86744180D02*
X202630209Y-86267990D01*
X202392114Y-86744180D02*
X202392114Y-85744180D01*
X202773066Y-85744180D01*
X202868304Y-85791800D01*
X202915923Y-85839419D01*
X202963542Y-85934657D01*
X202963542Y-86077514D01*
X202915923Y-86172752D01*
X202868304Y-86220371D01*
X202773066Y-86267990D01*
X202392114Y-86267990D01*
X203915923Y-86744180D02*
X203344495Y-86744180D01*
X203630209Y-86744180D02*
X203630209Y-85744180D01*
X203534971Y-85887038D01*
X203439733Y-85982276D01*
X203344495Y-86029895D01*
X204534971Y-85744180D02*
X204630209Y-85744180D01*
X204725447Y-85791800D01*
X204773066Y-85839419D01*
X204820685Y-85934657D01*
X204868304Y-86125133D01*
X204868304Y-86363228D01*
X204820685Y-86553704D01*
X204773066Y-86648942D01*
X204725447Y-86696561D01*
X204630209Y-86744180D01*
X204534971Y-86744180D01*
X204439733Y-86696561D01*
X204392114Y-86648942D01*
X204344495Y-86553704D01*
X204296876Y-86363228D01*
X204296876Y-86125133D01*
X204344495Y-85934657D01*
X204392114Y-85839419D01*
X204439733Y-85791800D01*
X204534971Y-85744180D01*
%TO.C,R1*%
X235189733Y-67059180D02*
X234856400Y-66582990D01*
X234618304Y-67059180D02*
X234618304Y-66059180D01*
X234999257Y-66059180D01*
X235094495Y-66106800D01*
X235142114Y-66154419D01*
X235189733Y-66249657D01*
X235189733Y-66392514D01*
X235142114Y-66487752D01*
X235094495Y-66535371D01*
X234999257Y-66582990D01*
X234618304Y-66582990D01*
X236142114Y-67059180D02*
X235570685Y-67059180D01*
X235856400Y-67059180D02*
X235856400Y-66059180D01*
X235761161Y-66202038D01*
X235665923Y-66297276D01*
X235570685Y-66344895D01*
%TO.C,C4*%
X183342933Y-121774742D02*
X183295314Y-121822361D01*
X183152457Y-121869980D01*
X183057219Y-121869980D01*
X182914361Y-121822361D01*
X182819123Y-121727123D01*
X182771504Y-121631885D01*
X182723885Y-121441409D01*
X182723885Y-121298552D01*
X182771504Y-121108076D01*
X182819123Y-121012838D01*
X182914361Y-120917600D01*
X183057219Y-120869980D01*
X183152457Y-120869980D01*
X183295314Y-120917600D01*
X183342933Y-120965219D01*
X184200076Y-121203314D02*
X184200076Y-121869980D01*
X183961980Y-120822361D02*
X183723885Y-121536647D01*
X184342933Y-121536647D01*
%TO.C,R17*%
X149318742Y-113083980D02*
X148985409Y-112607790D01*
X148747314Y-113083980D02*
X148747314Y-112083980D01*
X149128266Y-112083980D01*
X149223504Y-112131600D01*
X149271123Y-112179219D01*
X149318742Y-112274457D01*
X149318742Y-112417314D01*
X149271123Y-112512552D01*
X149223504Y-112560171D01*
X149128266Y-112607790D01*
X148747314Y-112607790D01*
X150271123Y-113083980D02*
X149699695Y-113083980D01*
X149985409Y-113083980D02*
X149985409Y-112083980D01*
X149890171Y-112226838D01*
X149794933Y-112322076D01*
X149699695Y-112369695D01*
X150604457Y-112083980D02*
X151271123Y-112083980D01*
X150842552Y-113083980D01*
%TO.C,Q1*%
X195891161Y-84390419D02*
X195795923Y-84342800D01*
X195700685Y-84247561D01*
X195557828Y-84104704D01*
X195462590Y-84057085D01*
X195367352Y-84057085D01*
X195414971Y-84295180D02*
X195319733Y-84247561D01*
X195224495Y-84152323D01*
X195176876Y-83961847D01*
X195176876Y-83628514D01*
X195224495Y-83438038D01*
X195319733Y-83342800D01*
X195414971Y-83295180D01*
X195605447Y-83295180D01*
X195700685Y-83342800D01*
X195795923Y-83438038D01*
X195843542Y-83628514D01*
X195843542Y-83961847D01*
X195795923Y-84152323D01*
X195700685Y-84247561D01*
X195605447Y-84295180D01*
X195414971Y-84295180D01*
X196795923Y-84295180D02*
X196224495Y-84295180D01*
X196510209Y-84295180D02*
X196510209Y-83295180D01*
X196414971Y-83438038D01*
X196319733Y-83533276D01*
X196224495Y-83580895D01*
%TO.C,R6*%
X151877733Y-73926180D02*
X151544400Y-73449990D01*
X151306304Y-73926180D02*
X151306304Y-72926180D01*
X151687257Y-72926180D01*
X151782495Y-72973800D01*
X151830114Y-73021419D01*
X151877733Y-73116657D01*
X151877733Y-73259514D01*
X151830114Y-73354752D01*
X151782495Y-73402371D01*
X151687257Y-73449990D01*
X151306304Y-73449990D01*
X152734876Y-72926180D02*
X152544400Y-72926180D01*
X152449161Y-72973800D01*
X152401542Y-73021419D01*
X152306304Y-73164276D01*
X152258685Y-73354752D01*
X152258685Y-73735704D01*
X152306304Y-73830942D01*
X152353923Y-73878561D01*
X152449161Y-73926180D01*
X152639638Y-73926180D01*
X152734876Y-73878561D01*
X152782495Y-73830942D01*
X152830114Y-73735704D01*
X152830114Y-73497609D01*
X152782495Y-73402371D01*
X152734876Y-73354752D01*
X152639638Y-73307133D01*
X152449161Y-73307133D01*
X152353923Y-73354752D01*
X152306304Y-73402371D01*
X152258685Y-73497609D01*
%TO.C,C3*%
X165847733Y-123083942D02*
X165800114Y-123131561D01*
X165657257Y-123179180D01*
X165562019Y-123179180D01*
X165419161Y-123131561D01*
X165323923Y-123036323D01*
X165276304Y-122941085D01*
X165228685Y-122750609D01*
X165228685Y-122607752D01*
X165276304Y-122417276D01*
X165323923Y-122322038D01*
X165419161Y-122226800D01*
X165562019Y-122179180D01*
X165657257Y-122179180D01*
X165800114Y-122226800D01*
X165847733Y-122274419D01*
X166181066Y-122179180D02*
X166800114Y-122179180D01*
X166466780Y-122560133D01*
X166609638Y-122560133D01*
X166704876Y-122607752D01*
X166752495Y-122655371D01*
X166800114Y-122750609D01*
X166800114Y-122988704D01*
X166752495Y-123083942D01*
X166704876Y-123131561D01*
X166609638Y-123179180D01*
X166323923Y-123179180D01*
X166228685Y-123131561D01*
X166181066Y-123083942D01*
%TO.C,R4*%
X213599733Y-67059180D02*
X213266400Y-66582990D01*
X213028304Y-67059180D02*
X213028304Y-66059180D01*
X213409257Y-66059180D01*
X213504495Y-66106800D01*
X213552114Y-66154419D01*
X213599733Y-66249657D01*
X213599733Y-66392514D01*
X213552114Y-66487752D01*
X213504495Y-66535371D01*
X213409257Y-66582990D01*
X213028304Y-66582990D01*
X214456876Y-66392514D02*
X214456876Y-67059180D01*
X214218780Y-66011561D02*
X213980685Y-66725847D01*
X214599733Y-66725847D01*
%TO.C,R3*%
X235189733Y-83324180D02*
X234856400Y-82847990D01*
X234618304Y-83324180D02*
X234618304Y-82324180D01*
X234999257Y-82324180D01*
X235094495Y-82371800D01*
X235142114Y-82419419D01*
X235189733Y-82514657D01*
X235189733Y-82657514D01*
X235142114Y-82752752D01*
X235094495Y-82800371D01*
X234999257Y-82847990D01*
X234618304Y-82847990D01*
X235523066Y-82324180D02*
X236142114Y-82324180D01*
X235808780Y-82705133D01*
X235951638Y-82705133D01*
X236046876Y-82752752D01*
X236094495Y-82800371D01*
X236142114Y-82895609D01*
X236142114Y-83133704D01*
X236094495Y-83228942D01*
X236046876Y-83276561D01*
X235951638Y-83324180D01*
X235665923Y-83324180D01*
X235570685Y-83276561D01*
X235523066Y-83228942D01*
%TO.C,R13*%
X128541542Y-112931580D02*
X128208209Y-112455390D01*
X127970114Y-112931580D02*
X127970114Y-111931580D01*
X128351066Y-111931580D01*
X128446304Y-111979200D01*
X128493923Y-112026819D01*
X128541542Y-112122057D01*
X128541542Y-112264914D01*
X128493923Y-112360152D01*
X128446304Y-112407771D01*
X128351066Y-112455390D01*
X127970114Y-112455390D01*
X129493923Y-112931580D02*
X128922495Y-112931580D01*
X129208209Y-112931580D02*
X129208209Y-111931580D01*
X129112971Y-112074438D01*
X129017733Y-112169676D01*
X128922495Y-112217295D01*
X129827257Y-111931580D02*
X130446304Y-111931580D01*
X130112971Y-112312533D01*
X130255828Y-112312533D01*
X130351066Y-112360152D01*
X130398685Y-112407771D01*
X130446304Y-112503009D01*
X130446304Y-112741104D01*
X130398685Y-112836342D01*
X130351066Y-112883961D01*
X130255828Y-112931580D01*
X129970114Y-112931580D01*
X129874876Y-112883961D01*
X129827257Y-112836342D01*
%TO.C,Q5*%
X183343561Y-124095419D02*
X183248323Y-124047800D01*
X183153085Y-123952561D01*
X183010228Y-123809704D01*
X182914990Y-123762085D01*
X182819752Y-123762085D01*
X182867371Y-124000180D02*
X182772133Y-123952561D01*
X182676895Y-123857323D01*
X182629276Y-123666847D01*
X182629276Y-123333514D01*
X182676895Y-123143038D01*
X182772133Y-123047800D01*
X182867371Y-123000180D01*
X183057847Y-123000180D01*
X183153085Y-123047800D01*
X183248323Y-123143038D01*
X183295942Y-123333514D01*
X183295942Y-123666847D01*
X183248323Y-123857323D01*
X183153085Y-123952561D01*
X183057847Y-124000180D01*
X182867371Y-124000180D01*
X184200704Y-123000180D02*
X183724514Y-123000180D01*
X183676895Y-123476371D01*
X183724514Y-123428752D01*
X183819752Y-123381133D01*
X184057847Y-123381133D01*
X184153085Y-123428752D01*
X184200704Y-123476371D01*
X184248323Y-123571609D01*
X184248323Y-123809704D01*
X184200704Y-123904942D01*
X184153085Y-123952561D01*
X184057847Y-124000180D01*
X183819752Y-124000180D01*
X183724514Y-123952561D01*
X183676895Y-123904942D01*
%TO.C,J2*%
X236699466Y-112659980D02*
X236699466Y-113374266D01*
X236651847Y-113517123D01*
X236556609Y-113612361D01*
X236413752Y-113659980D01*
X236318514Y-113659980D01*
X237128038Y-112755219D02*
X237175657Y-112707600D01*
X237270895Y-112659980D01*
X237508990Y-112659980D01*
X237604228Y-112707600D01*
X237651847Y-112755219D01*
X237699466Y-112850457D01*
X237699466Y-112945695D01*
X237651847Y-113088552D01*
X237080419Y-113659980D01*
X237699466Y-113659980D01*
%TO.C,RV3*%
X133308561Y-132850980D02*
X132975228Y-132374790D01*
X132737133Y-132850980D02*
X132737133Y-131850980D01*
X133118085Y-131850980D01*
X133213323Y-131898600D01*
X133260942Y-131946219D01*
X133308561Y-132041457D01*
X133308561Y-132184314D01*
X133260942Y-132279552D01*
X133213323Y-132327171D01*
X133118085Y-132374790D01*
X132737133Y-132374790D01*
X133594276Y-131850980D02*
X133927609Y-132850980D01*
X134260942Y-131850980D01*
X134499038Y-131850980D02*
X135118085Y-131850980D01*
X134784752Y-132231933D01*
X134927609Y-132231933D01*
X135022847Y-132279552D01*
X135070466Y-132327171D01*
X135118085Y-132422409D01*
X135118085Y-132660504D01*
X135070466Y-132755742D01*
X135022847Y-132803361D01*
X134927609Y-132850980D01*
X134641895Y-132850980D01*
X134546657Y-132803361D01*
X134499038Y-132755742D01*
X126840552Y-144308380D02*
X127411980Y-144308380D01*
X127126266Y-145308380D02*
X127126266Y-144308380D01*
X127888171Y-145308380D02*
X127792933Y-145260761D01*
X127745314Y-145213142D01*
X127697695Y-145117904D01*
X127697695Y-144832190D01*
X127745314Y-144736952D01*
X127792933Y-144689333D01*
X127888171Y-144641714D01*
X128031028Y-144641714D01*
X128126266Y-144689333D01*
X128173885Y-144736952D01*
X128221504Y-144832190D01*
X128221504Y-145117904D01*
X128173885Y-145213142D01*
X128126266Y-145260761D01*
X128031028Y-145308380D01*
X127888171Y-145308380D01*
X129935790Y-145308380D02*
X129364361Y-145308380D01*
X129650076Y-145308380D02*
X129650076Y-144308380D01*
X129554838Y-144451238D01*
X129459600Y-144546476D01*
X129364361Y-144594095D01*
X130554838Y-144308380D02*
X130650076Y-144308380D01*
X130745314Y-144356000D01*
X130792933Y-144403619D01*
X130840552Y-144498857D01*
X130888171Y-144689333D01*
X130888171Y-144927428D01*
X130840552Y-145117904D01*
X130792933Y-145213142D01*
X130745314Y-145260761D01*
X130650076Y-145308380D01*
X130554838Y-145308380D01*
X130459600Y-145260761D01*
X130411980Y-145213142D01*
X130364361Y-145117904D01*
X130316742Y-144927428D01*
X130316742Y-144689333D01*
X130364361Y-144498857D01*
X130411980Y-144403619D01*
X130459600Y-144356000D01*
X130554838Y-144308380D01*
X131316742Y-145308380D02*
X131316742Y-144308380D01*
X131411980Y-144927428D02*
X131697695Y-145308380D01*
X131697695Y-144641714D02*
X131316742Y-145022666D01*
X132888171Y-145308380D02*
X132888171Y-144308380D01*
X133269123Y-144308380D01*
X133364361Y-144356000D01*
X133411980Y-144403619D01*
X133459600Y-144498857D01*
X133459600Y-144641714D01*
X133411980Y-144736952D01*
X133364361Y-144784571D01*
X133269123Y-144832190D01*
X132888171Y-144832190D01*
X134031028Y-145308380D02*
X133935790Y-145260761D01*
X133888171Y-145213142D01*
X133840552Y-145117904D01*
X133840552Y-144832190D01*
X133888171Y-144736952D01*
X133935790Y-144689333D01*
X134031028Y-144641714D01*
X134173885Y-144641714D01*
X134269123Y-144689333D01*
X134316742Y-144736952D01*
X134364361Y-144832190D01*
X134364361Y-145117904D01*
X134316742Y-145213142D01*
X134269123Y-145260761D01*
X134173885Y-145308380D01*
X134031028Y-145308380D01*
X134650076Y-144641714D02*
X135031028Y-144641714D01*
X134792933Y-144308380D02*
X134792933Y-145165523D01*
X134840552Y-145260761D01*
X134935790Y-145308380D01*
X135031028Y-145308380D01*
X136126266Y-144927428D02*
X136888171Y-144927428D01*
X138459600Y-144784571D02*
X138602457Y-144832190D01*
X138650076Y-144879809D01*
X138697695Y-144975047D01*
X138697695Y-145117904D01*
X138650076Y-145213142D01*
X138602457Y-145260761D01*
X138507219Y-145308380D01*
X138126266Y-145308380D01*
X138126266Y-144308380D01*
X138459600Y-144308380D01*
X138554838Y-144356000D01*
X138602457Y-144403619D01*
X138650076Y-144498857D01*
X138650076Y-144594095D01*
X138602457Y-144689333D01*
X138554838Y-144736952D01*
X138459600Y-144784571D01*
X138126266Y-144784571D01*
X139269123Y-145308380D02*
X139173885Y-145260761D01*
X139126266Y-145165523D01*
X139126266Y-144308380D01*
X140078647Y-144641714D02*
X140078647Y-145308380D01*
X139650076Y-144641714D02*
X139650076Y-145165523D01*
X139697695Y-145260761D01*
X139792933Y-145308380D01*
X139935790Y-145308380D01*
X140031028Y-145260761D01*
X140078647Y-145213142D01*
X140935790Y-145260761D02*
X140840552Y-145308380D01*
X140650076Y-145308380D01*
X140554838Y-145260761D01*
X140507219Y-145165523D01*
X140507219Y-144784571D01*
X140554838Y-144689333D01*
X140650076Y-144641714D01*
X140840552Y-144641714D01*
X140935790Y-144689333D01*
X140983409Y-144784571D01*
X140983409Y-144879809D01*
X140507219Y-144975047D01*
%TO.C,R9*%
X203439733Y-94999180D02*
X203106400Y-94522990D01*
X202868304Y-94999180D02*
X202868304Y-93999180D01*
X203249257Y-93999180D01*
X203344495Y-94046800D01*
X203392114Y-94094419D01*
X203439733Y-94189657D01*
X203439733Y-94332514D01*
X203392114Y-94427752D01*
X203344495Y-94475371D01*
X203249257Y-94522990D01*
X202868304Y-94522990D01*
X203915923Y-94999180D02*
X204106400Y-94999180D01*
X204201638Y-94951561D01*
X204249257Y-94903942D01*
X204344495Y-94761085D01*
X204392114Y-94570609D01*
X204392114Y-94189657D01*
X204344495Y-94094419D01*
X204296876Y-94046800D01*
X204201638Y-93999180D01*
X204011161Y-93999180D01*
X203915923Y-94046800D01*
X203868304Y-94094419D01*
X203820685Y-94189657D01*
X203820685Y-94427752D01*
X203868304Y-94522990D01*
X203915923Y-94570609D01*
X204011161Y-94618228D01*
X204201638Y-94618228D01*
X204296876Y-94570609D01*
X204344495Y-94522990D01*
X204392114Y-94427752D01*
%TO.C,U1*%
X162915695Y-107478380D02*
X162915695Y-108287904D01*
X162963314Y-108383142D01*
X163010933Y-108430761D01*
X163106171Y-108478380D01*
X163296647Y-108478380D01*
X163391885Y-108430761D01*
X163439504Y-108383142D01*
X163487123Y-108287904D01*
X163487123Y-107478380D01*
X164487123Y-108478380D02*
X163915695Y-108478380D01*
X164201409Y-108478380D02*
X164201409Y-107478380D01*
X164106171Y-107621238D01*
X164010933Y-107716476D01*
X163915695Y-107764095D01*
%TO.C,Q4*%
X168763961Y-114595819D02*
X168668723Y-114548200D01*
X168573485Y-114452961D01*
X168430628Y-114310104D01*
X168335390Y-114262485D01*
X168240152Y-114262485D01*
X168287771Y-114500580D02*
X168192533Y-114452961D01*
X168097295Y-114357723D01*
X168049676Y-114167247D01*
X168049676Y-113833914D01*
X168097295Y-113643438D01*
X168192533Y-113548200D01*
X168287771Y-113500580D01*
X168478247Y-113500580D01*
X168573485Y-113548200D01*
X168668723Y-113643438D01*
X168716342Y-113833914D01*
X168716342Y-114167247D01*
X168668723Y-114357723D01*
X168573485Y-114452961D01*
X168478247Y-114500580D01*
X168287771Y-114500580D01*
X169573485Y-113833914D02*
X169573485Y-114500580D01*
X169335390Y-113452961D02*
X169097295Y-114167247D01*
X169716342Y-114167247D01*
%TO.C,RV4*%
X213216961Y-132850980D02*
X212883628Y-132374790D01*
X212645533Y-132850980D02*
X212645533Y-131850980D01*
X213026485Y-131850980D01*
X213121723Y-131898600D01*
X213169342Y-131946219D01*
X213216961Y-132041457D01*
X213216961Y-132184314D01*
X213169342Y-132279552D01*
X213121723Y-132327171D01*
X213026485Y-132374790D01*
X212645533Y-132374790D01*
X213502676Y-131850980D02*
X213836009Y-132850980D01*
X214169342Y-131850980D01*
X214931247Y-132184314D02*
X214931247Y-132850980D01*
X214693152Y-131803361D02*
X214455057Y-132517647D01*
X215074104Y-132517647D01*
X206216961Y-144359180D02*
X206788390Y-144359180D01*
X206502676Y-145359180D02*
X206502676Y-144359180D01*
X207264580Y-145359180D02*
X207169342Y-145311561D01*
X207121723Y-145263942D01*
X207074104Y-145168704D01*
X207074104Y-144882990D01*
X207121723Y-144787752D01*
X207169342Y-144740133D01*
X207264580Y-144692514D01*
X207407438Y-144692514D01*
X207502676Y-144740133D01*
X207550295Y-144787752D01*
X207597914Y-144882990D01*
X207597914Y-145168704D01*
X207550295Y-145263942D01*
X207502676Y-145311561D01*
X207407438Y-145359180D01*
X207264580Y-145359180D01*
X209312200Y-145359180D02*
X208740771Y-145359180D01*
X209026485Y-145359180D02*
X209026485Y-144359180D01*
X208931247Y-144502038D01*
X208836009Y-144597276D01*
X208740771Y-144644895D01*
X209931247Y-144359180D02*
X210026485Y-144359180D01*
X210121723Y-144406800D01*
X210169342Y-144454419D01*
X210216961Y-144549657D01*
X210264580Y-144740133D01*
X210264580Y-144978228D01*
X210216961Y-145168704D01*
X210169342Y-145263942D01*
X210121723Y-145311561D01*
X210026485Y-145359180D01*
X209931247Y-145359180D01*
X209836009Y-145311561D01*
X209788390Y-145263942D01*
X209740771Y-145168704D01*
X209693152Y-144978228D01*
X209693152Y-144740133D01*
X209740771Y-144549657D01*
X209788390Y-144454419D01*
X209836009Y-144406800D01*
X209931247Y-144359180D01*
X210693152Y-145359180D02*
X210693152Y-144359180D01*
X210788390Y-144978228D02*
X211074104Y-145359180D01*
X211074104Y-144692514D02*
X210693152Y-145073466D01*
X212264580Y-145359180D02*
X212264580Y-144359180D01*
X212645533Y-144359180D01*
X212740771Y-144406800D01*
X212788390Y-144454419D01*
X212836009Y-144549657D01*
X212836009Y-144692514D01*
X212788390Y-144787752D01*
X212740771Y-144835371D01*
X212645533Y-144882990D01*
X212264580Y-144882990D01*
X213407438Y-145359180D02*
X213312200Y-145311561D01*
X213264580Y-145263942D01*
X213216961Y-145168704D01*
X213216961Y-144882990D01*
X213264580Y-144787752D01*
X213312200Y-144740133D01*
X213407438Y-144692514D01*
X213550295Y-144692514D01*
X213645533Y-144740133D01*
X213693152Y-144787752D01*
X213740771Y-144882990D01*
X213740771Y-145168704D01*
X213693152Y-145263942D01*
X213645533Y-145311561D01*
X213550295Y-145359180D01*
X213407438Y-145359180D01*
X214026485Y-144692514D02*
X214407438Y-144692514D01*
X214169342Y-144359180D02*
X214169342Y-145216323D01*
X214216961Y-145311561D01*
X214312200Y-145359180D01*
X214407438Y-145359180D01*
X215502676Y-144978228D02*
X216264580Y-144978228D01*
X218026485Y-144406800D02*
X217931247Y-144359180D01*
X217788390Y-144359180D01*
X217645533Y-144406800D01*
X217550295Y-144502038D01*
X217502676Y-144597276D01*
X217455057Y-144787752D01*
X217455057Y-144930609D01*
X217502676Y-145121085D01*
X217550295Y-145216323D01*
X217645533Y-145311561D01*
X217788390Y-145359180D01*
X217883628Y-145359180D01*
X218026485Y-145311561D01*
X218074104Y-145263942D01*
X218074104Y-144930609D01*
X217883628Y-144930609D01*
X218502676Y-145359180D02*
X218502676Y-144692514D01*
X218502676Y-144882990D02*
X218550295Y-144787752D01*
X218597914Y-144740133D01*
X218693152Y-144692514D01*
X218788390Y-144692514D01*
X219502676Y-145311561D02*
X219407438Y-145359180D01*
X219216961Y-145359180D01*
X219121723Y-145311561D01*
X219074104Y-145216323D01*
X219074104Y-144835371D01*
X219121723Y-144740133D01*
X219216961Y-144692514D01*
X219407438Y-144692514D01*
X219502676Y-144740133D01*
X219550295Y-144835371D01*
X219550295Y-144930609D01*
X219074104Y-145025847D01*
X220359819Y-145311561D02*
X220264580Y-145359180D01*
X220074104Y-145359180D01*
X219978866Y-145311561D01*
X219931247Y-145216323D01*
X219931247Y-144835371D01*
X219978866Y-144740133D01*
X220074104Y-144692514D01*
X220264580Y-144692514D01*
X220359819Y-144740133D01*
X220407438Y-144835371D01*
X220407438Y-144930609D01*
X219931247Y-145025847D01*
X220836009Y-144692514D02*
X220836009Y-145359180D01*
X220836009Y-144787752D02*
X220883628Y-144740133D01*
X220978866Y-144692514D01*
X221121723Y-144692514D01*
X221216961Y-144740133D01*
X221264580Y-144835371D01*
X221264580Y-145359180D01*
D12*
%TO.C,C1*%
X195299400Y-70103800D02*
G75*
G03*
X195299400Y-70103800I-3270000J0D01*
G01*
%TO.C,Q3*%
X219695400Y-86391800D02*
X229935400Y-86391800D01*
X219695400Y-91032800D02*
X229935400Y-91032800D01*
X219695400Y-86391800D02*
X219695400Y-91032800D01*
X229935400Y-86391800D02*
X229935400Y-91032800D01*
X219695400Y-87901800D02*
X229935400Y-87901800D01*
X222965400Y-86391800D02*
X222965400Y-87901800D01*
X226666400Y-86391800D02*
X226666400Y-87901800D01*
%TO.C,R11*%
X135203600Y-122013600D02*
X123063600Y-122013600D01*
X123063600Y-126753600D02*
X135203600Y-126753600D01*
X135313600Y-124383600D02*
X135203600Y-124383600D01*
X135203600Y-126753600D02*
X135203600Y-122013600D01*
X123063600Y-122013600D02*
X123063600Y-126753600D01*
X122953600Y-124383600D02*
X123063600Y-124383600D01*
%TO.C,R16*%
X193320000Y-120200400D02*
X205460000Y-120200400D01*
X205460000Y-120200400D02*
X205460000Y-115460400D01*
X205570000Y-117830400D02*
X205460000Y-117830400D01*
X193320000Y-115460400D02*
X193320000Y-120200400D01*
X205460000Y-115460400D02*
X193320000Y-115460400D01*
X193210000Y-117830400D02*
X193320000Y-117830400D01*
%TO.C,J1*%
X238424400Y-104670800D02*
X238459400Y-104705800D01*
X235910400Y-102566800D02*
X235946400Y-102601800D01*
X238208400Y-104863800D02*
X238254400Y-104910800D01*
X241345400Y-111556800D02*
X242085400Y-111556800D01*
X231924400Y-111316800D02*
X241845400Y-111316800D01*
X231924400Y-111316800D02*
X231924400Y-101036800D01*
X242085400Y-111556800D02*
X242085400Y-111056800D01*
X239785400Y-111316800D02*
X239785400Y-101036800D01*
X236116400Y-102361800D02*
X236162400Y-102408800D01*
X234884400Y-111316800D02*
X234884400Y-101036800D01*
X241285400Y-111316800D02*
X241285400Y-101036800D01*
X241845400Y-111316800D02*
X241845400Y-101036800D01*
X231924400Y-101036800D02*
X241845400Y-101036800D01*
X236501400Y-110251800D02*
G75*
G03*
X237868442Y-110252227I684001J1534993D01*
G01*
X235650400Y-108032800D02*
G75*
G03*
X235649973Y-109399842I1534993J-684001D01*
G01*
X237869400Y-107181800D02*
G75*
G03*
X236502358Y-107181373I-684001J-1534993D01*
G01*
X238720400Y-109400800D02*
G75*
G03*
X238865653Y-108687995I-1535001J683999D01*
G01*
X238865400Y-108716800D02*
G75*
G03*
X238720156Y-108033482I-1679992J1D01*
G01*
X238865400Y-103636800D02*
G75*
G03*
X238865400Y-103636800I-1680000J0D01*
G01*
%TO.C,RV2*%
X141187400Y-60542800D02*
X125827400Y-60542800D01*
X129654400Y-57218800D02*
X129701400Y-57172800D01*
X132437400Y-59516800D02*
X132472400Y-59480800D01*
X127152400Y-59310800D02*
X127199400Y-59264800D01*
X141427400Y-53341800D02*
X140927400Y-53341800D01*
X141187400Y-63502800D02*
X125827400Y-63502800D01*
X141187400Y-54141800D02*
X125827400Y-54141800D01*
X141427400Y-54081800D02*
X141427400Y-53341800D01*
X134734400Y-57218800D02*
X134781400Y-57172800D01*
X134541400Y-57002800D02*
X134576400Y-56967800D01*
X141187400Y-55641800D02*
X125827400Y-55641800D01*
X141187400Y-53581800D02*
X125827400Y-53581800D01*
X129461400Y-57002800D02*
X129496400Y-56967800D01*
X132232400Y-59310800D02*
X132279400Y-59264800D01*
X141187400Y-63502800D02*
X141187400Y-53581800D01*
X127357400Y-59516800D02*
X127392400Y-59480800D01*
X125827400Y-63502800D02*
X125827400Y-53581800D01*
X139271400Y-56706800D02*
G75*
G03*
X138558595Y-56561547I-683999J-1535001D01*
G01*
X137903400Y-59776800D02*
G75*
G03*
X139270442Y-59777227I684001J1534993D01*
G01*
X137052400Y-57557800D02*
G75*
G03*
X137051973Y-58924842I1534993J-684001D01*
G01*
X140122400Y-58925800D02*
G75*
G03*
X140122827Y-57558758I-1534993J684001D01*
G01*
X138587400Y-56561800D02*
G75*
G03*
X137904082Y-56707044I-1J-1679992D01*
G01*
X135187400Y-58241800D02*
G75*
G03*
X135187400Y-58241800I-1680000J0D01*
G01*
X130107400Y-58241800D02*
G75*
G03*
X130107400Y-58241800I-1680000J0D01*
G01*
%TO.C,R5*%
X123622400Y-81871800D02*
X135762400Y-81871800D01*
X123622400Y-77131800D02*
X123622400Y-81871800D01*
X123512400Y-79501800D02*
X123622400Y-79501800D01*
X135762400Y-81871800D02*
X135762400Y-77131800D01*
X135872400Y-79501800D02*
X135762400Y-79501800D01*
X135762400Y-77131800D02*
X123622400Y-77131800D01*
%TO.C,R14*%
X156133200Y-122013600D02*
X143993200Y-122013600D01*
X143883200Y-124383600D02*
X143993200Y-124383600D01*
X143993200Y-126753600D02*
X156133200Y-126753600D01*
X156133200Y-126753600D02*
X156133200Y-122013600D01*
X156243200Y-124383600D02*
X156133200Y-124383600D01*
X143993200Y-122013600D02*
X143993200Y-126753600D01*
%TO.C,R7*%
X207586400Y-79501800D02*
X207696400Y-79501800D01*
X219946400Y-79501800D02*
X219836400Y-79501800D01*
X219836400Y-77131800D02*
X207696400Y-77131800D01*
X219836400Y-81871800D02*
X219836400Y-77131800D01*
X207696400Y-77131800D02*
X207696400Y-81871800D01*
X207696400Y-81871800D02*
X219836400Y-81871800D01*
%TO.C,R12*%
X227151600Y-129344400D02*
X227151600Y-124604400D01*
X215011600Y-124604400D02*
X215011600Y-129344400D01*
X214901600Y-126974400D02*
X215011600Y-126974400D01*
X227151600Y-124604400D02*
X215011600Y-124604400D01*
X215011600Y-129344400D02*
X227151600Y-129344400D01*
X227261600Y-126974400D02*
X227151600Y-126974400D01*
%TO.C,R15*%
X214706800Y-120302000D02*
X226846800Y-120302000D01*
X226846800Y-120302000D02*
X226846800Y-115562000D01*
X214596800Y-117932000D02*
X214706800Y-117932000D01*
X214706800Y-115562000D02*
X214706800Y-120302000D01*
X226956800Y-117932000D02*
X226846800Y-117932000D01*
X226846800Y-115562000D02*
X214706800Y-115562000D01*
%TO.C,R8*%
X145974400Y-81998800D02*
X158114400Y-81998800D01*
X158114400Y-81998800D02*
X158114400Y-77258800D01*
X158224400Y-79628800D02*
X158114400Y-79628800D01*
X145864400Y-79628800D02*
X145974400Y-79628800D01*
X158114400Y-77258800D02*
X145974400Y-77258800D01*
X145974400Y-77258800D02*
X145974400Y-81998800D01*
%TO.C,R18*%
X205671600Y-127025200D02*
X205561600Y-127025200D01*
X205561600Y-129395200D02*
X205561600Y-124655200D01*
X193421600Y-124655200D02*
X193421600Y-129395200D01*
X193311600Y-127025200D02*
X193421600Y-127025200D01*
X205561600Y-124655200D02*
X193421600Y-124655200D01*
X193421600Y-129395200D02*
X205561600Y-129395200D01*
%TO.C,C2*%
X172840400Y-70103800D02*
G75*
G03*
X172840400Y-70103800I-3270000J0D01*
G01*
%TO.C,RV1*%
X221586400Y-60075800D02*
X221621400Y-60039800D01*
X226461400Y-59869800D02*
X226508400Y-59823800D01*
X220056400Y-64061800D02*
X220056400Y-54140800D01*
X228963400Y-57777800D02*
X229010400Y-57731800D01*
X223690400Y-57561800D02*
X223725400Y-57526800D01*
X235416400Y-64061800D02*
X235416400Y-54140800D01*
X235416400Y-56200800D02*
X220056400Y-56200800D01*
X235656400Y-53900800D02*
X235156400Y-53900800D01*
X235656400Y-54640800D02*
X235656400Y-53900800D01*
X226666400Y-60075800D02*
X226701400Y-60039800D01*
X223883400Y-57777800D02*
X223930400Y-57731800D01*
X228770400Y-57561800D02*
X228805400Y-57526800D01*
X235416400Y-64061800D02*
X220056400Y-64061800D01*
X221381400Y-59869800D02*
X221428400Y-59823800D01*
X235416400Y-61101800D02*
X220056400Y-61101800D01*
X235416400Y-54700800D02*
X220056400Y-54700800D01*
X235416400Y-54140800D02*
X220056400Y-54140800D01*
X233500400Y-57265800D02*
G75*
G03*
X232787595Y-57120547I-683999J-1535001D01*
G01*
X232816400Y-57120800D02*
G75*
G03*
X232133082Y-57266044I-1J-1679992D01*
G01*
X232132400Y-60335800D02*
G75*
G03*
X233499442Y-60336227I684001J1534993D01*
G01*
X234351400Y-59484800D02*
G75*
G03*
X234351827Y-58117758I-1534993J684001D01*
G01*
X231281400Y-58116800D02*
G75*
G03*
X231280973Y-59483842I1534993J-684001D01*
G01*
X224336400Y-58800800D02*
G75*
G03*
X224336400Y-58800800I-1680000J0D01*
G01*
X229416400Y-58800800D02*
G75*
G03*
X229416400Y-58800800I-1680000J0D01*
G01*
%TO.C,R2*%
X123622400Y-72346800D02*
X135762400Y-72346800D01*
X135762400Y-67606800D02*
X123622400Y-67606800D01*
X123512400Y-69976800D02*
X123622400Y-69976800D01*
X135762400Y-72346800D02*
X135762400Y-67606800D01*
X123622400Y-67606800D02*
X123622400Y-72346800D01*
X135872400Y-69976800D02*
X135762400Y-69976800D01*
%TO.C,Q2*%
X175579400Y-82842800D02*
X175579400Y-78201800D01*
X168608400Y-82842800D02*
X168608400Y-81332800D01*
X175579400Y-78201800D02*
X165339400Y-78201800D01*
X175579400Y-81332800D02*
X165339400Y-81332800D01*
X172309400Y-82842800D02*
X172309400Y-81332800D01*
X165339400Y-82842800D02*
X165339400Y-78201800D01*
X175579400Y-82842800D02*
X165339400Y-82842800D01*
%TO.C,R10*%
X209786400Y-89661800D02*
X209676400Y-89661800D01*
X197536400Y-87291800D02*
X197536400Y-92031800D01*
X209676400Y-92031800D02*
X209676400Y-87291800D01*
X209676400Y-87291800D02*
X197536400Y-87291800D01*
X197536400Y-92031800D02*
X209676400Y-92031800D01*
X197426400Y-89661800D02*
X197536400Y-89661800D01*
%TO.C,R1*%
X241426400Y-67606800D02*
X229286400Y-67606800D01*
X229176400Y-69976800D02*
X229286400Y-69976800D01*
X241536400Y-69976800D02*
X241426400Y-69976800D01*
X229286400Y-67606800D02*
X229286400Y-72346800D01*
X241426400Y-72346800D02*
X241426400Y-67606800D01*
X229286400Y-72346800D02*
X241426400Y-72346800D01*
%TO.C,C4*%
X186779600Y-117017600D02*
G75*
G03*
X186779600Y-117017600I-3270000J0D01*
G01*
%TO.C,R17*%
X143891600Y-118371600D02*
X156031600Y-118371600D01*
X156031600Y-113631600D02*
X143891600Y-113631600D01*
X143781600Y-116001600D02*
X143891600Y-116001600D01*
X143891600Y-113631600D02*
X143891600Y-118371600D01*
X156031600Y-118371600D02*
X156031600Y-113631600D01*
X156141600Y-116001600D02*
X156031600Y-116001600D01*
%TO.C,Q1*%
X190866400Y-82842800D02*
X190866400Y-78201800D01*
X201106400Y-81332800D02*
X190866400Y-81332800D01*
X197836400Y-82842800D02*
X197836400Y-81332800D01*
X201106400Y-82842800D02*
X190866400Y-82842800D01*
X194135400Y-82842800D02*
X194135400Y-81332800D01*
X201106400Y-78201800D02*
X190866400Y-78201800D01*
X201106400Y-82842800D02*
X201106400Y-78201800D01*
%TO.C,R6*%
X158224400Y-70103800D02*
X158114400Y-70103800D01*
X145864400Y-70103800D02*
X145974400Y-70103800D01*
X158114400Y-67733800D02*
X145974400Y-67733800D01*
X145974400Y-72473800D02*
X158114400Y-72473800D01*
X145974400Y-67733800D02*
X145974400Y-72473800D01*
X158114400Y-72473800D02*
X158114400Y-67733800D01*
%TO.C,C3*%
X169284400Y-127126800D02*
G75*
G03*
X169284400Y-127126800I-3270000J0D01*
G01*
%TO.C,R4*%
X219836400Y-72346800D02*
X219836400Y-67606800D01*
X219836400Y-67606800D02*
X207696400Y-67606800D01*
X219946400Y-69976800D02*
X219836400Y-69976800D01*
X207696400Y-67606800D02*
X207696400Y-72346800D01*
X207696400Y-72346800D02*
X219836400Y-72346800D01*
X207586400Y-69976800D02*
X207696400Y-69976800D01*
%TO.C,R3*%
X241426400Y-81871800D02*
X241426400Y-77131800D01*
X229286400Y-77131800D02*
X229286400Y-81871800D01*
X241536400Y-79501800D02*
X241426400Y-79501800D01*
X229176400Y-79501800D02*
X229286400Y-79501800D01*
X241426400Y-77131800D02*
X229286400Y-77131800D01*
X229286400Y-81871800D02*
X241426400Y-81871800D01*
%TO.C,R13*%
X123114400Y-118219200D02*
X135254400Y-118219200D01*
X135254400Y-113479200D02*
X123114400Y-113479200D01*
X123114400Y-113479200D02*
X123114400Y-118219200D01*
X135364400Y-115849200D02*
X135254400Y-115849200D01*
X135254400Y-118219200D02*
X135254400Y-113479200D01*
X123004400Y-115849200D02*
X123114400Y-115849200D01*
%TO.C,Q5*%
X178318800Y-129188800D02*
X188558800Y-129188800D01*
X185289800Y-124547800D02*
X185289800Y-126057800D01*
X181588800Y-124547800D02*
X181588800Y-126057800D01*
X178318800Y-124547800D02*
X178318800Y-129188800D01*
X188558800Y-124547800D02*
X188558800Y-129188800D01*
X178318800Y-124547800D02*
X188558800Y-124547800D01*
X178318800Y-126057800D02*
X188558800Y-126057800D01*
%TO.C,J2*%
X239912400Y-135568800D02*
X239912400Y-115128800D01*
X241972400Y-135568800D02*
X241972400Y-115128800D01*
X236037400Y-121738800D02*
X236073400Y-121773800D01*
X232051400Y-135568800D02*
X232051400Y-115128800D01*
X238335400Y-129115800D02*
X238381400Y-129162800D01*
X236037400Y-126818800D02*
X236073400Y-126853800D01*
X236037400Y-116658800D02*
X236073400Y-116693800D01*
X242212400Y-135808800D02*
X242212400Y-135308800D01*
X238335400Y-118955800D02*
X238381400Y-119002800D01*
X236243400Y-126613800D02*
X236289400Y-126660800D01*
X238551400Y-128922800D02*
X238586400Y-128957800D01*
X236243400Y-116453800D02*
X236289400Y-116500800D01*
X232051400Y-115128800D02*
X241972400Y-115128800D01*
X238551400Y-123842800D02*
X238586400Y-123877800D01*
X235011400Y-135568800D02*
X235011400Y-115128800D01*
X241412400Y-135568800D02*
X241412400Y-115128800D01*
X238551400Y-118762800D02*
X238586400Y-118797800D01*
X238335400Y-124035800D02*
X238381400Y-124082800D01*
X241472400Y-135808800D02*
X242212400Y-135808800D01*
X232051400Y-135568800D02*
X241972400Y-135568800D01*
X236243400Y-121533800D02*
X236289400Y-121580800D01*
X238992400Y-132968800D02*
G75*
G03*
X238847156Y-132285482I-1679992J1D01*
G01*
X236628400Y-134503800D02*
G75*
G03*
X237995442Y-134504227I684001J1534993D01*
G01*
X235777400Y-132284800D02*
G75*
G03*
X235776973Y-133651842I1534993J-684001D01*
G01*
X238847400Y-133652800D02*
G75*
G03*
X238992653Y-132939995I-1535001J683999D01*
G01*
X237996400Y-131433800D02*
G75*
G03*
X236629358Y-131433373I-684001J-1534993D01*
G01*
X238992400Y-127888800D02*
G75*
G03*
X238992400Y-127888800I-1680000J0D01*
G01*
X238992400Y-117728800D02*
G75*
G03*
X238992400Y-117728800I-1680000J0D01*
G01*
X238992400Y-122808800D02*
G75*
G03*
X238992400Y-122808800I-1680000J0D01*
G01*
%TO.C,RV3*%
X126223800Y-142758600D02*
X141583800Y-142758600D01*
X134973800Y-137383600D02*
X134938800Y-137419600D01*
X125983800Y-143558600D02*
X126483800Y-143558600D01*
X141583800Y-133397600D02*
X141583800Y-143318600D01*
X125983800Y-142818600D02*
X125983800Y-143558600D01*
X140258800Y-137589600D02*
X140211800Y-137635600D01*
X132869800Y-139897600D02*
X132834800Y-139932600D01*
X132676800Y-139681600D02*
X132629800Y-139727600D01*
X126223800Y-133397600D02*
X141583800Y-133397600D01*
X126223800Y-143318600D02*
X141583800Y-143318600D01*
X137949800Y-139897600D02*
X137914800Y-139932600D01*
X135178800Y-137589600D02*
X135131800Y-137635600D01*
X137756800Y-139681600D02*
X137709800Y-139727600D01*
X126223800Y-133397600D02*
X126223800Y-143318600D01*
X140053800Y-137383600D02*
X140018800Y-137419600D01*
X126223800Y-141258600D02*
X141583800Y-141258600D01*
X126223800Y-136357600D02*
X141583800Y-136357600D01*
X129507800Y-137123600D02*
G75*
G03*
X128140758Y-137123173I-684001J-1534993D01*
G01*
X128823800Y-140338600D02*
G75*
G03*
X129507118Y-140193356I1J1679992D01*
G01*
X128139800Y-140193600D02*
G75*
G03*
X128852605Y-140338853I683999J1535001D01*
G01*
X130358800Y-139342600D02*
G75*
G03*
X130359227Y-137975558I-1534993J684001D01*
G01*
X127288800Y-137974600D02*
G75*
G03*
X127288373Y-139341642I1534993J-684001D01*
G01*
X135583800Y-138658600D02*
G75*
G03*
X135583800Y-138658600I-1680000J0D01*
G01*
X140663800Y-138658600D02*
G75*
G03*
X140663800Y-138658600I-1680000J0D01*
G01*
%TO.C,R9*%
X209676400Y-100286800D02*
X209676400Y-95546800D01*
X197536400Y-95546800D02*
X197536400Y-100286800D01*
X209676400Y-95546800D02*
X197536400Y-95546800D01*
X197426400Y-97916800D02*
X197536400Y-97916800D01*
X209786400Y-97916800D02*
X209676400Y-97916800D01*
X197536400Y-100286800D02*
X209676400Y-100286800D01*
%TO.C,U1*%
X172556400Y-103624800D02*
X172556400Y-101974800D01*
X154656400Y-103624800D02*
X172556400Y-103624800D01*
X172556400Y-99974800D02*
X172556400Y-98324800D01*
X172556400Y-98324800D02*
X154656400Y-98324800D01*
X154656400Y-98324800D02*
X154656400Y-103624800D01*
X172556400Y-99974800D02*
G75*
G03*
X172556400Y-101974800I0J-1000000D01*
G01*
%TO.C,Q4*%
X167009200Y-115048200D02*
X167009200Y-116558200D01*
X173979200Y-115048200D02*
X173979200Y-119689200D01*
X163739200Y-116558200D02*
X173979200Y-116558200D01*
X170710200Y-115048200D02*
X170710200Y-116558200D01*
X163739200Y-115048200D02*
X173979200Y-115048200D01*
X163739200Y-115048200D02*
X163739200Y-119689200D01*
X163739200Y-119689200D02*
X173979200Y-119689200D01*
%TO.C,RV4*%
X206132200Y-136357600D02*
X221492200Y-136357600D01*
X217858200Y-139897600D02*
X217823200Y-139932600D01*
X214882200Y-137383600D02*
X214847200Y-137419600D01*
X220167200Y-137589600D02*
X220120200Y-137635600D01*
X212585200Y-139681600D02*
X212538200Y-139727600D01*
X215087200Y-137589600D02*
X215040200Y-137635600D01*
X206132200Y-142758600D02*
X221492200Y-142758600D01*
X205892200Y-143558600D02*
X206392200Y-143558600D01*
X219962200Y-137383600D02*
X219927200Y-137419600D01*
X212778200Y-139897600D02*
X212743200Y-139932600D01*
X206132200Y-143318600D02*
X221492200Y-143318600D01*
X221492200Y-133397600D02*
X221492200Y-143318600D01*
X206132200Y-133397600D02*
X206132200Y-143318600D01*
X205892200Y-142818600D02*
X205892200Y-143558600D01*
X206132200Y-141258600D02*
X221492200Y-141258600D01*
X206132200Y-133397600D02*
X221492200Y-133397600D01*
X217665200Y-139681600D02*
X217618200Y-139727600D01*
X210267200Y-139342600D02*
G75*
G03*
X210267627Y-137975558I-1534993J684001D01*
G01*
X209416200Y-137123600D02*
G75*
G03*
X208049158Y-137123173I-684001J-1534993D01*
G01*
X208048200Y-140193600D02*
G75*
G03*
X208761005Y-140338853I683999J1535001D01*
G01*
X207197200Y-137974600D02*
G75*
G03*
X207196773Y-139341642I1534993J-684001D01*
G01*
X208732200Y-140338600D02*
G75*
G03*
X209415518Y-140193356I1J1679992D01*
G01*
X220572200Y-138658600D02*
G75*
G03*
X220572200Y-138658600I-1680000J0D01*
G01*
X215492200Y-138658600D02*
G75*
G03*
X215492200Y-138658600I-1680000J0D01*
G01*
%TD*%
M02*
