M48
; DRILL file {KiCad (6.0.0-0)} date Tuesday, February 22, 2022 at 06:35:42 PM
; FORMAT={-:-/ absolute / metric / decimal}
; #@! TF.CreationDate,2022-02-22T18:35:42-05:00
; #@! TF.GenerationSoftware,Kicad,Pcbnew,(6.0.0-0)
; #@! TF.FileFunction,MixedPlating,1,2
FMAT,2
METRIC
; #@! TA.AperFunction,Plated,PTH,ComponentDrill
T1C0.800
; #@! TA.AperFunction,Plated,PTH,ComponentDrill
T2C1.100
; #@! TA.AperFunction,Plated,PTH,ComponentDrill
T3C1.200
; #@! TA.AperFunction,Plated,PTH,ComponentDrill
T4C1.300
; #@! TA.AperFunction,NonPlated,NPTH,ComponentDrill
T5C2.200
%
G90
G05
T1
X155.986Y-97.165
X155.986Y-104.785
X158.526Y-97.165
X158.526Y-104.785
X161.066Y-97.165
X161.066Y-104.785
X163.606Y-97.165
X163.606Y-104.785
X164.764Y-127.127
X166.146Y-97.165
X166.146Y-104.785
X167.264Y-127.127
X168.32Y-70.104
X168.686Y-97.165
X168.686Y-104.785
X170.82Y-70.104
X171.226Y-97.165
X171.226Y-104.785
X182.26Y-117.018
X184.76Y-117.018
X190.779Y-70.104
X193.279Y-70.104
T2
X166.319Y-118.318
X167.919Y-79.573
X168.859Y-118.318
X170.459Y-79.573
X171.399Y-118.318
X172.999Y-79.573
X180.899Y-127.818
X183.439Y-127.818
X185.979Y-127.818
X193.446Y-79.573
X195.986Y-79.573
X198.526Y-79.573
X222.275Y-89.662
X224.815Y-89.662
X227.355Y-89.662
T3
X121.514Y-124.384
X121.564Y-115.849
X122.072Y-69.977
X122.072Y-79.502
X136.754Y-124.384
X136.804Y-115.849
X137.312Y-69.977
X137.312Y-79.502
X142.342Y-116.002
X142.443Y-124.384
X144.424Y-70.104
X144.424Y-79.629
X157.582Y-116.002
X157.683Y-124.384
X159.664Y-70.104
X159.664Y-79.629
X191.77Y-117.83
X191.872Y-127.025
X195.986Y-89.662
X195.986Y-97.917
X206.146Y-69.977
X206.146Y-79.502
X207.01Y-117.83
X207.112Y-127.025
X211.226Y-89.662
X211.226Y-97.917
X213.157Y-117.932
X213.462Y-126.974
X221.386Y-69.977
X221.386Y-79.502
X227.736Y-69.977
X227.736Y-79.502
X228.397Y-117.932
X228.702Y-126.974
X242.976Y-69.977
X242.976Y-79.502
T4
X128.427Y-58.242
X128.824Y-138.659
X133.507Y-58.242
X133.904Y-138.659
X138.587Y-58.242
X138.984Y-138.659
X208.732Y-138.659
X213.812Y-138.659
X218.892Y-138.659
X222.656Y-58.801
X227.736Y-58.801
X232.816Y-58.801
X237.185Y-103.637
X237.185Y-108.717
X237.312Y-117.729
X237.312Y-122.809
X237.312Y-127.889
X237.312Y-132.969
T5
X121.209Y-149.326
X121.26Y-54.28
X250.901Y-148.717
X251.257Y-54.026
T0
M30
