%TF.GenerationSoftware,KiCad,Pcbnew,(6.0.0-0)*%
%TF.CreationDate,2022-02-22T13:50:16-05:00*%
%TF.ProjectId,lm224-3lows-1hi,6c6d3232-342d-4336-9c6f-77732d316869,rev?*%
%TF.SameCoordinates,Original*%
%TF.FileFunction,Legend,Top*%
%TF.FilePolarity,Positive*%
%FSLAX46Y46*%
G04 Gerber Fmt 4.6, Leading zero omitted, Abs format (unit mm)*
G04 Created by KiCad (PCBNEW (6.0.0-0)) date 2022-02-22 13:50:16*
%MOMM*%
%LPD*%
G01*
G04 APERTURE LIST*
%ADD10C,0.300000*%
%ADD11C,0.150000*%
%ADD12C,0.120000*%
G04 APERTURE END LIST*
D10*
X159267828Y-88460971D02*
X158410685Y-88460971D01*
X158839257Y-88460971D02*
X158839257Y-86960971D01*
X158696400Y-87175257D01*
X158553542Y-87318114D01*
X158410685Y-87389542D01*
X159839257Y-87103828D02*
X159910685Y-87032400D01*
X160053542Y-86960971D01*
X160410685Y-86960971D01*
X160553542Y-87032400D01*
X160624971Y-87103828D01*
X160696400Y-87246685D01*
X160696400Y-87389542D01*
X160624971Y-87603828D01*
X159767828Y-88460971D01*
X160696400Y-88460971D01*
X161124971Y-86960971D02*
X161624971Y-88460971D01*
X162124971Y-86960971D01*
X162624971Y-88460971D02*
X162624971Y-86960971D01*
X162982114Y-86960971D01*
X163196400Y-87032400D01*
X163339257Y-87175257D01*
X163410685Y-87318114D01*
X163482114Y-87603828D01*
X163482114Y-87818114D01*
X163410685Y-88103828D01*
X163339257Y-88246685D01*
X163196400Y-88389542D01*
X162982114Y-88460971D01*
X162624971Y-88460971D01*
X164982114Y-88318114D02*
X164910685Y-88389542D01*
X164696400Y-88460971D01*
X164553542Y-88460971D01*
X164339257Y-88389542D01*
X164196400Y-88246685D01*
X164124971Y-88103828D01*
X164053542Y-87818114D01*
X164053542Y-87603828D01*
X164124971Y-87318114D01*
X164196400Y-87175257D01*
X164339257Y-87032400D01*
X164553542Y-86960971D01*
X164696400Y-86960971D01*
X164910685Y-87032400D01*
X164982114Y-87103828D01*
X239176228Y-88460971D02*
X238319085Y-88460971D01*
X238747657Y-88460971D02*
X238747657Y-86960971D01*
X238604800Y-87175257D01*
X238461942Y-87318114D01*
X238319085Y-87389542D01*
X239747657Y-87103828D02*
X239819085Y-87032400D01*
X239961942Y-86960971D01*
X240319085Y-86960971D01*
X240461942Y-87032400D01*
X240533371Y-87103828D01*
X240604800Y-87246685D01*
X240604800Y-87389542D01*
X240533371Y-87603828D01*
X239676228Y-88460971D01*
X240604800Y-88460971D01*
X241033371Y-86960971D02*
X241533371Y-88460971D01*
X242033371Y-86960971D01*
X242533371Y-88460971D02*
X242533371Y-86960971D01*
X242890514Y-86960971D01*
X243104800Y-87032400D01*
X243247657Y-87175257D01*
X243319085Y-87318114D01*
X243390514Y-87603828D01*
X243390514Y-87818114D01*
X243319085Y-88103828D01*
X243247657Y-88246685D01*
X243104800Y-88389542D01*
X242890514Y-88460971D01*
X242533371Y-88460971D01*
X244890514Y-88318114D02*
X244819085Y-88389542D01*
X244604800Y-88460971D01*
X244461942Y-88460971D01*
X244247657Y-88389542D01*
X244104800Y-88246685D01*
X244033371Y-88103828D01*
X243961942Y-87818114D01*
X243961942Y-87603828D01*
X244033371Y-87318114D01*
X244104800Y-87175257D01*
X244247657Y-87032400D01*
X244461942Y-86960971D01*
X244604800Y-86960971D01*
X244819085Y-87032400D01*
X244890514Y-87103828D01*
X264083942Y-87235600D02*
X263941085Y-87164171D01*
X263726800Y-87164171D01*
X263512514Y-87235600D01*
X263369657Y-87378457D01*
X263298228Y-87521314D01*
X263226800Y-87807028D01*
X263226800Y-88021314D01*
X263298228Y-88307028D01*
X263369657Y-88449885D01*
X263512514Y-88592742D01*
X263726800Y-88664171D01*
X263869657Y-88664171D01*
X264083942Y-88592742D01*
X264155371Y-88521314D01*
X264155371Y-88021314D01*
X263869657Y-88021314D01*
X264798228Y-88664171D02*
X264798228Y-87164171D01*
X265655371Y-88664171D01*
X265655371Y-87164171D01*
X266369657Y-88664171D02*
X266369657Y-87164171D01*
X266726800Y-87164171D01*
X266941085Y-87235600D01*
X267083942Y-87378457D01*
X267155371Y-87521314D01*
X267226800Y-87807028D01*
X267226800Y-88021314D01*
X267155371Y-88307028D01*
X267083942Y-88449885D01*
X266941085Y-88592742D01*
X266726800Y-88664171D01*
X266369657Y-88664171D01*
X183972342Y-87134000D02*
X183829485Y-87062571D01*
X183615200Y-87062571D01*
X183400914Y-87134000D01*
X183258057Y-87276857D01*
X183186628Y-87419714D01*
X183115200Y-87705428D01*
X183115200Y-87919714D01*
X183186628Y-88205428D01*
X183258057Y-88348285D01*
X183400914Y-88491142D01*
X183615200Y-88562571D01*
X183758057Y-88562571D01*
X183972342Y-88491142D01*
X184043771Y-88419714D01*
X184043771Y-87919714D01*
X183758057Y-87919714D01*
X184686628Y-88562571D02*
X184686628Y-87062571D01*
X185543771Y-88562571D01*
X185543771Y-87062571D01*
X186258057Y-88562571D02*
X186258057Y-87062571D01*
X186615200Y-87062571D01*
X186829485Y-87134000D01*
X186972342Y-87276857D01*
X187043771Y-87419714D01*
X187115200Y-87705428D01*
X187115200Y-87919714D01*
X187043771Y-88205428D01*
X186972342Y-88348285D01*
X186829485Y-88491142D01*
X186615200Y-88562571D01*
X186258057Y-88562571D01*
X160909142Y-6666800D02*
X160766285Y-6595371D01*
X160552000Y-6595371D01*
X160337714Y-6666800D01*
X160194857Y-6809657D01*
X160123428Y-6952514D01*
X160052000Y-7238228D01*
X160052000Y-7452514D01*
X160123428Y-7738228D01*
X160194857Y-7881085D01*
X160337714Y-8023942D01*
X160552000Y-8095371D01*
X160694857Y-8095371D01*
X160909142Y-8023942D01*
X160980571Y-7952514D01*
X160980571Y-7452514D01*
X160694857Y-7452514D01*
X161623428Y-8095371D02*
X161623428Y-6595371D01*
X162480571Y-8095371D01*
X162480571Y-6595371D01*
X163194857Y-8095371D02*
X163194857Y-6595371D01*
X163552000Y-6595371D01*
X163766285Y-6666800D01*
X163909142Y-6809657D01*
X163980571Y-6952514D01*
X164052000Y-7238228D01*
X164052000Y-7452514D01*
X163980571Y-7738228D01*
X163909142Y-7881085D01*
X163766285Y-8023942D01*
X163552000Y-8095371D01*
X163194857Y-8095371D01*
X183397828Y-8044571D02*
X182540685Y-8044571D01*
X182969257Y-8044571D02*
X182969257Y-6544571D01*
X182826400Y-6758857D01*
X182683542Y-6901714D01*
X182540685Y-6973142D01*
X183969257Y-6687428D02*
X184040685Y-6616000D01*
X184183542Y-6544571D01*
X184540685Y-6544571D01*
X184683542Y-6616000D01*
X184754971Y-6687428D01*
X184826400Y-6830285D01*
X184826400Y-6973142D01*
X184754971Y-7187428D01*
X183897828Y-8044571D01*
X184826400Y-8044571D01*
X185254971Y-6544571D02*
X185754971Y-8044571D01*
X186254971Y-6544571D01*
X186754971Y-8044571D02*
X186754971Y-6544571D01*
X187112114Y-6544571D01*
X187326400Y-6616000D01*
X187469257Y-6758857D01*
X187540685Y-6901714D01*
X187612114Y-7187428D01*
X187612114Y-7401714D01*
X187540685Y-7687428D01*
X187469257Y-7830285D01*
X187326400Y-7973142D01*
X187112114Y-8044571D01*
X186754971Y-8044571D01*
X189112114Y-7901714D02*
X189040685Y-7973142D01*
X188826400Y-8044571D01*
X188683542Y-8044571D01*
X188469257Y-7973142D01*
X188326400Y-7830285D01*
X188254971Y-7687428D01*
X188183542Y-7401714D01*
X188183542Y-7187428D01*
X188254971Y-6901714D01*
X188326400Y-6758857D01*
X188469257Y-6616000D01*
X188683542Y-6544571D01*
X188826400Y-6544571D01*
X189040685Y-6616000D01*
X189112114Y-6687428D01*
X254330342Y-6971600D02*
X254187485Y-6900171D01*
X253973200Y-6900171D01*
X253758914Y-6971600D01*
X253616057Y-7114457D01*
X253544628Y-7257314D01*
X253473200Y-7543028D01*
X253473200Y-7757314D01*
X253544628Y-8043028D01*
X253616057Y-8185885D01*
X253758914Y-8328742D01*
X253973200Y-8400171D01*
X254116057Y-8400171D01*
X254330342Y-8328742D01*
X254401771Y-8257314D01*
X254401771Y-7757314D01*
X254116057Y-7757314D01*
X255044628Y-8400171D02*
X255044628Y-6900171D01*
X255901771Y-8400171D01*
X255901771Y-6900171D01*
X256616057Y-8400171D02*
X256616057Y-6900171D01*
X256973200Y-6900171D01*
X257187485Y-6971600D01*
X257330342Y-7114457D01*
X257401771Y-7257314D01*
X257473200Y-7543028D01*
X257473200Y-7757314D01*
X257401771Y-8043028D01*
X257330342Y-8185885D01*
X257187485Y-8328742D01*
X256973200Y-8400171D01*
X256616057Y-8400171D01*
X278139828Y-8450971D02*
X277282685Y-8450971D01*
X277711257Y-8450971D02*
X277711257Y-6950971D01*
X277568400Y-7165257D01*
X277425542Y-7308114D01*
X277282685Y-7379542D01*
X278711257Y-7093828D02*
X278782685Y-7022400D01*
X278925542Y-6950971D01*
X279282685Y-6950971D01*
X279425542Y-7022400D01*
X279496971Y-7093828D01*
X279568400Y-7236685D01*
X279568400Y-7379542D01*
X279496971Y-7593828D01*
X278639828Y-8450971D01*
X279568400Y-8450971D01*
X279996971Y-6950971D02*
X280496971Y-8450971D01*
X280996971Y-6950971D01*
X281496971Y-8450971D02*
X281496971Y-6950971D01*
X281854114Y-6950971D01*
X282068400Y-7022400D01*
X282211257Y-7165257D01*
X282282685Y-7308114D01*
X282354114Y-7593828D01*
X282354114Y-7808114D01*
X282282685Y-8093828D01*
X282211257Y-8236685D01*
X282068400Y-8379542D01*
X281854114Y-8450971D01*
X281496971Y-8450971D01*
X283854114Y-8308114D02*
X283782685Y-8379542D01*
X283568400Y-8450971D01*
X283425542Y-8450971D01*
X283211257Y-8379542D01*
X283068400Y-8236685D01*
X282996971Y-8093828D01*
X282925542Y-7808114D01*
X282925542Y-7593828D01*
X282996971Y-7308114D01*
X283068400Y-7165257D01*
X283211257Y-7022400D01*
X283425542Y-6950971D01*
X283568400Y-6950971D01*
X283782685Y-7022400D01*
X283854114Y-7093828D01*
X284009828Y-65950400D02*
X283866971Y-65878971D01*
X283652685Y-65878971D01*
X283438400Y-65950400D01*
X283295542Y-66093257D01*
X283224114Y-66236114D01*
X283152685Y-66521828D01*
X283152685Y-66736114D01*
X283224114Y-67021828D01*
X283295542Y-67164685D01*
X283438400Y-67307542D01*
X283652685Y-67378971D01*
X283795542Y-67378971D01*
X284009828Y-67307542D01*
X284081257Y-67236114D01*
X284081257Y-66736114D01*
X283795542Y-66736114D01*
X284724114Y-67378971D02*
X284724114Y-65878971D01*
X285581257Y-67378971D01*
X285581257Y-65878971D01*
X286295542Y-67378971D02*
X286295542Y-65878971D01*
X286652685Y-65878971D01*
X286866971Y-65950400D01*
X287009828Y-66093257D01*
X287081257Y-66236114D01*
X287152685Y-66521828D01*
X287152685Y-66736114D01*
X287081257Y-67021828D01*
X287009828Y-67164685D01*
X286866971Y-67307542D01*
X286652685Y-67378971D01*
X286295542Y-67378971D01*
X289438400Y-66593257D02*
X289652685Y-66664685D01*
X289724114Y-66736114D01*
X289795542Y-66878971D01*
X289795542Y-67093257D01*
X289724114Y-67236114D01*
X289652685Y-67307542D01*
X289509828Y-67378971D01*
X288938400Y-67378971D01*
X288938400Y-65878971D01*
X289438400Y-65878971D01*
X289581257Y-65950400D01*
X289652685Y-66021828D01*
X289724114Y-66164685D01*
X289724114Y-66307542D01*
X289652685Y-66450400D01*
X289581257Y-66521828D01*
X289438400Y-66593257D01*
X288938400Y-66593257D01*
X290652685Y-67378971D02*
X290509828Y-67307542D01*
X290438400Y-67164685D01*
X290438400Y-65878971D01*
X291866971Y-66378971D02*
X291866971Y-67378971D01*
X291224114Y-66378971D02*
X291224114Y-67164685D01*
X291295542Y-67307542D01*
X291438400Y-67378971D01*
X291652685Y-67378971D01*
X291795542Y-67307542D01*
X291866971Y-67236114D01*
X293152685Y-67307542D02*
X293009828Y-67378971D01*
X292724114Y-67378971D01*
X292581257Y-67307542D01*
X292509828Y-67164685D01*
X292509828Y-66593257D01*
X292581257Y-66450400D01*
X292724114Y-66378971D01*
X293009828Y-66378971D01*
X293152685Y-66450400D01*
X293224114Y-66593257D01*
X293224114Y-66736114D01*
X292509828Y-66878971D01*
X284057542Y-70878000D02*
X283914685Y-70806571D01*
X283700400Y-70806571D01*
X283486114Y-70878000D01*
X283343257Y-71020857D01*
X283271828Y-71163714D01*
X283200400Y-71449428D01*
X283200400Y-71663714D01*
X283271828Y-71949428D01*
X283343257Y-72092285D01*
X283486114Y-72235142D01*
X283700400Y-72306571D01*
X283843257Y-72306571D01*
X284057542Y-72235142D01*
X284128971Y-72163714D01*
X284128971Y-71663714D01*
X283843257Y-71663714D01*
X284771828Y-72306571D02*
X284771828Y-70806571D01*
X285628971Y-72306571D01*
X285628971Y-70806571D01*
X286343257Y-72306571D02*
X286343257Y-70806571D01*
X286700400Y-70806571D01*
X286914685Y-70878000D01*
X287057542Y-71020857D01*
X287128971Y-71163714D01*
X287200400Y-71449428D01*
X287200400Y-71663714D01*
X287128971Y-71949428D01*
X287057542Y-72092285D01*
X286914685Y-72235142D01*
X286700400Y-72306571D01*
X286343257Y-72306571D01*
X289771828Y-70878000D02*
X289628971Y-70806571D01*
X289414685Y-70806571D01*
X289200400Y-70878000D01*
X289057542Y-71020857D01*
X288986114Y-71163714D01*
X288914685Y-71449428D01*
X288914685Y-71663714D01*
X288986114Y-71949428D01*
X289057542Y-72092285D01*
X289200400Y-72235142D01*
X289414685Y-72306571D01*
X289557542Y-72306571D01*
X289771828Y-72235142D01*
X289843257Y-72163714D01*
X289843257Y-71663714D01*
X289557542Y-71663714D01*
X290486114Y-72306571D02*
X290486114Y-71306571D01*
X290486114Y-71592285D02*
X290557542Y-71449428D01*
X290628971Y-71378000D01*
X290771828Y-71306571D01*
X290914685Y-71306571D01*
X291986114Y-72235142D02*
X291843257Y-72306571D01*
X291557542Y-72306571D01*
X291414685Y-72235142D01*
X291343257Y-72092285D01*
X291343257Y-71520857D01*
X291414685Y-71378000D01*
X291557542Y-71306571D01*
X291843257Y-71306571D01*
X291986114Y-71378000D01*
X292057542Y-71520857D01*
X292057542Y-71663714D01*
X291343257Y-71806571D01*
X293271828Y-72235142D02*
X293128971Y-72306571D01*
X292843257Y-72306571D01*
X292700400Y-72235142D01*
X292628971Y-72092285D01*
X292628971Y-71520857D01*
X292700400Y-71378000D01*
X292843257Y-71306571D01*
X293128971Y-71306571D01*
X293271828Y-71378000D01*
X293343257Y-71520857D01*
X293343257Y-71663714D01*
X292628971Y-71806571D01*
X293986114Y-71306571D02*
X293986114Y-72306571D01*
X293986114Y-71449428D02*
X294057542Y-71378000D01*
X294200400Y-71306571D01*
X294414685Y-71306571D01*
X294557542Y-71378000D01*
X294628971Y-71520857D01*
X294628971Y-72306571D01*
X284199485Y-76161200D02*
X284056628Y-76089771D01*
X283842342Y-76089771D01*
X283628057Y-76161200D01*
X283485200Y-76304057D01*
X283413771Y-76446914D01*
X283342342Y-76732628D01*
X283342342Y-76946914D01*
X283413771Y-77232628D01*
X283485200Y-77375485D01*
X283628057Y-77518342D01*
X283842342Y-77589771D01*
X283985200Y-77589771D01*
X284199485Y-77518342D01*
X284270914Y-77446914D01*
X284270914Y-76946914D01*
X283985200Y-76946914D01*
X284913771Y-77589771D02*
X284913771Y-76089771D01*
X285770914Y-77589771D01*
X285770914Y-76089771D01*
X286485200Y-77589771D02*
X286485200Y-76089771D01*
X286842342Y-76089771D01*
X287056628Y-76161200D01*
X287199485Y-76304057D01*
X287270914Y-76446914D01*
X287342342Y-76732628D01*
X287342342Y-76946914D01*
X287270914Y-77232628D01*
X287199485Y-77375485D01*
X287056628Y-77518342D01*
X286842342Y-77589771D01*
X286485200Y-77589771D01*
X289985200Y-77589771D02*
X289485200Y-76875485D01*
X289128057Y-77589771D02*
X289128057Y-76089771D01*
X289699485Y-76089771D01*
X289842342Y-76161200D01*
X289913771Y-76232628D01*
X289985200Y-76375485D01*
X289985200Y-76589771D01*
X289913771Y-76732628D01*
X289842342Y-76804057D01*
X289699485Y-76875485D01*
X289128057Y-76875485D01*
X291199485Y-77518342D02*
X291056628Y-77589771D01*
X290770914Y-77589771D01*
X290628057Y-77518342D01*
X290556628Y-77375485D01*
X290556628Y-76804057D01*
X290628057Y-76661200D01*
X290770914Y-76589771D01*
X291056628Y-76589771D01*
X291199485Y-76661200D01*
X291270914Y-76804057D01*
X291270914Y-76946914D01*
X290556628Y-77089771D01*
X292556628Y-77589771D02*
X292556628Y-76089771D01*
X292556628Y-77518342D02*
X292413771Y-77589771D01*
X292128057Y-77589771D01*
X291985200Y-77518342D01*
X291913771Y-77446914D01*
X291842342Y-77304057D01*
X291842342Y-76875485D01*
X291913771Y-76732628D01*
X291985200Y-76661200D01*
X292128057Y-76589771D01*
X292413771Y-76589771D01*
X292556628Y-76661200D01*
X284215485Y-82771371D02*
X283358342Y-82771371D01*
X283786914Y-82771371D02*
X283786914Y-81271371D01*
X283644057Y-81485657D01*
X283501200Y-81628514D01*
X283358342Y-81699942D01*
X284786914Y-81414228D02*
X284858342Y-81342800D01*
X285001200Y-81271371D01*
X285358342Y-81271371D01*
X285501200Y-81342800D01*
X285572628Y-81414228D01*
X285644057Y-81557085D01*
X285644057Y-81699942D01*
X285572628Y-81914228D01*
X284715485Y-82771371D01*
X285644057Y-82771371D01*
X286072628Y-81271371D02*
X286572628Y-82771371D01*
X287072628Y-81271371D01*
X287572628Y-82771371D02*
X287572628Y-81271371D01*
X287929771Y-81271371D01*
X288144057Y-81342800D01*
X288286914Y-81485657D01*
X288358342Y-81628514D01*
X288429771Y-81914228D01*
X288429771Y-82128514D01*
X288358342Y-82414228D01*
X288286914Y-82557085D01*
X288144057Y-82699942D01*
X287929771Y-82771371D01*
X287572628Y-82771371D01*
X289929771Y-82628514D02*
X289858342Y-82699942D01*
X289644057Y-82771371D01*
X289501200Y-82771371D01*
X289286914Y-82699942D01*
X289144057Y-82557085D01*
X289072628Y-82414228D01*
X289001200Y-82128514D01*
X289001200Y-81914228D01*
X289072628Y-81628514D01*
X289144057Y-81485657D01*
X289286914Y-81342800D01*
X289501200Y-81271371D01*
X289644057Y-81271371D01*
X289858342Y-81342800D01*
X289929771Y-81414228D01*
X291929771Y-82771371D02*
X291786914Y-82699942D01*
X291715485Y-82628514D01*
X291644057Y-82485657D01*
X291644057Y-82057085D01*
X291715485Y-81914228D01*
X291786914Y-81842800D01*
X291929771Y-81771371D01*
X292144057Y-81771371D01*
X292286914Y-81842800D01*
X292358342Y-81914228D01*
X292429771Y-82057085D01*
X292429771Y-82485657D01*
X292358342Y-82628514D01*
X292286914Y-82699942D01*
X292144057Y-82771371D01*
X291929771Y-82771371D01*
X293715485Y-81771371D02*
X293715485Y-82771371D01*
X293072628Y-81771371D02*
X293072628Y-82557085D01*
X293144057Y-82699942D01*
X293286914Y-82771371D01*
X293501200Y-82771371D01*
X293644057Y-82699942D01*
X293715485Y-82628514D01*
X294215485Y-81771371D02*
X294786914Y-81771371D01*
X294429771Y-81271371D02*
X294429771Y-82557085D01*
X294501200Y-82699942D01*
X294644057Y-82771371D01*
X294786914Y-82771371D01*
X286232742Y-57416000D02*
X286089885Y-57344571D01*
X285875600Y-57344571D01*
X285661314Y-57416000D01*
X285518457Y-57558857D01*
X285447028Y-57701714D01*
X285375600Y-57987428D01*
X285375600Y-58201714D01*
X285447028Y-58487428D01*
X285518457Y-58630285D01*
X285661314Y-58773142D01*
X285875600Y-58844571D01*
X286018457Y-58844571D01*
X286232742Y-58773142D01*
X286304171Y-58701714D01*
X286304171Y-58201714D01*
X286018457Y-58201714D01*
X286947028Y-58844571D02*
X286947028Y-57344571D01*
X287804171Y-58844571D01*
X287804171Y-57344571D01*
X288518457Y-58844571D02*
X288518457Y-57344571D01*
X288875600Y-57344571D01*
X289089885Y-57416000D01*
X289232742Y-57558857D01*
X289304171Y-57701714D01*
X289375600Y-57987428D01*
X289375600Y-58201714D01*
X289304171Y-58487428D01*
X289232742Y-58630285D01*
X289089885Y-58773142D01*
X288875600Y-58844571D01*
X288518457Y-58844571D01*
X283537542Y-52786742D02*
X284680400Y-52786742D01*
X284108971Y-53358171D02*
X284108971Y-52215314D01*
X286180400Y-53358171D02*
X285323257Y-53358171D01*
X285751828Y-53358171D02*
X285751828Y-51858171D01*
X285608971Y-52072457D01*
X285466114Y-52215314D01*
X285323257Y-52286742D01*
X286751828Y-52001028D02*
X286823257Y-51929600D01*
X286966114Y-51858171D01*
X287323257Y-51858171D01*
X287466114Y-51929600D01*
X287537542Y-52001028D01*
X287608971Y-52143885D01*
X287608971Y-52286742D01*
X287537542Y-52501028D01*
X286680400Y-53358171D01*
X287608971Y-53358171D01*
X288037542Y-51858171D02*
X288537542Y-53358171D01*
X289037542Y-51858171D01*
X289537542Y-53358171D02*
X289537542Y-51858171D01*
X289894685Y-51858171D01*
X290108971Y-51929600D01*
X290251828Y-52072457D01*
X290323257Y-52215314D01*
X290394685Y-52501028D01*
X290394685Y-52715314D01*
X290323257Y-53001028D01*
X290251828Y-53143885D01*
X290108971Y-53286742D01*
X289894685Y-53358171D01*
X289537542Y-53358171D01*
X291894685Y-53215314D02*
X291823257Y-53286742D01*
X291608971Y-53358171D01*
X291466114Y-53358171D01*
X291251828Y-53286742D01*
X291108971Y-53143885D01*
X291037542Y-53001028D01*
X290966114Y-52715314D01*
X290966114Y-52501028D01*
X291037542Y-52215314D01*
X291108971Y-52072457D01*
X291251828Y-51929600D01*
X291466114Y-51858171D01*
X291608971Y-51858171D01*
X291823257Y-51929600D01*
X291894685Y-52001028D01*
X202399028Y-4235800D02*
X203113314Y-4235800D01*
X202256171Y-4664371D02*
X202756171Y-3164371D01*
X203256171Y-4664371D01*
X203756171Y-3664371D02*
X203756171Y-4664371D01*
X203756171Y-3807228D02*
X203827599Y-3735800D01*
X203970457Y-3664371D01*
X204184742Y-3664371D01*
X204327599Y-3735800D01*
X204399028Y-3878657D01*
X204399028Y-4664371D01*
X205756171Y-4664371D02*
X205756171Y-3878657D01*
X205684742Y-3735800D01*
X205541885Y-3664371D01*
X205256171Y-3664371D01*
X205113314Y-3735800D01*
X205756171Y-4592942D02*
X205613314Y-4664371D01*
X205256171Y-4664371D01*
X205113314Y-4592942D01*
X205041885Y-4450085D01*
X205041885Y-4307228D01*
X205113314Y-4164371D01*
X205256171Y-4092942D01*
X205613314Y-4092942D01*
X205756171Y-4021514D01*
X206684742Y-4664371D02*
X206541885Y-4592942D01*
X206470457Y-4450085D01*
X206470457Y-3164371D01*
X207470457Y-4664371D02*
X207327599Y-4592942D01*
X207256171Y-4521514D01*
X207184742Y-4378657D01*
X207184742Y-3950085D01*
X207256171Y-3807228D01*
X207327599Y-3735800D01*
X207470457Y-3664371D01*
X207684742Y-3664371D01*
X207827599Y-3735800D01*
X207899028Y-3807228D01*
X207970457Y-3950085D01*
X207970457Y-4378657D01*
X207899028Y-4521514D01*
X207827599Y-4592942D01*
X207684742Y-4664371D01*
X207470457Y-4664371D01*
X209256171Y-3664371D02*
X209256171Y-4878657D01*
X209184742Y-5021514D01*
X209113314Y-5092942D01*
X208970457Y-5164371D01*
X208756171Y-5164371D01*
X208613314Y-5092942D01*
X209256171Y-4592942D02*
X209113314Y-4664371D01*
X208827599Y-4664371D01*
X208684742Y-4592942D01*
X208613314Y-4521514D01*
X208541885Y-4378657D01*
X208541885Y-3950085D01*
X208613314Y-3807228D01*
X208684742Y-3735800D01*
X208827599Y-3664371D01*
X209113314Y-3664371D01*
X209256171Y-3735800D01*
X211827599Y-4664371D02*
X211113314Y-4664371D01*
X211113314Y-3164371D01*
X212327599Y-3878657D02*
X212827599Y-3878657D01*
X213041885Y-4664371D02*
X212327599Y-4664371D01*
X212327599Y-3164371D01*
X213041885Y-3164371D01*
X213684742Y-4664371D02*
X213684742Y-3164371D01*
X214041885Y-3164371D01*
X214256171Y-3235800D01*
X214399028Y-3378657D01*
X214470457Y-3521514D01*
X214541885Y-3807228D01*
X214541885Y-4021514D01*
X214470457Y-4307228D01*
X214399028Y-4450085D01*
X214256171Y-4592942D01*
X214041885Y-4664371D01*
X213684742Y-4664371D01*
X216256171Y-4592942D02*
X216470457Y-4664371D01*
X216827599Y-4664371D01*
X216970457Y-4592942D01*
X217041885Y-4521514D01*
X217113314Y-4378657D01*
X217113314Y-4235800D01*
X217041885Y-4092942D01*
X216970457Y-4021514D01*
X216827599Y-3950085D01*
X216541885Y-3878657D01*
X216399028Y-3807228D01*
X216327599Y-3735800D01*
X216256171Y-3592942D01*
X216256171Y-3450085D01*
X216327599Y-3307228D01*
X216399028Y-3235800D01*
X216541885Y-3164371D01*
X216899028Y-3164371D01*
X217113314Y-3235800D01*
X217541885Y-3664371D02*
X218113314Y-3664371D01*
X217756171Y-3164371D02*
X217756171Y-4450085D01*
X217827599Y-4592942D01*
X217970457Y-4664371D01*
X218113314Y-4664371D01*
X218613314Y-4664371D02*
X218613314Y-3664371D01*
X218613314Y-3950085D02*
X218684742Y-3807228D01*
X218756171Y-3735800D01*
X218899028Y-3664371D01*
X219041885Y-3664371D01*
X219541885Y-4664371D02*
X219541885Y-3664371D01*
X219541885Y-3164371D02*
X219470457Y-3235800D01*
X219541885Y-3307228D01*
X219613314Y-3235800D01*
X219541885Y-3164371D01*
X219541885Y-3307228D01*
X220256171Y-3664371D02*
X220256171Y-5164371D01*
X220256171Y-3735800D02*
X220399028Y-3664371D01*
X220684742Y-3664371D01*
X220827599Y-3735800D01*
X220899028Y-3807228D01*
X220970457Y-3950085D01*
X220970457Y-4378657D01*
X220899028Y-4521514D01*
X220827599Y-4592942D01*
X220684742Y-4664371D01*
X220399028Y-4664371D01*
X220256171Y-4592942D01*
X223613314Y-4521514D02*
X223541885Y-4592942D01*
X223327599Y-4664371D01*
X223184742Y-4664371D01*
X222970457Y-4592942D01*
X222827599Y-4450085D01*
X222756171Y-4307228D01*
X222684742Y-4021514D01*
X222684742Y-3807228D01*
X222756171Y-3521514D01*
X222827599Y-3378657D01*
X222970457Y-3235800D01*
X223184742Y-3164371D01*
X223327599Y-3164371D01*
X223541885Y-3235800D01*
X223613314Y-3307228D01*
X224470457Y-4664371D02*
X224327599Y-4592942D01*
X224256171Y-4521514D01*
X224184742Y-4378657D01*
X224184742Y-3950085D01*
X224256171Y-3807228D01*
X224327599Y-3735800D01*
X224470457Y-3664371D01*
X224684742Y-3664371D01*
X224827599Y-3735800D01*
X224899028Y-3807228D01*
X224970457Y-3950085D01*
X224970457Y-4378657D01*
X224899028Y-4521514D01*
X224827599Y-4592942D01*
X224684742Y-4664371D01*
X224470457Y-4664371D01*
X225613314Y-3664371D02*
X225613314Y-4664371D01*
X225613314Y-3807228D02*
X225684742Y-3735800D01*
X225827599Y-3664371D01*
X226041885Y-3664371D01*
X226184742Y-3735800D01*
X226256171Y-3878657D01*
X226256171Y-4664371D01*
X226756171Y-3664371D02*
X227327599Y-3664371D01*
X226970457Y-3164371D02*
X226970457Y-4450085D01*
X227041885Y-4592942D01*
X227184742Y-4664371D01*
X227327599Y-4664371D01*
X227827599Y-4664371D02*
X227827599Y-3664371D01*
X227827599Y-3950085D02*
X227899028Y-3807228D01*
X227970457Y-3735800D01*
X228113314Y-3664371D01*
X228256171Y-3664371D01*
X228970457Y-4664371D02*
X228827599Y-4592942D01*
X228756171Y-4521514D01*
X228684742Y-4378657D01*
X228684742Y-3950085D01*
X228756171Y-3807228D01*
X228827599Y-3735800D01*
X228970457Y-3664371D01*
X229184742Y-3664371D01*
X229327599Y-3735800D01*
X229399028Y-3807228D01*
X229470457Y-3950085D01*
X229470457Y-4378657D01*
X229399028Y-4521514D01*
X229327599Y-4592942D01*
X229184742Y-4664371D01*
X228970457Y-4664371D01*
X230327599Y-4664371D02*
X230184742Y-4592942D01*
X230113314Y-4450085D01*
X230113314Y-3164371D01*
X231113314Y-4664371D02*
X230970457Y-4592942D01*
X230899028Y-4450085D01*
X230899028Y-3164371D01*
X232256171Y-4592942D02*
X232113314Y-4664371D01*
X231827600Y-4664371D01*
X231684742Y-4592942D01*
X231613314Y-4450085D01*
X231613314Y-3878657D01*
X231684742Y-3735800D01*
X231827600Y-3664371D01*
X232113314Y-3664371D01*
X232256171Y-3735800D01*
X232327600Y-3878657D01*
X232327600Y-4021514D01*
X231613314Y-4164371D01*
X232970457Y-4664371D02*
X232970457Y-3664371D01*
X232970457Y-3950085D02*
X233041885Y-3807228D01*
X233113314Y-3735800D01*
X233256171Y-3664371D01*
X233399028Y-3664371D01*
X234827600Y-3164371D02*
X235327600Y-4664371D01*
X235827600Y-3164371D01*
X236613314Y-3164371D02*
X236756171Y-3164371D01*
X236899028Y-3235800D01*
X236970457Y-3307228D01*
X237041885Y-3450085D01*
X237113314Y-3735800D01*
X237113314Y-4092942D01*
X237041885Y-4378657D01*
X236970457Y-4521514D01*
X236899028Y-4592942D01*
X236756171Y-4664371D01*
X236613314Y-4664371D01*
X236470457Y-4592942D01*
X236399028Y-4521514D01*
X236327600Y-4378657D01*
X236256171Y-4092942D01*
X236256171Y-3735800D01*
X236327600Y-3450085D01*
X236399028Y-3307228D01*
X236470457Y-3235800D01*
X236613314Y-3164371D01*
X237756171Y-4521514D02*
X237827599Y-4592942D01*
X237756171Y-4664371D01*
X237684742Y-4592942D01*
X237756171Y-4521514D01*
X237756171Y-4664371D01*
X239256171Y-4664371D02*
X238399028Y-4664371D01*
X238827600Y-4664371D02*
X238827600Y-3164371D01*
X238684742Y-3378657D01*
X238541885Y-3521514D01*
X238399028Y-3592942D01*
X214291885Y-7079371D02*
X213791885Y-6365085D01*
X213434742Y-7079371D02*
X213434742Y-5579371D01*
X214006171Y-5579371D01*
X214149028Y-5650800D01*
X214220457Y-5722228D01*
X214291885Y-5865085D01*
X214291885Y-6079371D01*
X214220457Y-6222228D01*
X214149028Y-6293657D01*
X214006171Y-6365085D01*
X213434742Y-6365085D01*
X215577600Y-7079371D02*
X215577600Y-6293657D01*
X215506171Y-6150800D01*
X215363314Y-6079371D01*
X215077600Y-6079371D01*
X214934742Y-6150800D01*
X215577600Y-7007942D02*
X215434742Y-7079371D01*
X215077600Y-7079371D01*
X214934742Y-7007942D01*
X214863314Y-6865085D01*
X214863314Y-6722228D01*
X214934742Y-6579371D01*
X215077600Y-6507942D01*
X215434742Y-6507942D01*
X215577600Y-6436514D01*
X216291885Y-6079371D02*
X216291885Y-7079371D01*
X216291885Y-6222228D02*
X216363314Y-6150800D01*
X216506171Y-6079371D01*
X216720457Y-6079371D01*
X216863314Y-6150800D01*
X216934742Y-6293657D01*
X216934742Y-7079371D01*
X218291885Y-7079371D02*
X218291885Y-5579371D01*
X218291885Y-7007942D02*
X218149028Y-7079371D01*
X217863314Y-7079371D01*
X217720457Y-7007942D01*
X217649028Y-6936514D01*
X217577600Y-6793657D01*
X217577600Y-6365085D01*
X217649028Y-6222228D01*
X217720457Y-6150800D01*
X217863314Y-6079371D01*
X218149028Y-6079371D01*
X218291885Y-6150800D01*
X219649028Y-7079371D02*
X219649028Y-6293657D01*
X219577600Y-6150800D01*
X219434742Y-6079371D01*
X219149028Y-6079371D01*
X219006171Y-6150800D01*
X219649028Y-7007942D02*
X219506171Y-7079371D01*
X219149028Y-7079371D01*
X219006171Y-7007942D01*
X218934742Y-6865085D01*
X218934742Y-6722228D01*
X219006171Y-6579371D01*
X219149028Y-6507942D01*
X219506171Y-6507942D01*
X219649028Y-6436514D01*
X220577600Y-7079371D02*
X220434742Y-7007942D01*
X220363314Y-6865085D01*
X220363314Y-5579371D01*
X221363314Y-7079371D02*
X221220457Y-7007942D01*
X221149028Y-6865085D01*
X221149028Y-5579371D01*
X223006171Y-7007942D02*
X223220457Y-7079371D01*
X223577600Y-7079371D01*
X223720457Y-7007942D01*
X223791885Y-6936514D01*
X223863314Y-6793657D01*
X223863314Y-6650800D01*
X223791885Y-6507942D01*
X223720457Y-6436514D01*
X223577600Y-6365085D01*
X223291885Y-6293657D01*
X223149028Y-6222228D01*
X223077600Y-6150800D01*
X223006171Y-6007942D01*
X223006171Y-5865085D01*
X223077600Y-5722228D01*
X223149028Y-5650800D01*
X223291885Y-5579371D01*
X223649028Y-5579371D01*
X223863314Y-5650800D01*
X224506171Y-7079371D02*
X224506171Y-5579371D01*
X225149028Y-7079371D02*
X225149028Y-6293657D01*
X225077600Y-6150800D01*
X224934742Y-6079371D01*
X224720457Y-6079371D01*
X224577600Y-6150800D01*
X224506171Y-6222228D01*
X226506171Y-6079371D02*
X226506171Y-7079371D01*
X225863314Y-6079371D02*
X225863314Y-6865085D01*
X225934742Y-7007942D01*
X226077600Y-7079371D01*
X226291885Y-7079371D01*
X226434742Y-7007942D01*
X226506171Y-6936514D01*
X227006171Y-6079371D02*
X227577600Y-6079371D01*
X227220457Y-5579371D02*
X227220457Y-6865085D01*
X227291885Y-7007942D01*
X227434742Y-7079371D01*
X227577600Y-7079371D01*
X227863314Y-6079371D02*
X228434742Y-6079371D01*
X228077600Y-5579371D02*
X228077600Y-6865085D01*
X228149028Y-7007942D01*
X228291885Y-7079371D01*
X228434742Y-7079371D01*
X207827600Y-9494371D02*
X207827600Y-8494371D01*
X207827600Y-8780085D02*
X207899028Y-8637228D01*
X207970457Y-8565800D01*
X208113314Y-8494371D01*
X208256171Y-8494371D01*
X209399028Y-9494371D02*
X209399028Y-8708657D01*
X209327600Y-8565800D01*
X209184742Y-8494371D01*
X208899028Y-8494371D01*
X208756171Y-8565800D01*
X209399028Y-9422942D02*
X209256171Y-9494371D01*
X208899028Y-9494371D01*
X208756171Y-9422942D01*
X208684742Y-9280085D01*
X208684742Y-9137228D01*
X208756171Y-8994371D01*
X208899028Y-8922942D01*
X209256171Y-8922942D01*
X209399028Y-8851514D01*
X210113314Y-8494371D02*
X210113314Y-9494371D01*
X210113314Y-8637228D02*
X210184742Y-8565800D01*
X210327600Y-8494371D01*
X210541885Y-8494371D01*
X210684742Y-8565800D01*
X210756171Y-8708657D01*
X210756171Y-9494371D01*
X212113314Y-9494371D02*
X212113314Y-7994371D01*
X212113314Y-9422942D02*
X211970457Y-9494371D01*
X211684742Y-9494371D01*
X211541885Y-9422942D01*
X211470457Y-9351514D01*
X211399028Y-9208657D01*
X211399028Y-8780085D01*
X211470457Y-8637228D01*
X211541885Y-8565800D01*
X211684742Y-8494371D01*
X211970457Y-8494371D01*
X212113314Y-8565800D01*
X213470457Y-9494371D02*
X213470457Y-8708657D01*
X213399028Y-8565800D01*
X213256171Y-8494371D01*
X212970457Y-8494371D01*
X212827600Y-8565800D01*
X213470457Y-9422942D02*
X213327600Y-9494371D01*
X212970457Y-9494371D01*
X212827600Y-9422942D01*
X212756171Y-9280085D01*
X212756171Y-9137228D01*
X212827600Y-8994371D01*
X212970457Y-8922942D01*
X213327600Y-8922942D01*
X213470457Y-8851514D01*
X214399028Y-9494371D02*
X214256171Y-9422942D01*
X214184742Y-9280085D01*
X214184742Y-7994371D01*
X215184742Y-9494371D02*
X215041885Y-9422942D01*
X214970457Y-9280085D01*
X214970457Y-7994371D01*
X216684742Y-8780085D02*
X216613314Y-8708657D01*
X216470457Y-8637228D01*
X216327600Y-8637228D01*
X216184742Y-8708657D01*
X216113314Y-8780085D01*
X216041885Y-8922942D01*
X216041885Y-9065800D01*
X216113314Y-9208657D01*
X216184742Y-9280085D01*
X216327600Y-9351514D01*
X216470457Y-9351514D01*
X216613314Y-9280085D01*
X216684742Y-9208657D01*
X216684742Y-8637228D02*
X216684742Y-9208657D01*
X216756171Y-9280085D01*
X216827600Y-9280085D01*
X216970457Y-9208657D01*
X217041885Y-9065800D01*
X217041885Y-8708657D01*
X216899028Y-8494371D01*
X216684742Y-8351514D01*
X216399028Y-8280085D01*
X216113314Y-8351514D01*
X215899028Y-8494371D01*
X215756171Y-8708657D01*
X215684742Y-8994371D01*
X215756171Y-9280085D01*
X215899028Y-9494371D01*
X216113314Y-9637228D01*
X216399028Y-9708657D01*
X216684742Y-9637228D01*
X216899028Y-9494371D01*
X217684742Y-9494371D02*
X217684742Y-8494371D01*
X217684742Y-8780085D02*
X217756171Y-8637228D01*
X217827600Y-8565800D01*
X217970457Y-8494371D01*
X218113314Y-8494371D01*
X219256171Y-9494371D02*
X219256171Y-8708657D01*
X219184742Y-8565800D01*
X219041885Y-8494371D01*
X218756171Y-8494371D01*
X218613314Y-8565800D01*
X219256171Y-9422942D02*
X219113314Y-9494371D01*
X218756171Y-9494371D01*
X218613314Y-9422942D01*
X218541885Y-9280085D01*
X218541885Y-9137228D01*
X218613314Y-8994371D01*
X218756171Y-8922942D01*
X219113314Y-8922942D01*
X219256171Y-8851514D01*
X219970457Y-8494371D02*
X219970457Y-9494371D01*
X219970457Y-8637228D02*
X220041885Y-8565800D01*
X220184742Y-8494371D01*
X220399028Y-8494371D01*
X220541885Y-8565800D01*
X220613314Y-8708657D01*
X220613314Y-9494371D01*
X221970457Y-9494371D02*
X221970457Y-7994371D01*
X221970457Y-9422942D02*
X221827600Y-9494371D01*
X221541885Y-9494371D01*
X221399028Y-9422942D01*
X221327600Y-9351514D01*
X221256171Y-9208657D01*
X221256171Y-8780085D01*
X221327600Y-8637228D01*
X221399028Y-8565800D01*
X221541885Y-8494371D01*
X221827600Y-8494371D01*
X221970457Y-8565800D01*
X223327600Y-9494371D02*
X223327600Y-8708657D01*
X223256171Y-8565800D01*
X223113314Y-8494371D01*
X222827600Y-8494371D01*
X222684742Y-8565800D01*
X223327600Y-9422942D02*
X223184742Y-9494371D01*
X222827600Y-9494371D01*
X222684742Y-9422942D01*
X222613314Y-9280085D01*
X222613314Y-9137228D01*
X222684742Y-8994371D01*
X222827600Y-8922942D01*
X223184742Y-8922942D01*
X223327600Y-8851514D01*
X224256171Y-9494371D02*
X224113314Y-9422942D01*
X224041885Y-9280085D01*
X224041885Y-7994371D01*
X225041885Y-9494371D02*
X224899028Y-9422942D01*
X224827600Y-9280085D01*
X224827600Y-7994371D01*
X225613314Y-9494371D02*
X225613314Y-8494371D01*
X225613314Y-8637228D02*
X225684742Y-8565800D01*
X225827600Y-8494371D01*
X226041885Y-8494371D01*
X226184742Y-8565800D01*
X226256171Y-8708657D01*
X226256171Y-9494371D01*
X226256171Y-8708657D02*
X226327600Y-8565800D01*
X226470457Y-8494371D01*
X226684742Y-8494371D01*
X226827600Y-8565800D01*
X226899028Y-8708657D01*
X226899028Y-9494371D01*
X228256171Y-9494371D02*
X228256171Y-8708657D01*
X228184742Y-8565800D01*
X228041885Y-8494371D01*
X227756171Y-8494371D01*
X227613314Y-8565800D01*
X228256171Y-9422942D02*
X228113314Y-9494371D01*
X227756171Y-9494371D01*
X227613314Y-9422942D01*
X227541885Y-9280085D01*
X227541885Y-9137228D01*
X227613314Y-8994371D01*
X227756171Y-8922942D01*
X228113314Y-8922942D01*
X228256171Y-8851514D01*
X228970457Y-8494371D02*
X228970457Y-9494371D01*
X228970457Y-8637228D02*
X229041885Y-8565800D01*
X229184742Y-8494371D01*
X229399028Y-8494371D01*
X229541885Y-8565800D01*
X229613314Y-8708657D01*
X229613314Y-9494371D01*
X230327600Y-9351514D02*
X230399028Y-9422942D01*
X230327600Y-9494371D01*
X230256171Y-9422942D01*
X230327600Y-9351514D01*
X230327600Y-9494371D01*
X231041885Y-8494371D02*
X231041885Y-9494371D01*
X231041885Y-8637228D02*
X231113314Y-8565800D01*
X231256171Y-8494371D01*
X231470457Y-8494371D01*
X231613314Y-8565800D01*
X231684742Y-8708657D01*
X231684742Y-9494371D01*
X232970457Y-9422942D02*
X232827600Y-9494371D01*
X232541885Y-9494371D01*
X232399028Y-9422942D01*
X232327600Y-9280085D01*
X232327600Y-8708657D01*
X232399028Y-8565800D01*
X232541885Y-8494371D01*
X232827600Y-8494371D01*
X232970457Y-8565800D01*
X233041885Y-8708657D01*
X233041885Y-8851514D01*
X232327600Y-8994371D01*
X233470457Y-8494371D02*
X234041885Y-8494371D01*
X233684742Y-7994371D02*
X233684742Y-9280085D01*
X233756171Y-9422942D01*
X233899028Y-9494371D01*
X234041885Y-9494371D01*
D11*
%TO.C,Q3*%
X264953761Y-35012619D02*
X264858523Y-34965000D01*
X264763285Y-34869761D01*
X264620428Y-34726904D01*
X264525190Y-34679285D01*
X264429952Y-34679285D01*
X264477571Y-34917380D02*
X264382333Y-34869761D01*
X264287095Y-34774523D01*
X264239476Y-34584047D01*
X264239476Y-34250714D01*
X264287095Y-34060238D01*
X264382333Y-33965000D01*
X264477571Y-33917380D01*
X264668047Y-33917380D01*
X264763285Y-33965000D01*
X264858523Y-34060238D01*
X264906142Y-34250714D01*
X264906142Y-34584047D01*
X264858523Y-34774523D01*
X264763285Y-34869761D01*
X264668047Y-34917380D01*
X264477571Y-34917380D01*
X265239476Y-33917380D02*
X265858523Y-33917380D01*
X265525190Y-34298333D01*
X265668047Y-34298333D01*
X265763285Y-34345952D01*
X265810904Y-34393571D01*
X265858523Y-34488809D01*
X265858523Y-34726904D01*
X265810904Y-34822142D01*
X265763285Y-34869761D01*
X265668047Y-34917380D01*
X265382333Y-34917380D01*
X265287095Y-34869761D01*
X265239476Y-34822142D01*
%TO.C,R11*%
X168724342Y-70539180D02*
X168391009Y-70062990D01*
X168152914Y-70539180D02*
X168152914Y-69539180D01*
X168533866Y-69539180D01*
X168629104Y-69586800D01*
X168676723Y-69634419D01*
X168724342Y-69729657D01*
X168724342Y-69872514D01*
X168676723Y-69967752D01*
X168629104Y-70015371D01*
X168533866Y-70062990D01*
X168152914Y-70062990D01*
X169676723Y-70539180D02*
X169105295Y-70539180D01*
X169391009Y-70539180D02*
X169391009Y-69539180D01*
X169295771Y-69682038D01*
X169200533Y-69777276D01*
X169105295Y-69824895D01*
X170629104Y-70539180D02*
X170057676Y-70539180D01*
X170343390Y-70539180D02*
X170343390Y-69539180D01*
X170248152Y-69682038D01*
X170152914Y-69777276D01*
X170057676Y-69824895D01*
%TO.C,R16*%
X238980742Y-63985980D02*
X238647409Y-63509790D01*
X238409314Y-63985980D02*
X238409314Y-62985980D01*
X238790266Y-62985980D01*
X238885504Y-63033600D01*
X238933123Y-63081219D01*
X238980742Y-63176457D01*
X238980742Y-63319314D01*
X238933123Y-63414552D01*
X238885504Y-63462171D01*
X238790266Y-63509790D01*
X238409314Y-63509790D01*
X239933123Y-63985980D02*
X239361695Y-63985980D01*
X239647409Y-63985980D02*
X239647409Y-62985980D01*
X239552171Y-63128838D01*
X239456933Y-63224076D01*
X239361695Y-63271695D01*
X240790266Y-62985980D02*
X240599790Y-62985980D01*
X240504552Y-63033600D01*
X240456933Y-63081219D01*
X240361695Y-63224076D01*
X240314076Y-63414552D01*
X240314076Y-63795504D01*
X240361695Y-63890742D01*
X240409314Y-63938361D01*
X240504552Y-63985980D01*
X240695028Y-63985980D01*
X240790266Y-63938361D01*
X240837885Y-63890742D01*
X240885504Y-63795504D01*
X240885504Y-63557409D01*
X240837885Y-63462171D01*
X240790266Y-63414552D01*
X240695028Y-63366933D01*
X240504552Y-63366933D01*
X240409314Y-63414552D01*
X240361695Y-63462171D01*
X240314076Y-63557409D01*
%TO.C,J1*%
X269922666Y-54621180D02*
X269922666Y-55335466D01*
X269875047Y-55478323D01*
X269779809Y-55573561D01*
X269636952Y-55621180D01*
X269541714Y-55621180D01*
X270922666Y-55621180D02*
X270351238Y-55621180D01*
X270636952Y-55621180D02*
X270636952Y-54621180D01*
X270541714Y-54764038D01*
X270446476Y-54859276D01*
X270351238Y-54906895D01*
%TO.C,RV2*%
X173145761Y-14027380D02*
X172812428Y-13551190D01*
X172574333Y-14027380D02*
X172574333Y-13027380D01*
X172955285Y-13027380D01*
X173050523Y-13075000D01*
X173098142Y-13122619D01*
X173145761Y-13217857D01*
X173145761Y-13360714D01*
X173098142Y-13455952D01*
X173050523Y-13503571D01*
X172955285Y-13551190D01*
X172574333Y-13551190D01*
X173431476Y-13027380D02*
X173764809Y-14027380D01*
X174098142Y-13027380D01*
X174383857Y-13122619D02*
X174431476Y-13075000D01*
X174526714Y-13027380D01*
X174764809Y-13027380D01*
X174860047Y-13075000D01*
X174907666Y-13122619D01*
X174955285Y-13217857D01*
X174955285Y-13313095D01*
X174907666Y-13455952D01*
X174336238Y-14027380D01*
X174955285Y-14027380D01*
X167082057Y-620780D02*
X167653485Y-620780D01*
X167367771Y-1620780D02*
X167367771Y-620780D01*
X168129676Y-1620780D02*
X168034438Y-1573161D01*
X167986819Y-1525542D01*
X167939200Y-1430304D01*
X167939200Y-1144590D01*
X167986819Y-1049352D01*
X168034438Y-1001733D01*
X168129676Y-954114D01*
X168272533Y-954114D01*
X168367771Y-1001733D01*
X168415390Y-1049352D01*
X168463009Y-1144590D01*
X168463009Y-1430304D01*
X168415390Y-1525542D01*
X168367771Y-1573161D01*
X168272533Y-1620780D01*
X168129676Y-1620780D01*
X170177295Y-1620780D02*
X169605866Y-1620780D01*
X169891580Y-1620780D02*
X169891580Y-620780D01*
X169796342Y-763638D01*
X169701104Y-858876D01*
X169605866Y-906495D01*
X170796342Y-620780D02*
X170891580Y-620780D01*
X170986819Y-668400D01*
X171034438Y-716019D01*
X171082057Y-811257D01*
X171129676Y-1001733D01*
X171129676Y-1239828D01*
X171082057Y-1430304D01*
X171034438Y-1525542D01*
X170986819Y-1573161D01*
X170891580Y-1620780D01*
X170796342Y-1620780D01*
X170701104Y-1573161D01*
X170653485Y-1525542D01*
X170605866Y-1430304D01*
X170558247Y-1239828D01*
X170558247Y-1001733D01*
X170605866Y-811257D01*
X170653485Y-716019D01*
X170701104Y-668400D01*
X170796342Y-620780D01*
X171558247Y-1620780D02*
X171558247Y-620780D01*
X171653485Y-1239828D02*
X171939200Y-1620780D01*
X171939200Y-954114D02*
X171558247Y-1335066D01*
X173129676Y-1620780D02*
X173129676Y-620780D01*
X173510628Y-620780D01*
X173605866Y-668400D01*
X173653485Y-716019D01*
X173701104Y-811257D01*
X173701104Y-954114D01*
X173653485Y-1049352D01*
X173605866Y-1096971D01*
X173510628Y-1144590D01*
X173129676Y-1144590D01*
X174272533Y-1620780D02*
X174177295Y-1573161D01*
X174129676Y-1525542D01*
X174082057Y-1430304D01*
X174082057Y-1144590D01*
X174129676Y-1049352D01*
X174177295Y-1001733D01*
X174272533Y-954114D01*
X174415390Y-954114D01*
X174510628Y-1001733D01*
X174558247Y-1049352D01*
X174605866Y-1144590D01*
X174605866Y-1430304D01*
X174558247Y-1525542D01*
X174510628Y-1573161D01*
X174415390Y-1620780D01*
X174272533Y-1620780D01*
X174891580Y-954114D02*
X175272533Y-954114D01*
X175034438Y-620780D02*
X175034438Y-1477923D01*
X175082057Y-1573161D01*
X175177295Y-1620780D01*
X175272533Y-1620780D01*
X176367771Y-1239828D02*
X177129676Y-1239828D01*
X178939200Y-1620780D02*
X178605866Y-1144590D01*
X178367771Y-1620780D02*
X178367771Y-620780D01*
X178748723Y-620780D01*
X178843961Y-668400D01*
X178891580Y-716019D01*
X178939200Y-811257D01*
X178939200Y-954114D01*
X178891580Y-1049352D01*
X178843961Y-1096971D01*
X178748723Y-1144590D01*
X178367771Y-1144590D01*
X179748723Y-1573161D02*
X179653485Y-1620780D01*
X179463009Y-1620780D01*
X179367771Y-1573161D01*
X179320152Y-1477923D01*
X179320152Y-1096971D01*
X179367771Y-1001733D01*
X179463009Y-954114D01*
X179653485Y-954114D01*
X179748723Y-1001733D01*
X179796342Y-1096971D01*
X179796342Y-1192209D01*
X179320152Y-1287447D01*
X180653485Y-1620780D02*
X180653485Y-620780D01*
X180653485Y-1573161D02*
X180558247Y-1620780D01*
X180367771Y-1620780D01*
X180272533Y-1573161D01*
X180224914Y-1525542D01*
X180177295Y-1430304D01*
X180177295Y-1144590D01*
X180224914Y-1049352D01*
X180272533Y-1001733D01*
X180367771Y-954114D01*
X180558247Y-954114D01*
X180653485Y-1001733D01*
%TO.C,C1*%
X232096333Y-15134142D02*
X232048714Y-15181761D01*
X231905857Y-15229380D01*
X231810619Y-15229380D01*
X231667761Y-15181761D01*
X231572523Y-15086523D01*
X231524904Y-14991285D01*
X231477285Y-14800809D01*
X231477285Y-14657952D01*
X231524904Y-14467476D01*
X231572523Y-14372238D01*
X231667761Y-14277000D01*
X231810619Y-14229380D01*
X231905857Y-14229380D01*
X232048714Y-14277000D01*
X232096333Y-14324619D01*
X233048714Y-15229380D02*
X232477285Y-15229380D01*
X232763000Y-15229380D02*
X232763000Y-14229380D01*
X232667761Y-14372238D01*
X232572523Y-14467476D01*
X232477285Y-14515095D01*
%TO.C,R5*%
X169759333Y-32397380D02*
X169426000Y-31921190D01*
X169187904Y-32397380D02*
X169187904Y-31397380D01*
X169568857Y-31397380D01*
X169664095Y-31445000D01*
X169711714Y-31492619D01*
X169759333Y-31587857D01*
X169759333Y-31730714D01*
X169711714Y-31825952D01*
X169664095Y-31873571D01*
X169568857Y-31921190D01*
X169187904Y-31921190D01*
X170664095Y-31397380D02*
X170187904Y-31397380D01*
X170140285Y-31873571D01*
X170187904Y-31825952D01*
X170283142Y-31778333D01*
X170521238Y-31778333D01*
X170616476Y-31825952D01*
X170664095Y-31873571D01*
X170711714Y-31968809D01*
X170711714Y-32206904D01*
X170664095Y-32302142D01*
X170616476Y-32349761D01*
X170521238Y-32397380D01*
X170283142Y-32397380D01*
X170187904Y-32349761D01*
X170140285Y-32302142D01*
%TO.C,R14*%
X189653942Y-77279180D02*
X189320609Y-76802990D01*
X189082514Y-77279180D02*
X189082514Y-76279180D01*
X189463466Y-76279180D01*
X189558704Y-76326800D01*
X189606323Y-76374419D01*
X189653942Y-76469657D01*
X189653942Y-76612514D01*
X189606323Y-76707752D01*
X189558704Y-76755371D01*
X189463466Y-76802990D01*
X189082514Y-76802990D01*
X190606323Y-77279180D02*
X190034895Y-77279180D01*
X190320609Y-77279180D02*
X190320609Y-76279180D01*
X190225371Y-76422038D01*
X190130133Y-76517276D01*
X190034895Y-76564895D01*
X191463466Y-76612514D02*
X191463466Y-77279180D01*
X191225371Y-76231561D02*
X190987276Y-76945847D01*
X191606323Y-76945847D01*
%TO.C,R7*%
X253833333Y-32397380D02*
X253500000Y-31921190D01*
X253261904Y-32397380D02*
X253261904Y-31397380D01*
X253642857Y-31397380D01*
X253738095Y-31445000D01*
X253785714Y-31492619D01*
X253833333Y-31587857D01*
X253833333Y-31730714D01*
X253785714Y-31825952D01*
X253738095Y-31873571D01*
X253642857Y-31921190D01*
X253261904Y-31921190D01*
X254166666Y-31397380D02*
X254833333Y-31397380D01*
X254404761Y-32397380D01*
%TO.C,R12*%
X260672342Y-73129980D02*
X260339009Y-72653790D01*
X260100914Y-73129980D02*
X260100914Y-72129980D01*
X260481866Y-72129980D01*
X260577104Y-72177600D01*
X260624723Y-72225219D01*
X260672342Y-72320457D01*
X260672342Y-72463314D01*
X260624723Y-72558552D01*
X260577104Y-72606171D01*
X260481866Y-72653790D01*
X260100914Y-72653790D01*
X261624723Y-73129980D02*
X261053295Y-73129980D01*
X261339009Y-73129980D02*
X261339009Y-72129980D01*
X261243771Y-72272838D01*
X261148533Y-72368076D01*
X261053295Y-72415695D01*
X262005676Y-72225219D02*
X262053295Y-72177600D01*
X262148533Y-72129980D01*
X262386628Y-72129980D01*
X262481866Y-72177600D01*
X262529485Y-72225219D01*
X262577104Y-72320457D01*
X262577104Y-72415695D01*
X262529485Y-72558552D01*
X261958057Y-73129980D01*
X262577104Y-73129980D01*
%TO.C,R15*%
X260367542Y-70827580D02*
X260034209Y-70351390D01*
X259796114Y-70827580D02*
X259796114Y-69827580D01*
X260177066Y-69827580D01*
X260272304Y-69875200D01*
X260319923Y-69922819D01*
X260367542Y-70018057D01*
X260367542Y-70160914D01*
X260319923Y-70256152D01*
X260272304Y-70303771D01*
X260177066Y-70351390D01*
X259796114Y-70351390D01*
X261319923Y-70827580D02*
X260748495Y-70827580D01*
X261034209Y-70827580D02*
X261034209Y-69827580D01*
X260938971Y-69970438D01*
X260843733Y-70065676D01*
X260748495Y-70113295D01*
X262224685Y-69827580D02*
X261748495Y-69827580D01*
X261700876Y-70303771D01*
X261748495Y-70256152D01*
X261843733Y-70208533D01*
X262081828Y-70208533D01*
X262177066Y-70256152D01*
X262224685Y-70303771D01*
X262272304Y-70399009D01*
X262272304Y-70637104D01*
X262224685Y-70732342D01*
X262177066Y-70779961D01*
X262081828Y-70827580D01*
X261843733Y-70827580D01*
X261748495Y-70779961D01*
X261700876Y-70732342D01*
%TO.C,R8*%
X192111333Y-25784380D02*
X191778000Y-25308190D01*
X191539904Y-25784380D02*
X191539904Y-24784380D01*
X191920857Y-24784380D01*
X192016095Y-24832000D01*
X192063714Y-24879619D01*
X192111333Y-24974857D01*
X192111333Y-25117714D01*
X192063714Y-25212952D01*
X192016095Y-25260571D01*
X191920857Y-25308190D01*
X191539904Y-25308190D01*
X192682761Y-25212952D02*
X192587523Y-25165333D01*
X192539904Y-25117714D01*
X192492285Y-25022476D01*
X192492285Y-24974857D01*
X192539904Y-24879619D01*
X192587523Y-24832000D01*
X192682761Y-24784380D01*
X192873238Y-24784380D01*
X192968476Y-24832000D01*
X193016095Y-24879619D01*
X193063714Y-24974857D01*
X193063714Y-25022476D01*
X193016095Y-25117714D01*
X192968476Y-25165333D01*
X192873238Y-25212952D01*
X192682761Y-25212952D01*
X192587523Y-25260571D01*
X192539904Y-25308190D01*
X192492285Y-25403428D01*
X192492285Y-25593904D01*
X192539904Y-25689142D01*
X192587523Y-25736761D01*
X192682761Y-25784380D01*
X192873238Y-25784380D01*
X192968476Y-25736761D01*
X193016095Y-25689142D01*
X193063714Y-25593904D01*
X193063714Y-25403428D01*
X193016095Y-25308190D01*
X192968476Y-25260571D01*
X192873238Y-25212952D01*
%TO.C,R18*%
X239082342Y-79920780D02*
X238749009Y-79444590D01*
X238510914Y-79920780D02*
X238510914Y-78920780D01*
X238891866Y-78920780D01*
X238987104Y-78968400D01*
X239034723Y-79016019D01*
X239082342Y-79111257D01*
X239082342Y-79254114D01*
X239034723Y-79349352D01*
X238987104Y-79396971D01*
X238891866Y-79444590D01*
X238510914Y-79444590D01*
X240034723Y-79920780D02*
X239463295Y-79920780D01*
X239749009Y-79920780D02*
X239749009Y-78920780D01*
X239653771Y-79063638D01*
X239558533Y-79158876D01*
X239463295Y-79206495D01*
X240606152Y-79349352D02*
X240510914Y-79301733D01*
X240463295Y-79254114D01*
X240415676Y-79158876D01*
X240415676Y-79111257D01*
X240463295Y-79016019D01*
X240510914Y-78968400D01*
X240606152Y-78920780D01*
X240796628Y-78920780D01*
X240891866Y-78968400D01*
X240939485Y-79016019D01*
X240987104Y-79111257D01*
X240987104Y-79158876D01*
X240939485Y-79254114D01*
X240891866Y-79301733D01*
X240796628Y-79349352D01*
X240606152Y-79349352D01*
X240510914Y-79396971D01*
X240463295Y-79444590D01*
X240415676Y-79539828D01*
X240415676Y-79730304D01*
X240463295Y-79825542D01*
X240510914Y-79873161D01*
X240606152Y-79920780D01*
X240796628Y-79920780D01*
X240891866Y-79873161D01*
X240939485Y-79825542D01*
X240987104Y-79730304D01*
X240987104Y-79539828D01*
X240939485Y-79444590D01*
X240891866Y-79396971D01*
X240796628Y-79349352D01*
%TO.C,C2*%
X209637333Y-15134142D02*
X209589714Y-15181761D01*
X209446857Y-15229380D01*
X209351619Y-15229380D01*
X209208761Y-15181761D01*
X209113523Y-15086523D01*
X209065904Y-14991285D01*
X209018285Y-14800809D01*
X209018285Y-14657952D01*
X209065904Y-14467476D01*
X209113523Y-14372238D01*
X209208761Y-14277000D01*
X209351619Y-14229380D01*
X209446857Y-14229380D01*
X209589714Y-14277000D01*
X209637333Y-14324619D01*
X210018285Y-14324619D02*
X210065904Y-14277000D01*
X210161142Y-14229380D01*
X210399238Y-14229380D01*
X210494476Y-14277000D01*
X210542095Y-14324619D01*
X210589714Y-14419857D01*
X210589714Y-14515095D01*
X210542095Y-14657952D01*
X209970666Y-15229380D01*
X210589714Y-15229380D01*
%TO.C,RV1*%
X267374761Y-14586380D02*
X267041428Y-14110190D01*
X266803333Y-14586380D02*
X266803333Y-13586380D01*
X267184285Y-13586380D01*
X267279523Y-13634000D01*
X267327142Y-13681619D01*
X267374761Y-13776857D01*
X267374761Y-13919714D01*
X267327142Y-14014952D01*
X267279523Y-14062571D01*
X267184285Y-14110190D01*
X266803333Y-14110190D01*
X267660476Y-13586380D02*
X267993809Y-14586380D01*
X268327142Y-13586380D01*
X269184285Y-14586380D02*
X268612857Y-14586380D01*
X268898571Y-14586380D02*
X268898571Y-13586380D01*
X268803333Y-13729238D01*
X268708095Y-13824476D01*
X268612857Y-13872095D01*
X255681104Y-1027180D02*
X256252533Y-1027180D01*
X255966819Y-2027180D02*
X255966819Y-1027180D01*
X256728723Y-2027180D02*
X256633485Y-1979561D01*
X256585866Y-1931942D01*
X256538247Y-1836704D01*
X256538247Y-1550990D01*
X256585866Y-1455752D01*
X256633485Y-1408133D01*
X256728723Y-1360514D01*
X256871580Y-1360514D01*
X256966819Y-1408133D01*
X257014438Y-1455752D01*
X257062057Y-1550990D01*
X257062057Y-1836704D01*
X257014438Y-1931942D01*
X256966819Y-1979561D01*
X256871580Y-2027180D01*
X256728723Y-2027180D01*
X258776342Y-2027180D02*
X258204914Y-2027180D01*
X258490628Y-2027180D02*
X258490628Y-1027180D01*
X258395390Y-1170038D01*
X258300152Y-1265276D01*
X258204914Y-1312895D01*
X259395390Y-1027180D02*
X259490628Y-1027180D01*
X259585866Y-1074800D01*
X259633485Y-1122419D01*
X259681104Y-1217657D01*
X259728723Y-1408133D01*
X259728723Y-1646228D01*
X259681104Y-1836704D01*
X259633485Y-1931942D01*
X259585866Y-1979561D01*
X259490628Y-2027180D01*
X259395390Y-2027180D01*
X259300152Y-1979561D01*
X259252533Y-1931942D01*
X259204914Y-1836704D01*
X259157295Y-1646228D01*
X259157295Y-1408133D01*
X259204914Y-1217657D01*
X259252533Y-1122419D01*
X259300152Y-1074800D01*
X259395390Y-1027180D01*
X260157295Y-2027180D02*
X260157295Y-1027180D01*
X260252533Y-1646228D02*
X260538247Y-2027180D01*
X260538247Y-1360514D02*
X260157295Y-1741466D01*
X261728723Y-2027180D02*
X261728723Y-1027180D01*
X262109676Y-1027180D01*
X262204914Y-1074800D01*
X262252533Y-1122419D01*
X262300152Y-1217657D01*
X262300152Y-1360514D01*
X262252533Y-1455752D01*
X262204914Y-1503371D01*
X262109676Y-1550990D01*
X261728723Y-1550990D01*
X262871580Y-2027180D02*
X262776342Y-1979561D01*
X262728723Y-1931942D01*
X262681104Y-1836704D01*
X262681104Y-1550990D01*
X262728723Y-1455752D01*
X262776342Y-1408133D01*
X262871580Y-1360514D01*
X263014438Y-1360514D01*
X263109676Y-1408133D01*
X263157295Y-1455752D01*
X263204914Y-1550990D01*
X263204914Y-1836704D01*
X263157295Y-1931942D01*
X263109676Y-1979561D01*
X263014438Y-2027180D01*
X262871580Y-2027180D01*
X263490628Y-1360514D02*
X263871580Y-1360514D01*
X263633485Y-1027180D02*
X263633485Y-1884323D01*
X263681104Y-1979561D01*
X263776342Y-2027180D01*
X263871580Y-2027180D01*
X264966819Y-1646228D02*
X265728723Y-1646228D01*
X266966819Y-2027180D02*
X266966819Y-1027180D01*
X267300152Y-1741466D01*
X267633485Y-1027180D01*
X267633485Y-2027180D01*
X268538247Y-2027180D02*
X268538247Y-1503371D01*
X268490628Y-1408133D01*
X268395390Y-1360514D01*
X268204914Y-1360514D01*
X268109676Y-1408133D01*
X268538247Y-1979561D02*
X268443009Y-2027180D01*
X268204914Y-2027180D01*
X268109676Y-1979561D01*
X268062057Y-1884323D01*
X268062057Y-1789085D01*
X268109676Y-1693847D01*
X268204914Y-1646228D01*
X268443009Y-1646228D01*
X268538247Y-1598609D01*
X268966819Y-1979561D02*
X269062057Y-2027180D01*
X269252533Y-2027180D01*
X269347771Y-1979561D01*
X269395390Y-1884323D01*
X269395390Y-1836704D01*
X269347771Y-1741466D01*
X269252533Y-1693847D01*
X269109676Y-1693847D01*
X269014438Y-1646228D01*
X268966819Y-1550990D01*
X268966819Y-1503371D01*
X269014438Y-1408133D01*
X269109676Y-1360514D01*
X269252533Y-1360514D01*
X269347771Y-1408133D01*
X269681104Y-1360514D02*
X270062057Y-1360514D01*
X269823961Y-1027180D02*
X269823961Y-1884323D01*
X269871580Y-1979561D01*
X269966819Y-2027180D01*
X270062057Y-2027180D01*
X270776342Y-1979561D02*
X270681104Y-2027180D01*
X270490628Y-2027180D01*
X270395390Y-1979561D01*
X270347771Y-1884323D01*
X270347771Y-1503371D01*
X270395390Y-1408133D01*
X270490628Y-1360514D01*
X270681104Y-1360514D01*
X270776342Y-1408133D01*
X270823961Y-1503371D01*
X270823961Y-1598609D01*
X270347771Y-1693847D01*
X271252533Y-2027180D02*
X271252533Y-1360514D01*
X271252533Y-1550990D02*
X271300152Y-1455752D01*
X271347771Y-1408133D01*
X271443009Y-1360514D01*
X271538247Y-1360514D01*
X272966819Y-1503371D02*
X273109676Y-1550990D01*
X273157295Y-1598609D01*
X273204914Y-1693847D01*
X273204914Y-1836704D01*
X273157295Y-1931942D01*
X273109676Y-1979561D01*
X273014438Y-2027180D01*
X272633485Y-2027180D01*
X272633485Y-1027180D01*
X272966819Y-1027180D01*
X273062057Y-1074800D01*
X273109676Y-1122419D01*
X273157295Y-1217657D01*
X273157295Y-1312895D01*
X273109676Y-1408133D01*
X273062057Y-1455752D01*
X272966819Y-1503371D01*
X272633485Y-1503371D01*
X273633485Y-2027180D02*
X273633485Y-1360514D01*
X273633485Y-1550990D02*
X273681104Y-1455752D01*
X273728723Y-1408133D01*
X273823961Y-1360514D01*
X273919200Y-1360514D01*
X274252533Y-2027180D02*
X274252533Y-1360514D01*
X274252533Y-1027180D02*
X274204914Y-1074800D01*
X274252533Y-1122419D01*
X274300152Y-1074800D01*
X274252533Y-1027180D01*
X274252533Y-1122419D01*
X275157295Y-1360514D02*
X275157295Y-2170038D01*
X275109676Y-2265276D01*
X275062057Y-2312895D01*
X274966819Y-2360514D01*
X274823961Y-2360514D01*
X274728723Y-2312895D01*
X275157295Y-1979561D02*
X275062057Y-2027180D01*
X274871580Y-2027180D01*
X274776342Y-1979561D01*
X274728723Y-1931942D01*
X274681104Y-1836704D01*
X274681104Y-1550990D01*
X274728723Y-1455752D01*
X274776342Y-1408133D01*
X274871580Y-1360514D01*
X275062057Y-1360514D01*
X275157295Y-1408133D01*
X275633485Y-2027180D02*
X275633485Y-1027180D01*
X276062057Y-2027180D02*
X276062057Y-1503371D01*
X276014438Y-1408133D01*
X275919200Y-1360514D01*
X275776342Y-1360514D01*
X275681104Y-1408133D01*
X275633485Y-1455752D01*
X276395390Y-1360514D02*
X276776342Y-1360514D01*
X276538247Y-1027180D02*
X276538247Y-1884323D01*
X276585866Y-1979561D01*
X276681104Y-2027180D01*
X276776342Y-2027180D01*
X277109676Y-1360514D02*
X277109676Y-2027180D01*
X277109676Y-1455752D02*
X277157295Y-1408133D01*
X277252533Y-1360514D01*
X277395390Y-1360514D01*
X277490628Y-1408133D01*
X277538247Y-1503371D01*
X277538247Y-2027180D01*
X278395390Y-1979561D02*
X278300152Y-2027180D01*
X278109676Y-2027180D01*
X278014438Y-1979561D01*
X277966819Y-1884323D01*
X277966819Y-1503371D01*
X278014438Y-1408133D01*
X278109676Y-1360514D01*
X278300152Y-1360514D01*
X278395390Y-1408133D01*
X278443009Y-1503371D01*
X278443009Y-1598609D01*
X277966819Y-1693847D01*
X278823961Y-1979561D02*
X278919200Y-2027180D01*
X279109676Y-2027180D01*
X279204914Y-1979561D01*
X279252533Y-1884323D01*
X279252533Y-1836704D01*
X279204914Y-1741466D01*
X279109676Y-1693847D01*
X278966819Y-1693847D01*
X278871580Y-1646228D01*
X278823961Y-1550990D01*
X278823961Y-1503371D01*
X278871580Y-1408133D01*
X278966819Y-1360514D01*
X279109676Y-1360514D01*
X279204914Y-1408133D01*
X279633485Y-1979561D02*
X279728723Y-2027180D01*
X279919200Y-2027180D01*
X280014438Y-1979561D01*
X280062057Y-1884323D01*
X280062057Y-1836704D01*
X280014438Y-1741466D01*
X279919200Y-1693847D01*
X279776342Y-1693847D01*
X279681104Y-1646228D01*
X279633485Y-1550990D01*
X279633485Y-1503371D01*
X279681104Y-1408133D01*
X279776342Y-1360514D01*
X279919200Y-1360514D01*
X280014438Y-1408133D01*
%TO.C,R2*%
X169759333Y-16132380D02*
X169426000Y-15656190D01*
X169187904Y-16132380D02*
X169187904Y-15132380D01*
X169568857Y-15132380D01*
X169664095Y-15180000D01*
X169711714Y-15227619D01*
X169759333Y-15322857D01*
X169759333Y-15465714D01*
X169711714Y-15560952D01*
X169664095Y-15608571D01*
X169568857Y-15656190D01*
X169187904Y-15656190D01*
X170140285Y-15227619D02*
X170187904Y-15180000D01*
X170283142Y-15132380D01*
X170521238Y-15132380D01*
X170616476Y-15180000D01*
X170664095Y-15227619D01*
X170711714Y-15322857D01*
X170711714Y-15418095D01*
X170664095Y-15560952D01*
X170092666Y-16132380D01*
X170711714Y-16132380D01*
%TO.C,Q2*%
X210597761Y-33463619D02*
X210502523Y-33416000D01*
X210407285Y-33320761D01*
X210264428Y-33177904D01*
X210169190Y-33130285D01*
X210073952Y-33130285D01*
X210121571Y-33368380D02*
X210026333Y-33320761D01*
X209931095Y-33225523D01*
X209883476Y-33035047D01*
X209883476Y-32701714D01*
X209931095Y-32511238D01*
X210026333Y-32416000D01*
X210121571Y-32368380D01*
X210312047Y-32368380D01*
X210407285Y-32416000D01*
X210502523Y-32511238D01*
X210550142Y-32701714D01*
X210550142Y-33035047D01*
X210502523Y-33225523D01*
X210407285Y-33320761D01*
X210312047Y-33368380D01*
X210121571Y-33368380D01*
X210931095Y-32463619D02*
X210978714Y-32416000D01*
X211073952Y-32368380D01*
X211312047Y-32368380D01*
X211407285Y-32416000D01*
X211454904Y-32463619D01*
X211502523Y-32558857D01*
X211502523Y-32654095D01*
X211454904Y-32796952D01*
X210883476Y-33368380D01*
X211502523Y-33368380D01*
%TO.C,R10*%
X243197142Y-35817380D02*
X242863809Y-35341190D01*
X242625714Y-35817380D02*
X242625714Y-34817380D01*
X243006666Y-34817380D01*
X243101904Y-34865000D01*
X243149523Y-34912619D01*
X243197142Y-35007857D01*
X243197142Y-35150714D01*
X243149523Y-35245952D01*
X243101904Y-35293571D01*
X243006666Y-35341190D01*
X242625714Y-35341190D01*
X244149523Y-35817380D02*
X243578095Y-35817380D01*
X243863809Y-35817380D02*
X243863809Y-34817380D01*
X243768571Y-34960238D01*
X243673333Y-35055476D01*
X243578095Y-35103095D01*
X244768571Y-34817380D02*
X244863809Y-34817380D01*
X244959047Y-34865000D01*
X245006666Y-34912619D01*
X245054285Y-35007857D01*
X245101904Y-35198333D01*
X245101904Y-35436428D01*
X245054285Y-35626904D01*
X245006666Y-35722142D01*
X244959047Y-35769761D01*
X244863809Y-35817380D01*
X244768571Y-35817380D01*
X244673333Y-35769761D01*
X244625714Y-35722142D01*
X244578095Y-35626904D01*
X244530476Y-35436428D01*
X244530476Y-35198333D01*
X244578095Y-35007857D01*
X244625714Y-34912619D01*
X244673333Y-34865000D01*
X244768571Y-34817380D01*
%TO.C,R1*%
X275423333Y-16132380D02*
X275090000Y-15656190D01*
X274851904Y-16132380D02*
X274851904Y-15132380D01*
X275232857Y-15132380D01*
X275328095Y-15180000D01*
X275375714Y-15227619D01*
X275423333Y-15322857D01*
X275423333Y-15465714D01*
X275375714Y-15560952D01*
X275328095Y-15608571D01*
X275232857Y-15656190D01*
X274851904Y-15656190D01*
X276375714Y-16132380D02*
X275804285Y-16132380D01*
X276090000Y-16132380D02*
X276090000Y-15132380D01*
X275994761Y-15275238D01*
X275899523Y-15370476D01*
X275804285Y-15418095D01*
%TO.C,C4*%
X223576533Y-70847942D02*
X223528914Y-70895561D01*
X223386057Y-70943180D01*
X223290819Y-70943180D01*
X223147961Y-70895561D01*
X223052723Y-70800323D01*
X223005104Y-70705085D01*
X222957485Y-70514609D01*
X222957485Y-70371752D01*
X223005104Y-70181276D01*
X223052723Y-70086038D01*
X223147961Y-69990800D01*
X223290819Y-69943180D01*
X223386057Y-69943180D01*
X223528914Y-69990800D01*
X223576533Y-70038419D01*
X224433676Y-70276514D02*
X224433676Y-70943180D01*
X224195580Y-69895561D02*
X223957485Y-70609847D01*
X224576533Y-70609847D01*
%TO.C,R17*%
X189552342Y-62157180D02*
X189219009Y-61680990D01*
X188980914Y-62157180D02*
X188980914Y-61157180D01*
X189361866Y-61157180D01*
X189457104Y-61204800D01*
X189504723Y-61252419D01*
X189552342Y-61347657D01*
X189552342Y-61490514D01*
X189504723Y-61585752D01*
X189457104Y-61633371D01*
X189361866Y-61680990D01*
X188980914Y-61680990D01*
X190504723Y-62157180D02*
X189933295Y-62157180D01*
X190219009Y-62157180D02*
X190219009Y-61157180D01*
X190123771Y-61300038D01*
X190028533Y-61395276D01*
X189933295Y-61442895D01*
X190838057Y-61157180D02*
X191504723Y-61157180D01*
X191076152Y-62157180D01*
%TO.C,Q1*%
X236124761Y-33463619D02*
X236029523Y-33416000D01*
X235934285Y-33320761D01*
X235791428Y-33177904D01*
X235696190Y-33130285D01*
X235600952Y-33130285D01*
X235648571Y-33368380D02*
X235553333Y-33320761D01*
X235458095Y-33225523D01*
X235410476Y-33035047D01*
X235410476Y-32701714D01*
X235458095Y-32511238D01*
X235553333Y-32416000D01*
X235648571Y-32368380D01*
X235839047Y-32368380D01*
X235934285Y-32416000D01*
X236029523Y-32511238D01*
X236077142Y-32701714D01*
X236077142Y-33035047D01*
X236029523Y-33225523D01*
X235934285Y-33320761D01*
X235839047Y-33368380D01*
X235648571Y-33368380D01*
X237029523Y-33368380D02*
X236458095Y-33368380D01*
X236743809Y-33368380D02*
X236743809Y-32368380D01*
X236648571Y-32511238D01*
X236553333Y-32606476D01*
X236458095Y-32654095D01*
%TO.C,R6*%
X192111333Y-22999380D02*
X191778000Y-22523190D01*
X191539904Y-22999380D02*
X191539904Y-21999380D01*
X191920857Y-21999380D01*
X192016095Y-22047000D01*
X192063714Y-22094619D01*
X192111333Y-22189857D01*
X192111333Y-22332714D01*
X192063714Y-22427952D01*
X192016095Y-22475571D01*
X191920857Y-22523190D01*
X191539904Y-22523190D01*
X192968476Y-21999380D02*
X192778000Y-21999380D01*
X192682761Y-22047000D01*
X192635142Y-22094619D01*
X192539904Y-22237476D01*
X192492285Y-22427952D01*
X192492285Y-22808904D01*
X192539904Y-22904142D01*
X192587523Y-22951761D01*
X192682761Y-22999380D01*
X192873238Y-22999380D01*
X192968476Y-22951761D01*
X193016095Y-22904142D01*
X193063714Y-22808904D01*
X193063714Y-22570809D01*
X193016095Y-22475571D01*
X192968476Y-22427952D01*
X192873238Y-22380333D01*
X192682761Y-22380333D01*
X192587523Y-22427952D01*
X192539904Y-22475571D01*
X192492285Y-22570809D01*
%TO.C,C3*%
X206081333Y-72157142D02*
X206033714Y-72204761D01*
X205890857Y-72252380D01*
X205795619Y-72252380D01*
X205652761Y-72204761D01*
X205557523Y-72109523D01*
X205509904Y-72014285D01*
X205462285Y-71823809D01*
X205462285Y-71680952D01*
X205509904Y-71490476D01*
X205557523Y-71395238D01*
X205652761Y-71300000D01*
X205795619Y-71252380D01*
X205890857Y-71252380D01*
X206033714Y-71300000D01*
X206081333Y-71347619D01*
X206414666Y-71252380D02*
X207033714Y-71252380D01*
X206700380Y-71633333D01*
X206843238Y-71633333D01*
X206938476Y-71680952D01*
X206986095Y-71728571D01*
X207033714Y-71823809D01*
X207033714Y-72061904D01*
X206986095Y-72157142D01*
X206938476Y-72204761D01*
X206843238Y-72252380D01*
X206557523Y-72252380D01*
X206462285Y-72204761D01*
X206414666Y-72157142D01*
%TO.C,R4*%
X253833333Y-16132380D02*
X253500000Y-15656190D01*
X253261904Y-16132380D02*
X253261904Y-15132380D01*
X253642857Y-15132380D01*
X253738095Y-15180000D01*
X253785714Y-15227619D01*
X253833333Y-15322857D01*
X253833333Y-15465714D01*
X253785714Y-15560952D01*
X253738095Y-15608571D01*
X253642857Y-15656190D01*
X253261904Y-15656190D01*
X254690476Y-15465714D02*
X254690476Y-16132380D01*
X254452380Y-15084761D02*
X254214285Y-15799047D01*
X254833333Y-15799047D01*
%TO.C,R3*%
X275423333Y-32397380D02*
X275090000Y-31921190D01*
X274851904Y-32397380D02*
X274851904Y-31397380D01*
X275232857Y-31397380D01*
X275328095Y-31445000D01*
X275375714Y-31492619D01*
X275423333Y-31587857D01*
X275423333Y-31730714D01*
X275375714Y-31825952D01*
X275328095Y-31873571D01*
X275232857Y-31921190D01*
X274851904Y-31921190D01*
X275756666Y-31397380D02*
X276375714Y-31397380D01*
X276042380Y-31778333D01*
X276185238Y-31778333D01*
X276280476Y-31825952D01*
X276328095Y-31873571D01*
X276375714Y-31968809D01*
X276375714Y-32206904D01*
X276328095Y-32302142D01*
X276280476Y-32349761D01*
X276185238Y-32397380D01*
X275899523Y-32397380D01*
X275804285Y-32349761D01*
X275756666Y-32302142D01*
%TO.C,R13*%
X168775142Y-62004780D02*
X168441809Y-61528590D01*
X168203714Y-62004780D02*
X168203714Y-61004780D01*
X168584666Y-61004780D01*
X168679904Y-61052400D01*
X168727523Y-61100019D01*
X168775142Y-61195257D01*
X168775142Y-61338114D01*
X168727523Y-61433352D01*
X168679904Y-61480971D01*
X168584666Y-61528590D01*
X168203714Y-61528590D01*
X169727523Y-62004780D02*
X169156095Y-62004780D01*
X169441809Y-62004780D02*
X169441809Y-61004780D01*
X169346571Y-61147638D01*
X169251333Y-61242876D01*
X169156095Y-61290495D01*
X170060857Y-61004780D02*
X170679904Y-61004780D01*
X170346571Y-61385733D01*
X170489428Y-61385733D01*
X170584666Y-61433352D01*
X170632285Y-61480971D01*
X170679904Y-61576209D01*
X170679904Y-61814304D01*
X170632285Y-61909542D01*
X170584666Y-61957161D01*
X170489428Y-62004780D01*
X170203714Y-62004780D01*
X170108476Y-61957161D01*
X170060857Y-61909542D01*
%TO.C,Q5*%
X223577161Y-73168619D02*
X223481923Y-73121000D01*
X223386685Y-73025761D01*
X223243828Y-72882904D01*
X223148590Y-72835285D01*
X223053352Y-72835285D01*
X223100971Y-73073380D02*
X223005733Y-73025761D01*
X222910495Y-72930523D01*
X222862876Y-72740047D01*
X222862876Y-72406714D01*
X222910495Y-72216238D01*
X223005733Y-72121000D01*
X223100971Y-72073380D01*
X223291447Y-72073380D01*
X223386685Y-72121000D01*
X223481923Y-72216238D01*
X223529542Y-72406714D01*
X223529542Y-72740047D01*
X223481923Y-72930523D01*
X223386685Y-73025761D01*
X223291447Y-73073380D01*
X223100971Y-73073380D01*
X224434304Y-72073380D02*
X223958114Y-72073380D01*
X223910495Y-72549571D01*
X223958114Y-72501952D01*
X224053352Y-72454333D01*
X224291447Y-72454333D01*
X224386685Y-72501952D01*
X224434304Y-72549571D01*
X224481923Y-72644809D01*
X224481923Y-72882904D01*
X224434304Y-72978142D01*
X224386685Y-73025761D01*
X224291447Y-73073380D01*
X224053352Y-73073380D01*
X223958114Y-73025761D01*
X223910495Y-72978142D01*
%TO.C,J2*%
X276933066Y-61733180D02*
X276933066Y-62447466D01*
X276885447Y-62590323D01*
X276790209Y-62685561D01*
X276647352Y-62733180D01*
X276552114Y-62733180D01*
X277361638Y-61828419D02*
X277409257Y-61780800D01*
X277504495Y-61733180D01*
X277742590Y-61733180D01*
X277837828Y-61780800D01*
X277885447Y-61828419D01*
X277933066Y-61923657D01*
X277933066Y-62018895D01*
X277885447Y-62161752D01*
X277314019Y-62733180D01*
X277933066Y-62733180D01*
%TO.C,RV3*%
X173542161Y-81924180D02*
X173208828Y-81447990D01*
X172970733Y-81924180D02*
X172970733Y-80924180D01*
X173351685Y-80924180D01*
X173446923Y-80971800D01*
X173494542Y-81019419D01*
X173542161Y-81114657D01*
X173542161Y-81257514D01*
X173494542Y-81352752D01*
X173446923Y-81400371D01*
X173351685Y-81447990D01*
X172970733Y-81447990D01*
X173827876Y-80924180D02*
X174161209Y-81924180D01*
X174494542Y-80924180D01*
X174732638Y-80924180D02*
X175351685Y-80924180D01*
X175018352Y-81305133D01*
X175161209Y-81305133D01*
X175256447Y-81352752D01*
X175304066Y-81400371D01*
X175351685Y-81495609D01*
X175351685Y-81733704D01*
X175304066Y-81828942D01*
X175256447Y-81876561D01*
X175161209Y-81924180D01*
X174875495Y-81924180D01*
X174780257Y-81876561D01*
X174732638Y-81828942D01*
X167074152Y-93381580D02*
X167645580Y-93381580D01*
X167359866Y-94381580D02*
X167359866Y-93381580D01*
X168121771Y-94381580D02*
X168026533Y-94333961D01*
X167978914Y-94286342D01*
X167931295Y-94191104D01*
X167931295Y-93905390D01*
X167978914Y-93810152D01*
X168026533Y-93762533D01*
X168121771Y-93714914D01*
X168264628Y-93714914D01*
X168359866Y-93762533D01*
X168407485Y-93810152D01*
X168455104Y-93905390D01*
X168455104Y-94191104D01*
X168407485Y-94286342D01*
X168359866Y-94333961D01*
X168264628Y-94381580D01*
X168121771Y-94381580D01*
X170169390Y-94381580D02*
X169597961Y-94381580D01*
X169883676Y-94381580D02*
X169883676Y-93381580D01*
X169788438Y-93524438D01*
X169693200Y-93619676D01*
X169597961Y-93667295D01*
X170788438Y-93381580D02*
X170883676Y-93381580D01*
X170978914Y-93429200D01*
X171026533Y-93476819D01*
X171074152Y-93572057D01*
X171121771Y-93762533D01*
X171121771Y-94000628D01*
X171074152Y-94191104D01*
X171026533Y-94286342D01*
X170978914Y-94333961D01*
X170883676Y-94381580D01*
X170788438Y-94381580D01*
X170693200Y-94333961D01*
X170645580Y-94286342D01*
X170597961Y-94191104D01*
X170550342Y-94000628D01*
X170550342Y-93762533D01*
X170597961Y-93572057D01*
X170645580Y-93476819D01*
X170693200Y-93429200D01*
X170788438Y-93381580D01*
X171550342Y-94381580D02*
X171550342Y-93381580D01*
X171645580Y-94000628D02*
X171931295Y-94381580D01*
X171931295Y-93714914D02*
X171550342Y-94095866D01*
X173121771Y-94381580D02*
X173121771Y-93381580D01*
X173502723Y-93381580D01*
X173597961Y-93429200D01*
X173645580Y-93476819D01*
X173693200Y-93572057D01*
X173693200Y-93714914D01*
X173645580Y-93810152D01*
X173597961Y-93857771D01*
X173502723Y-93905390D01*
X173121771Y-93905390D01*
X174264628Y-94381580D02*
X174169390Y-94333961D01*
X174121771Y-94286342D01*
X174074152Y-94191104D01*
X174074152Y-93905390D01*
X174121771Y-93810152D01*
X174169390Y-93762533D01*
X174264628Y-93714914D01*
X174407485Y-93714914D01*
X174502723Y-93762533D01*
X174550342Y-93810152D01*
X174597961Y-93905390D01*
X174597961Y-94191104D01*
X174550342Y-94286342D01*
X174502723Y-94333961D01*
X174407485Y-94381580D01*
X174264628Y-94381580D01*
X174883676Y-93714914D02*
X175264628Y-93714914D01*
X175026533Y-93381580D02*
X175026533Y-94238723D01*
X175074152Y-94333961D01*
X175169390Y-94381580D01*
X175264628Y-94381580D01*
X176359866Y-94000628D02*
X177121771Y-94000628D01*
X178693200Y-93857771D02*
X178836057Y-93905390D01*
X178883676Y-93953009D01*
X178931295Y-94048247D01*
X178931295Y-94191104D01*
X178883676Y-94286342D01*
X178836057Y-94333961D01*
X178740819Y-94381580D01*
X178359866Y-94381580D01*
X178359866Y-93381580D01*
X178693200Y-93381580D01*
X178788438Y-93429200D01*
X178836057Y-93476819D01*
X178883676Y-93572057D01*
X178883676Y-93667295D01*
X178836057Y-93762533D01*
X178788438Y-93810152D01*
X178693200Y-93857771D01*
X178359866Y-93857771D01*
X179502723Y-94381580D02*
X179407485Y-94333961D01*
X179359866Y-94238723D01*
X179359866Y-93381580D01*
X180312247Y-93714914D02*
X180312247Y-94381580D01*
X179883676Y-93714914D02*
X179883676Y-94238723D01*
X179931295Y-94333961D01*
X180026533Y-94381580D01*
X180169390Y-94381580D01*
X180264628Y-94333961D01*
X180312247Y-94286342D01*
X181169390Y-94333961D02*
X181074152Y-94381580D01*
X180883676Y-94381580D01*
X180788438Y-94333961D01*
X180740819Y-94238723D01*
X180740819Y-93857771D01*
X180788438Y-93762533D01*
X180883676Y-93714914D01*
X181074152Y-93714914D01*
X181169390Y-93762533D01*
X181217009Y-93857771D01*
X181217009Y-93953009D01*
X180740819Y-94048247D01*
%TO.C,R9*%
X243673333Y-44072380D02*
X243340000Y-43596190D01*
X243101904Y-44072380D02*
X243101904Y-43072380D01*
X243482857Y-43072380D01*
X243578095Y-43120000D01*
X243625714Y-43167619D01*
X243673333Y-43262857D01*
X243673333Y-43405714D01*
X243625714Y-43500952D01*
X243578095Y-43548571D01*
X243482857Y-43596190D01*
X243101904Y-43596190D01*
X244149523Y-44072380D02*
X244340000Y-44072380D01*
X244435238Y-44024761D01*
X244482857Y-43977142D01*
X244578095Y-43834285D01*
X244625714Y-43643809D01*
X244625714Y-43262857D01*
X244578095Y-43167619D01*
X244530476Y-43120000D01*
X244435238Y-43072380D01*
X244244761Y-43072380D01*
X244149523Y-43120000D01*
X244101904Y-43167619D01*
X244054285Y-43262857D01*
X244054285Y-43500952D01*
X244101904Y-43596190D01*
X244149523Y-43643809D01*
X244244761Y-43691428D01*
X244435238Y-43691428D01*
X244530476Y-43643809D01*
X244578095Y-43596190D01*
X244625714Y-43500952D01*
%TO.C,U1*%
X203149295Y-56551580D02*
X203149295Y-57361104D01*
X203196914Y-57456342D01*
X203244533Y-57503961D01*
X203339771Y-57551580D01*
X203530247Y-57551580D01*
X203625485Y-57503961D01*
X203673104Y-57456342D01*
X203720723Y-57361104D01*
X203720723Y-56551580D01*
X204720723Y-57551580D02*
X204149295Y-57551580D01*
X204435009Y-57551580D02*
X204435009Y-56551580D01*
X204339771Y-56694438D01*
X204244533Y-56789676D01*
X204149295Y-56837295D01*
%TO.C,Q4*%
X208997561Y-63669019D02*
X208902323Y-63621400D01*
X208807085Y-63526161D01*
X208664228Y-63383304D01*
X208568990Y-63335685D01*
X208473752Y-63335685D01*
X208521371Y-63573780D02*
X208426133Y-63526161D01*
X208330895Y-63430923D01*
X208283276Y-63240447D01*
X208283276Y-62907114D01*
X208330895Y-62716638D01*
X208426133Y-62621400D01*
X208521371Y-62573780D01*
X208711847Y-62573780D01*
X208807085Y-62621400D01*
X208902323Y-62716638D01*
X208949942Y-62907114D01*
X208949942Y-63240447D01*
X208902323Y-63430923D01*
X208807085Y-63526161D01*
X208711847Y-63573780D01*
X208521371Y-63573780D01*
X209807085Y-62907114D02*
X209807085Y-63573780D01*
X209568990Y-62526161D02*
X209330895Y-63240447D01*
X209949942Y-63240447D01*
%TO.C,RV4*%
X253450561Y-81924180D02*
X253117228Y-81447990D01*
X252879133Y-81924180D02*
X252879133Y-80924180D01*
X253260085Y-80924180D01*
X253355323Y-80971800D01*
X253402942Y-81019419D01*
X253450561Y-81114657D01*
X253450561Y-81257514D01*
X253402942Y-81352752D01*
X253355323Y-81400371D01*
X253260085Y-81447990D01*
X252879133Y-81447990D01*
X253736276Y-80924180D02*
X254069609Y-81924180D01*
X254402942Y-80924180D01*
X255164847Y-81257514D02*
X255164847Y-81924180D01*
X254926752Y-80876561D02*
X254688657Y-81590847D01*
X255307704Y-81590847D01*
X246450561Y-93432380D02*
X247021990Y-93432380D01*
X246736276Y-94432380D02*
X246736276Y-93432380D01*
X247498180Y-94432380D02*
X247402942Y-94384761D01*
X247355323Y-94337142D01*
X247307704Y-94241904D01*
X247307704Y-93956190D01*
X247355323Y-93860952D01*
X247402942Y-93813333D01*
X247498180Y-93765714D01*
X247641038Y-93765714D01*
X247736276Y-93813333D01*
X247783895Y-93860952D01*
X247831514Y-93956190D01*
X247831514Y-94241904D01*
X247783895Y-94337142D01*
X247736276Y-94384761D01*
X247641038Y-94432380D01*
X247498180Y-94432380D01*
X249545800Y-94432380D02*
X248974371Y-94432380D01*
X249260085Y-94432380D02*
X249260085Y-93432380D01*
X249164847Y-93575238D01*
X249069609Y-93670476D01*
X248974371Y-93718095D01*
X250164847Y-93432380D02*
X250260085Y-93432380D01*
X250355323Y-93480000D01*
X250402942Y-93527619D01*
X250450561Y-93622857D01*
X250498180Y-93813333D01*
X250498180Y-94051428D01*
X250450561Y-94241904D01*
X250402942Y-94337142D01*
X250355323Y-94384761D01*
X250260085Y-94432380D01*
X250164847Y-94432380D01*
X250069609Y-94384761D01*
X250021990Y-94337142D01*
X249974371Y-94241904D01*
X249926752Y-94051428D01*
X249926752Y-93813333D01*
X249974371Y-93622857D01*
X250021990Y-93527619D01*
X250069609Y-93480000D01*
X250164847Y-93432380D01*
X250926752Y-94432380D02*
X250926752Y-93432380D01*
X251021990Y-94051428D02*
X251307704Y-94432380D01*
X251307704Y-93765714D02*
X250926752Y-94146666D01*
X252498180Y-94432380D02*
X252498180Y-93432380D01*
X252879133Y-93432380D01*
X252974371Y-93480000D01*
X253021990Y-93527619D01*
X253069609Y-93622857D01*
X253069609Y-93765714D01*
X253021990Y-93860952D01*
X252974371Y-93908571D01*
X252879133Y-93956190D01*
X252498180Y-93956190D01*
X253641038Y-94432380D02*
X253545800Y-94384761D01*
X253498180Y-94337142D01*
X253450561Y-94241904D01*
X253450561Y-93956190D01*
X253498180Y-93860952D01*
X253545800Y-93813333D01*
X253641038Y-93765714D01*
X253783895Y-93765714D01*
X253879133Y-93813333D01*
X253926752Y-93860952D01*
X253974371Y-93956190D01*
X253974371Y-94241904D01*
X253926752Y-94337142D01*
X253879133Y-94384761D01*
X253783895Y-94432380D01*
X253641038Y-94432380D01*
X254260085Y-93765714D02*
X254641038Y-93765714D01*
X254402942Y-93432380D02*
X254402942Y-94289523D01*
X254450561Y-94384761D01*
X254545800Y-94432380D01*
X254641038Y-94432380D01*
X255736276Y-94051428D02*
X256498180Y-94051428D01*
X258260085Y-93480000D02*
X258164847Y-93432380D01*
X258021990Y-93432380D01*
X257879133Y-93480000D01*
X257783895Y-93575238D01*
X257736276Y-93670476D01*
X257688657Y-93860952D01*
X257688657Y-94003809D01*
X257736276Y-94194285D01*
X257783895Y-94289523D01*
X257879133Y-94384761D01*
X258021990Y-94432380D01*
X258117228Y-94432380D01*
X258260085Y-94384761D01*
X258307704Y-94337142D01*
X258307704Y-94003809D01*
X258117228Y-94003809D01*
X258736276Y-94432380D02*
X258736276Y-93765714D01*
X258736276Y-93956190D02*
X258783895Y-93860952D01*
X258831514Y-93813333D01*
X258926752Y-93765714D01*
X259021990Y-93765714D01*
X259736276Y-94384761D02*
X259641038Y-94432380D01*
X259450561Y-94432380D01*
X259355323Y-94384761D01*
X259307704Y-94289523D01*
X259307704Y-93908571D01*
X259355323Y-93813333D01*
X259450561Y-93765714D01*
X259641038Y-93765714D01*
X259736276Y-93813333D01*
X259783895Y-93908571D01*
X259783895Y-94003809D01*
X259307704Y-94099047D01*
X260593419Y-94384761D02*
X260498180Y-94432380D01*
X260307704Y-94432380D01*
X260212466Y-94384761D01*
X260164847Y-94289523D01*
X260164847Y-93908571D01*
X260212466Y-93813333D01*
X260307704Y-93765714D01*
X260498180Y-93765714D01*
X260593419Y-93813333D01*
X260641038Y-93908571D01*
X260641038Y-94003809D01*
X260164847Y-94099047D01*
X261069609Y-93765714D02*
X261069609Y-94432380D01*
X261069609Y-93860952D02*
X261117228Y-93813333D01*
X261212466Y-93765714D01*
X261355323Y-93765714D01*
X261450561Y-93813333D01*
X261498180Y-93908571D01*
X261498180Y-94432380D01*
D12*
%TO.C,Q3*%
X259929000Y-35465000D02*
X270169000Y-35465000D01*
X259929000Y-40106000D02*
X270169000Y-40106000D01*
X259929000Y-35465000D02*
X259929000Y-40106000D01*
X270169000Y-35465000D02*
X270169000Y-40106000D01*
X259929000Y-36975000D02*
X270169000Y-36975000D01*
X263199000Y-35465000D02*
X263199000Y-36975000D01*
X266900000Y-35465000D02*
X266900000Y-36975000D01*
%TO.C,R11*%
X175437200Y-71086800D02*
X163297200Y-71086800D01*
X163297200Y-75826800D02*
X175437200Y-75826800D01*
X175547200Y-73456800D02*
X175437200Y-73456800D01*
X175437200Y-75826800D02*
X175437200Y-71086800D01*
X163297200Y-71086800D02*
X163297200Y-75826800D01*
X163187200Y-73456800D02*
X163297200Y-73456800D01*
%TO.C,R16*%
X233553600Y-69273600D02*
X245693600Y-69273600D01*
X245693600Y-69273600D02*
X245693600Y-64533600D01*
X245803600Y-66903600D02*
X245693600Y-66903600D01*
X233553600Y-64533600D02*
X233553600Y-69273600D01*
X245693600Y-64533600D02*
X233553600Y-64533600D01*
X233443600Y-66903600D02*
X233553600Y-66903600D01*
%TO.C,J1*%
X278658000Y-53744000D02*
X278693000Y-53779000D01*
X276144000Y-51640000D02*
X276180000Y-51675000D01*
X278442000Y-53937000D02*
X278488000Y-53984000D01*
X281579000Y-60630000D02*
X282319000Y-60630000D01*
X272158000Y-60390000D02*
X282079000Y-60390000D01*
X272158000Y-60390000D02*
X272158000Y-50110000D01*
X282319000Y-60630000D02*
X282319000Y-60130000D01*
X280019000Y-60390000D02*
X280019000Y-50110000D01*
X276350000Y-51435000D02*
X276396000Y-51482000D01*
X275118000Y-60390000D02*
X275118000Y-50110000D01*
X281519000Y-60390000D02*
X281519000Y-50110000D01*
X282079000Y-60390000D02*
X282079000Y-50110000D01*
X272158000Y-50110000D02*
X282079000Y-50110000D01*
X276735000Y-59325000D02*
G75*
G03*
X278102042Y-59325427I684001J1534993D01*
G01*
X275884000Y-57106000D02*
G75*
G03*
X275883573Y-58473042I1534993J-684001D01*
G01*
X278103000Y-56255000D02*
G75*
G03*
X276735958Y-56254573I-684001J-1534993D01*
G01*
X278954000Y-58474000D02*
G75*
G03*
X279099253Y-57761195I-1535001J683999D01*
G01*
X279099000Y-57790000D02*
G75*
G03*
X278953756Y-57106682I-1679992J1D01*
G01*
X279099000Y-52710000D02*
G75*
G03*
X279099000Y-52710000I-1680000J0D01*
G01*
%TO.C,RV2*%
X181421000Y-9616000D02*
X166061000Y-9616000D01*
X169888000Y-6292000D02*
X169935000Y-6246000D01*
X172671000Y-8590000D02*
X172706000Y-8554000D01*
X167386000Y-8384000D02*
X167433000Y-8338000D01*
X181661000Y-2415000D02*
X181161000Y-2415000D01*
X181421000Y-12576000D02*
X166061000Y-12576000D01*
X181421000Y-3215000D02*
X166061000Y-3215000D01*
X181661000Y-3155000D02*
X181661000Y-2415000D01*
X174968000Y-6292000D02*
X175015000Y-6246000D01*
X174775000Y-6076000D02*
X174810000Y-6041000D01*
X181421000Y-4715000D02*
X166061000Y-4715000D01*
X181421000Y-2655000D02*
X166061000Y-2655000D01*
X169695000Y-6076000D02*
X169730000Y-6041000D01*
X172466000Y-8384000D02*
X172513000Y-8338000D01*
X181421000Y-12576000D02*
X181421000Y-2655000D01*
X167591000Y-8590000D02*
X167626000Y-8554000D01*
X166061000Y-12576000D02*
X166061000Y-2655000D01*
X179505000Y-5780000D02*
G75*
G03*
X178792195Y-5634747I-683999J-1535001D01*
G01*
X178137000Y-8850000D02*
G75*
G03*
X179504042Y-8850427I684001J1534993D01*
G01*
X177286000Y-6631000D02*
G75*
G03*
X177285573Y-7998042I1534993J-684001D01*
G01*
X180356000Y-7999000D02*
G75*
G03*
X180356427Y-6631958I-1534993J684001D01*
G01*
X178821000Y-5635000D02*
G75*
G03*
X178137682Y-5780244I-1J-1679992D01*
G01*
X175421000Y-7315000D02*
G75*
G03*
X175421000Y-7315000I-1680000J0D01*
G01*
X170341000Y-7315000D02*
G75*
G03*
X170341000Y-7315000I-1680000J0D01*
G01*
%TO.C,C1*%
X235533000Y-19177000D02*
G75*
G03*
X235533000Y-19177000I-3270000J0D01*
G01*
%TO.C,R5*%
X163856000Y-30945000D02*
X175996000Y-30945000D01*
X163856000Y-26205000D02*
X163856000Y-30945000D01*
X163746000Y-28575000D02*
X163856000Y-28575000D01*
X175996000Y-30945000D02*
X175996000Y-26205000D01*
X176106000Y-28575000D02*
X175996000Y-28575000D01*
X175996000Y-26205000D02*
X163856000Y-26205000D01*
%TO.C,R14*%
X196366800Y-71086800D02*
X184226800Y-71086800D01*
X184116800Y-73456800D02*
X184226800Y-73456800D01*
X184226800Y-75826800D02*
X196366800Y-75826800D01*
X196366800Y-75826800D02*
X196366800Y-71086800D01*
X196476800Y-73456800D02*
X196366800Y-73456800D01*
X184226800Y-71086800D02*
X184226800Y-75826800D01*
%TO.C,R7*%
X247820000Y-28575000D02*
X247930000Y-28575000D01*
X260180000Y-28575000D02*
X260070000Y-28575000D01*
X260070000Y-26205000D02*
X247930000Y-26205000D01*
X260070000Y-30945000D02*
X260070000Y-26205000D01*
X247930000Y-26205000D02*
X247930000Y-30945000D01*
X247930000Y-30945000D02*
X260070000Y-30945000D01*
%TO.C,R12*%
X267385200Y-78417600D02*
X267385200Y-73677600D01*
X255245200Y-73677600D02*
X255245200Y-78417600D01*
X255135200Y-76047600D02*
X255245200Y-76047600D01*
X267385200Y-73677600D02*
X255245200Y-73677600D01*
X255245200Y-78417600D02*
X267385200Y-78417600D01*
X267495200Y-76047600D02*
X267385200Y-76047600D01*
%TO.C,R15*%
X254940400Y-69375200D02*
X267080400Y-69375200D01*
X267080400Y-69375200D02*
X267080400Y-64635200D01*
X254830400Y-67005200D02*
X254940400Y-67005200D01*
X254940400Y-64635200D02*
X254940400Y-69375200D01*
X267190400Y-67005200D02*
X267080400Y-67005200D01*
X267080400Y-64635200D02*
X254940400Y-64635200D01*
%TO.C,R8*%
X186208000Y-31072000D02*
X198348000Y-31072000D01*
X198348000Y-31072000D02*
X198348000Y-26332000D01*
X198458000Y-28702000D02*
X198348000Y-28702000D01*
X186098000Y-28702000D02*
X186208000Y-28702000D01*
X198348000Y-26332000D02*
X186208000Y-26332000D01*
X186208000Y-26332000D02*
X186208000Y-31072000D01*
%TO.C,R18*%
X245905200Y-76098400D02*
X245795200Y-76098400D01*
X245795200Y-78468400D02*
X245795200Y-73728400D01*
X233655200Y-73728400D02*
X233655200Y-78468400D01*
X233545200Y-76098400D02*
X233655200Y-76098400D01*
X245795200Y-73728400D02*
X233655200Y-73728400D01*
X233655200Y-78468400D02*
X245795200Y-78468400D01*
%TO.C,C2*%
X213074000Y-19177000D02*
G75*
G03*
X213074000Y-19177000I-3270000J0D01*
G01*
%TO.C,RV1*%
X261820000Y-9149000D02*
X261855000Y-9113000D01*
X266695000Y-8943000D02*
X266742000Y-8897000D01*
X260290000Y-13135000D02*
X260290000Y-3214000D01*
X269197000Y-6851000D02*
X269244000Y-6805000D01*
X263924000Y-6635000D02*
X263959000Y-6600000D01*
X275650000Y-13135000D02*
X275650000Y-3214000D01*
X275650000Y-5274000D02*
X260290000Y-5274000D01*
X275890000Y-2974000D02*
X275390000Y-2974000D01*
X275890000Y-3714000D02*
X275890000Y-2974000D01*
X266900000Y-9149000D02*
X266935000Y-9113000D01*
X264117000Y-6851000D02*
X264164000Y-6805000D01*
X269004000Y-6635000D02*
X269039000Y-6600000D01*
X275650000Y-13135000D02*
X260290000Y-13135000D01*
X261615000Y-8943000D02*
X261662000Y-8897000D01*
X275650000Y-10175000D02*
X260290000Y-10175000D01*
X275650000Y-3774000D02*
X260290000Y-3774000D01*
X275650000Y-3214000D02*
X260290000Y-3214000D01*
X273734000Y-6339000D02*
G75*
G03*
X273021195Y-6193747I-683999J-1535001D01*
G01*
X273050000Y-6194000D02*
G75*
G03*
X272366682Y-6339244I-1J-1679992D01*
G01*
X272366000Y-9409000D02*
G75*
G03*
X273733042Y-9409427I684001J1534993D01*
G01*
X274585000Y-8558000D02*
G75*
G03*
X274585427Y-7190958I-1534993J684001D01*
G01*
X271515000Y-7190000D02*
G75*
G03*
X271514573Y-8557042I1534993J-684001D01*
G01*
X264570000Y-7874000D02*
G75*
G03*
X264570000Y-7874000I-1680000J0D01*
G01*
X269650000Y-7874000D02*
G75*
G03*
X269650000Y-7874000I-1680000J0D01*
G01*
%TO.C,R2*%
X163856000Y-21420000D02*
X175996000Y-21420000D01*
X175996000Y-16680000D02*
X163856000Y-16680000D01*
X163746000Y-19050000D02*
X163856000Y-19050000D01*
X175996000Y-21420000D02*
X175996000Y-16680000D01*
X163856000Y-16680000D02*
X163856000Y-21420000D01*
X176106000Y-19050000D02*
X175996000Y-19050000D01*
%TO.C,Q2*%
X215813000Y-31916000D02*
X215813000Y-27275000D01*
X208842000Y-31916000D02*
X208842000Y-30406000D01*
X215813000Y-27275000D02*
X205573000Y-27275000D01*
X215813000Y-30406000D02*
X205573000Y-30406000D01*
X212543000Y-31916000D02*
X212543000Y-30406000D01*
X205573000Y-31916000D02*
X205573000Y-27275000D01*
X215813000Y-31916000D02*
X205573000Y-31916000D01*
%TO.C,R10*%
X250020000Y-38735000D02*
X249910000Y-38735000D01*
X237770000Y-36365000D02*
X237770000Y-41105000D01*
X249910000Y-41105000D02*
X249910000Y-36365000D01*
X249910000Y-36365000D02*
X237770000Y-36365000D01*
X237770000Y-41105000D02*
X249910000Y-41105000D01*
X237660000Y-38735000D02*
X237770000Y-38735000D01*
%TO.C,R1*%
X281660000Y-16680000D02*
X269520000Y-16680000D01*
X269410000Y-19050000D02*
X269520000Y-19050000D01*
X281770000Y-19050000D02*
X281660000Y-19050000D01*
X269520000Y-16680000D02*
X269520000Y-21420000D01*
X281660000Y-21420000D02*
X281660000Y-16680000D01*
X269520000Y-21420000D02*
X281660000Y-21420000D01*
%TO.C,C4*%
X227013200Y-66090800D02*
G75*
G03*
X227013200Y-66090800I-3270000J0D01*
G01*
%TO.C,R17*%
X184125200Y-67444800D02*
X196265200Y-67444800D01*
X196265200Y-62704800D02*
X184125200Y-62704800D01*
X184015200Y-65074800D02*
X184125200Y-65074800D01*
X184125200Y-62704800D02*
X184125200Y-67444800D01*
X196265200Y-67444800D02*
X196265200Y-62704800D01*
X196375200Y-65074800D02*
X196265200Y-65074800D01*
%TO.C,Q1*%
X231100000Y-31916000D02*
X231100000Y-27275000D01*
X241340000Y-30406000D02*
X231100000Y-30406000D01*
X238070000Y-31916000D02*
X238070000Y-30406000D01*
X241340000Y-31916000D02*
X231100000Y-31916000D01*
X234369000Y-31916000D02*
X234369000Y-30406000D01*
X241340000Y-27275000D02*
X231100000Y-27275000D01*
X241340000Y-31916000D02*
X241340000Y-27275000D01*
%TO.C,R6*%
X198458000Y-19177000D02*
X198348000Y-19177000D01*
X186098000Y-19177000D02*
X186208000Y-19177000D01*
X198348000Y-16807000D02*
X186208000Y-16807000D01*
X186208000Y-21547000D02*
X198348000Y-21547000D01*
X186208000Y-16807000D02*
X186208000Y-21547000D01*
X198348000Y-21547000D02*
X198348000Y-16807000D01*
%TO.C,C3*%
X209518000Y-76200000D02*
G75*
G03*
X209518000Y-76200000I-3270000J0D01*
G01*
%TO.C,R4*%
X260070000Y-21420000D02*
X260070000Y-16680000D01*
X260070000Y-16680000D02*
X247930000Y-16680000D01*
X260180000Y-19050000D02*
X260070000Y-19050000D01*
X247930000Y-16680000D02*
X247930000Y-21420000D01*
X247930000Y-21420000D02*
X260070000Y-21420000D01*
X247820000Y-19050000D02*
X247930000Y-19050000D01*
%TO.C,R3*%
X281660000Y-30945000D02*
X281660000Y-26205000D01*
X269520000Y-26205000D02*
X269520000Y-30945000D01*
X281770000Y-28575000D02*
X281660000Y-28575000D01*
X269410000Y-28575000D02*
X269520000Y-28575000D01*
X281660000Y-26205000D02*
X269520000Y-26205000D01*
X269520000Y-30945000D02*
X281660000Y-30945000D01*
%TO.C,R13*%
X163348000Y-67292400D02*
X175488000Y-67292400D01*
X175488000Y-62552400D02*
X163348000Y-62552400D01*
X163348000Y-62552400D02*
X163348000Y-67292400D01*
X175598000Y-64922400D02*
X175488000Y-64922400D01*
X175488000Y-67292400D02*
X175488000Y-62552400D01*
X163238000Y-64922400D02*
X163348000Y-64922400D01*
%TO.C,Q5*%
X218552400Y-78262000D02*
X228792400Y-78262000D01*
X225523400Y-73621000D02*
X225523400Y-75131000D01*
X221822400Y-73621000D02*
X221822400Y-75131000D01*
X218552400Y-73621000D02*
X218552400Y-78262000D01*
X228792400Y-73621000D02*
X228792400Y-78262000D01*
X218552400Y-73621000D02*
X228792400Y-73621000D01*
X218552400Y-75131000D02*
X228792400Y-75131000D01*
%TO.C,J2*%
X280146000Y-84642000D02*
X280146000Y-64202000D01*
X282206000Y-84642000D02*
X282206000Y-64202000D01*
X276271000Y-70812000D02*
X276307000Y-70847000D01*
X272285000Y-84642000D02*
X272285000Y-64202000D01*
X278569000Y-78189000D02*
X278615000Y-78236000D01*
X276271000Y-75892000D02*
X276307000Y-75927000D01*
X276271000Y-65732000D02*
X276307000Y-65767000D01*
X282446000Y-84882000D02*
X282446000Y-84382000D01*
X278569000Y-68029000D02*
X278615000Y-68076000D01*
X276477000Y-75687000D02*
X276523000Y-75734000D01*
X278785000Y-77996000D02*
X278820000Y-78031000D01*
X276477000Y-65527000D02*
X276523000Y-65574000D01*
X272285000Y-64202000D02*
X282206000Y-64202000D01*
X278785000Y-72916000D02*
X278820000Y-72951000D01*
X275245000Y-84642000D02*
X275245000Y-64202000D01*
X281646000Y-84642000D02*
X281646000Y-64202000D01*
X278785000Y-67836000D02*
X278820000Y-67871000D01*
X278569000Y-73109000D02*
X278615000Y-73156000D01*
X281706000Y-84882000D02*
X282446000Y-84882000D01*
X272285000Y-84642000D02*
X282206000Y-84642000D01*
X276477000Y-70607000D02*
X276523000Y-70654000D01*
X279226000Y-82042000D02*
G75*
G03*
X279080756Y-81358682I-1679992J1D01*
G01*
X276862000Y-83577000D02*
G75*
G03*
X278229042Y-83577427I684001J1534993D01*
G01*
X276011000Y-81358000D02*
G75*
G03*
X276010573Y-82725042I1534993J-684001D01*
G01*
X279081000Y-82726000D02*
G75*
G03*
X279226253Y-82013195I-1535001J683999D01*
G01*
X278230000Y-80507000D02*
G75*
G03*
X276862958Y-80506573I-684001J-1534993D01*
G01*
X279226000Y-76962000D02*
G75*
G03*
X279226000Y-76962000I-1680000J0D01*
G01*
X279226000Y-66802000D02*
G75*
G03*
X279226000Y-66802000I-1680000J0D01*
G01*
X279226000Y-71882000D02*
G75*
G03*
X279226000Y-71882000I-1680000J0D01*
G01*
%TO.C,RV3*%
X166457400Y-91831800D02*
X181817400Y-91831800D01*
X175207400Y-86456800D02*
X175172400Y-86492800D01*
X166217400Y-92631800D02*
X166717400Y-92631800D01*
X181817400Y-82470800D02*
X181817400Y-92391800D01*
X166217400Y-91891800D02*
X166217400Y-92631800D01*
X180492400Y-86662800D02*
X180445400Y-86708800D01*
X173103400Y-88970800D02*
X173068400Y-89005800D01*
X172910400Y-88754800D02*
X172863400Y-88800800D01*
X166457400Y-82470800D02*
X181817400Y-82470800D01*
X166457400Y-92391800D02*
X181817400Y-92391800D01*
X178183400Y-88970800D02*
X178148400Y-89005800D01*
X175412400Y-86662800D02*
X175365400Y-86708800D01*
X177990400Y-88754800D02*
X177943400Y-88800800D01*
X166457400Y-82470800D02*
X166457400Y-92391800D01*
X180287400Y-86456800D02*
X180252400Y-86492800D01*
X166457400Y-90331800D02*
X181817400Y-90331800D01*
X166457400Y-85430800D02*
X181817400Y-85430800D01*
X169741400Y-86196800D02*
G75*
G03*
X168374358Y-86196373I-684001J-1534993D01*
G01*
X169057400Y-89411800D02*
G75*
G03*
X169740718Y-89266556I1J1679992D01*
G01*
X168373400Y-89266800D02*
G75*
G03*
X169086205Y-89412053I683999J1535001D01*
G01*
X170592400Y-88415800D02*
G75*
G03*
X170592827Y-87048758I-1534993J684001D01*
G01*
X167522400Y-87047800D02*
G75*
G03*
X167521973Y-88414842I1534993J-684001D01*
G01*
X175817400Y-87731800D02*
G75*
G03*
X175817400Y-87731800I-1680000J0D01*
G01*
X180897400Y-87731800D02*
G75*
G03*
X180897400Y-87731800I-1680000J0D01*
G01*
%TO.C,R9*%
X249910000Y-49360000D02*
X249910000Y-44620000D01*
X237770000Y-44620000D02*
X237770000Y-49360000D01*
X249910000Y-44620000D02*
X237770000Y-44620000D01*
X237660000Y-46990000D02*
X237770000Y-46990000D01*
X250020000Y-46990000D02*
X249910000Y-46990000D01*
X237770000Y-49360000D02*
X249910000Y-49360000D01*
%TO.C,U1*%
X212790000Y-52698000D02*
X212790000Y-51048000D01*
X194890000Y-52698000D02*
X212790000Y-52698000D01*
X212790000Y-49048000D02*
X212790000Y-47398000D01*
X212790000Y-47398000D02*
X194890000Y-47398000D01*
X194890000Y-47398000D02*
X194890000Y-52698000D01*
X212790000Y-49048000D02*
G75*
G03*
X212790000Y-51048000I0J-1000000D01*
G01*
%TO.C,Q4*%
X207242800Y-64121400D02*
X207242800Y-65631400D01*
X214212800Y-64121400D02*
X214212800Y-68762400D01*
X203972800Y-65631400D02*
X214212800Y-65631400D01*
X210943800Y-64121400D02*
X210943800Y-65631400D01*
X203972800Y-64121400D02*
X214212800Y-64121400D01*
X203972800Y-64121400D02*
X203972800Y-68762400D01*
X203972800Y-68762400D02*
X214212800Y-68762400D01*
%TO.C,RV4*%
X246365800Y-85430800D02*
X261725800Y-85430800D01*
X258091800Y-88970800D02*
X258056800Y-89005800D01*
X255115800Y-86456800D02*
X255080800Y-86492800D01*
X260400800Y-86662800D02*
X260353800Y-86708800D01*
X252818800Y-88754800D02*
X252771800Y-88800800D01*
X255320800Y-86662800D02*
X255273800Y-86708800D01*
X246365800Y-91831800D02*
X261725800Y-91831800D01*
X246125800Y-92631800D02*
X246625800Y-92631800D01*
X260195800Y-86456800D02*
X260160800Y-86492800D01*
X253011800Y-88970800D02*
X252976800Y-89005800D01*
X246365800Y-92391800D02*
X261725800Y-92391800D01*
X261725800Y-82470800D02*
X261725800Y-92391800D01*
X246365800Y-82470800D02*
X246365800Y-92391800D01*
X246125800Y-91891800D02*
X246125800Y-92631800D01*
X246365800Y-90331800D02*
X261725800Y-90331800D01*
X246365800Y-82470800D02*
X261725800Y-82470800D01*
X257898800Y-88754800D02*
X257851800Y-88800800D01*
X250500800Y-88415800D02*
G75*
G03*
X250501227Y-87048758I-1534993J684001D01*
G01*
X249649800Y-86196800D02*
G75*
G03*
X248282758Y-86196373I-684001J-1534993D01*
G01*
X248281800Y-89266800D02*
G75*
G03*
X248994605Y-89412053I683999J1535001D01*
G01*
X247430800Y-87047800D02*
G75*
G03*
X247430373Y-88414842I1534993J-684001D01*
G01*
X248965800Y-89411800D02*
G75*
G03*
X249649118Y-89266556I1J1679992D01*
G01*
X260805800Y-87731800D02*
G75*
G03*
X260805800Y-87731800I-1680000J0D01*
G01*
X255725800Y-87731800D02*
G75*
G03*
X255725800Y-87731800I-1680000J0D01*
G01*
%TD*%
M02*
