%TF.GenerationSoftware,KiCad,Pcbnew,(6.0.0-0)*%
%TF.CreationDate,2022-02-22T18:35:48-05:00*%
%TF.ProjectId,lm224-3lows-1hi,6c6d3232-342d-4336-9c6f-77732d316869,rev?*%
%TF.SameCoordinates,Original*%
%TF.FileFunction,Soldermask,Bot*%
%TF.FilePolarity,Negative*%
%FSLAX46Y46*%
G04 Gerber Fmt 4.6, Leading zero omitted, Abs format (unit mm)*
G04 Created by KiCad (PCBNEW (6.0.0-0)) date 2022-02-22 18:35:48*
%MOMM*%
%LPD*%
G01*
G04 APERTURE LIST*
%ADD10C,1.600000*%
%ADD11R,1.905000X2.000000*%
%ADD12O,1.905000X2.000000*%
%ADD13C,2.200000*%
%ADD14C,2.400000*%
%ADD15O,2.400000X2.400000*%
%ADD16R,2.600000X2.600000*%
%ADD17C,2.600000*%
%ADD18R,1.600000X1.600000*%
%ADD19O,1.600000X1.600000*%
G04 APERTURE END LIST*
D10*
%TO.C,C1*%
X190779400Y-70103800D03*
X193279400Y-70103800D03*
%TD*%
D11*
%TO.C,Q3*%
X222275400Y-89661800D03*
D12*
X224815400Y-89661800D03*
X227355400Y-89661800D03*
%TD*%
D13*
%TO.C,H1*%
X121208800Y-149326400D03*
%TD*%
%TO.C,H4*%
X250901200Y-148716800D03*
%TD*%
%TO.C,H3*%
X251256800Y-54025600D03*
%TD*%
%TO.C,H2*%
X121259600Y-54279600D03*
%TD*%
D14*
%TO.C,R11*%
X121513600Y-124383600D03*
D15*
X136753600Y-124383600D03*
%TD*%
D14*
%TO.C,R16*%
X191770000Y-117830400D03*
D15*
X207010000Y-117830400D03*
%TD*%
D16*
%TO.C,J1*%
X237185400Y-108716800D03*
D17*
X237185400Y-103636800D03*
%TD*%
D16*
%TO.C,RV2*%
X138587400Y-58241800D03*
D17*
X133507400Y-58241800D03*
X128427400Y-58241800D03*
%TD*%
D14*
%TO.C,R5*%
X137312400Y-79501800D03*
D15*
X122072400Y-79501800D03*
%TD*%
D14*
%TO.C,R14*%
X157683200Y-124383600D03*
D15*
X142443200Y-124383600D03*
%TD*%
D14*
%TO.C,R7*%
X221386400Y-79501800D03*
D15*
X206146400Y-79501800D03*
%TD*%
D14*
%TO.C,R12*%
X213461600Y-126974400D03*
D15*
X228701600Y-126974400D03*
%TD*%
D14*
%TO.C,R15*%
X228396800Y-117932000D03*
D15*
X213156800Y-117932000D03*
%TD*%
D14*
%TO.C,R8*%
X144424400Y-79628800D03*
D15*
X159664400Y-79628800D03*
%TD*%
D14*
%TO.C,R18*%
X207111600Y-127025200D03*
D15*
X191871600Y-127025200D03*
%TD*%
D10*
%TO.C,C2*%
X168320400Y-70103800D03*
X170820400Y-70103800D03*
%TD*%
D16*
%TO.C,RV1*%
X232816400Y-58800800D03*
D17*
X227736400Y-58800800D03*
X222656400Y-58800800D03*
%TD*%
D14*
%TO.C,R2*%
X122072400Y-69976800D03*
D15*
X137312400Y-69976800D03*
%TD*%
D11*
%TO.C,Q2*%
X172999400Y-79572800D03*
D12*
X170459400Y-79572800D03*
X167919400Y-79572800D03*
%TD*%
D14*
%TO.C,R10*%
X195986400Y-89661800D03*
D15*
X211226400Y-89661800D03*
%TD*%
D14*
%TO.C,R1*%
X227736400Y-69976800D03*
D15*
X242976400Y-69976800D03*
%TD*%
D10*
%TO.C,C4*%
X184759600Y-117017600D03*
X182259600Y-117017600D03*
%TD*%
D14*
%TO.C,R17*%
X142341600Y-116001600D03*
D15*
X157581600Y-116001600D03*
%TD*%
D11*
%TO.C,Q1*%
X198526400Y-79572800D03*
D12*
X195986400Y-79572800D03*
X193446400Y-79572800D03*
%TD*%
D14*
%TO.C,R6*%
X159664400Y-70103800D03*
D15*
X144424400Y-70103800D03*
%TD*%
D10*
%TO.C,C3*%
X164764400Y-127126800D03*
X167264400Y-127126800D03*
%TD*%
D14*
%TO.C,R4*%
X206146400Y-69976800D03*
D15*
X221386400Y-69976800D03*
%TD*%
D14*
%TO.C,R3*%
X242976400Y-79501800D03*
D15*
X227736400Y-79501800D03*
%TD*%
D14*
%TO.C,R13*%
X121564400Y-115849200D03*
D15*
X136804400Y-115849200D03*
%TD*%
D11*
%TO.C,Q5*%
X180898800Y-127817800D03*
D12*
X183438800Y-127817800D03*
X185978800Y-127817800D03*
%TD*%
D16*
%TO.C,J2*%
X237312400Y-132968800D03*
D17*
X237312400Y-127888800D03*
X237312400Y-122808800D03*
X237312400Y-117728800D03*
%TD*%
D16*
%TO.C,RV3*%
X128823800Y-138658600D03*
D17*
X133903800Y-138658600D03*
X138983800Y-138658600D03*
%TD*%
D14*
%TO.C,R9*%
X195986400Y-97916800D03*
D15*
X211226400Y-97916800D03*
%TD*%
D18*
%TO.C,U1*%
X171226400Y-97164800D03*
D19*
X168686400Y-97164800D03*
X166146400Y-97164800D03*
X163606400Y-97164800D03*
X161066400Y-97164800D03*
X158526400Y-97164800D03*
X155986400Y-97164800D03*
X155986400Y-104784800D03*
X158526400Y-104784800D03*
X161066400Y-104784800D03*
X163606400Y-104784800D03*
X166146400Y-104784800D03*
X168686400Y-104784800D03*
X171226400Y-104784800D03*
%TD*%
D11*
%TO.C,Q4*%
X166319200Y-118318200D03*
D12*
X168859200Y-118318200D03*
X171399200Y-118318200D03*
%TD*%
D16*
%TO.C,RV4*%
X208732200Y-138658600D03*
D17*
X213812200Y-138658600D03*
X218892200Y-138658600D03*
%TD*%
M02*
